  0
SECTION
  2
HEADER
  9
$ACADVER
  1
AC1009
  9
$EXTMIN
 10
0.0
 20
0.0
 30
0.0
  9
$EXTMAX
 10
100.0
 20
100.0
 30
0.0
  9
$INSBASE
 10
0.0
 20
0.0
 30
0.0
  0
ENDSEC
  0
SECTION
  2
TABLES
  0
TABLE
  2
LTYPE
 70
19
  0
LTYPE
  2
PHANTOM
 70
0
  3
Phantom ______  __  __  ______  __  __  ______
 72
65
 73
6
 40
2.5
 49
1.25
 49
-0.25
 49
0.25
 49
-0.25
 49
0.25
 49
-0.25
  0
LTYPE
  2
DOT2
 70
0
  3
Dot (.5) . . . . . . . . . . . . . . . . . . . 
 72
65
 73
2
 40
0.1
 49
0.0
 49
-0.1
  0
LTYPE
  2
DIVIDE
 70
0
  3
Divide __ . . __ . . __ . . __ . . __ . . __
 72
65
 73
6
 40
1.6
 49
1.0
 49
-0.2
 49
0.0
 49
-0.2
 49
0.0
 49
-0.2
  0
LTYPE
  2
DIVIDEX2
 70
0
  3
Divide (2x) ____  . .  ____  . .  ____  . .  ____
 72
65
 73
6
 40
2.6
 49
2.0
 49
-0.2
 49
0.0
 49
-0.2
 49
0.0
 49
-0.2
  0
LTYPE
  2
CENTER
 70
0
  3
Center ____ _ ____ _ ____ _ ____ _ ____ _ ____
 72
65
 73
4
 40
2.0
 49
1.25
 49
-0.25
 49
0.25
 49
-0.25
  0
LTYPE
  2
DASHDOT
 70
0
  3
Dash dot __ . __ . __ . __ . __ . __ . __ . __
 72
65
 73
4
 40
1.4
 49
1.0
 49
-0.2
 49
0.0
 49
-0.2
  0
LTYPE
  2
CENTERX2
 70
0
  3
Center (2x) ________  __  ________  __  ________
 72
65
 73
4
 40
3.5
 49
2.5
 49
-0.25
 49
0.5
 49
-0.25
  0
LTYPE
  2
PHANTOMX2
 70
0
  3
Phantom (2x)____________    ____    ____    ____________
 72
65
 73
6
 40
4.25
 49
2.5
 49
-0.25
 49
0.5
 49
-0.25
 49
0.5
 49
-0.25
  0
LTYPE
  2
CONTINUOUS
 70
0
  3
Solid
 72
65
 73
0
 40
0.0
  0
LTYPE
  2
PHANTOM2
 70
0
  3
Phantom (.5x) ___ _ _ ___ _ _ ___ _ _ ___ _ _ ___
 72
65
 73
6
 40
1.25
 49
0.625
 49
-0.125
 49
0.125
 49
-0.125
 49
0.125
 49
-0.125
  0
LTYPE
  2
DASHED
 70
0
  3
Dashed __ __ __ __ __ __ __ __ __ __ __ __ __ _
 72
65
 73
2
 40
0.6
 49
0.5
 49
-0.1
  0
LTYPE
  2
DASHED2
 70
0
  3
Dashed (.5x) _ _ _ _ _ _ _ _ _ _ _ _ _ _
 72
65
 73
2
 40
0.3
 49
0.25
 49
-0.05
  0
LTYPE
  2
DASHDOT2
 70
0
  3
Dash dot (.5x) _ . _ . _ . _ . _ . _ . _ . _
 72
65
 73
4
 40
0.7
 49
0.5
 49
-0.1
 49
0.0
 49
-0.1
  0
LTYPE
  2
DOTX2
 70
0
  3
Dot (2x) .    .    .    .    .    .    .    . 
 72
65
 73
2
 40
0.4
 49
0.0
 49
-0.4
  0
LTYPE
  2
DIVIDE2
 70
0
  3
Divide(.5x) _ . _ . _ . _ . _ . _ . _ . _
 72
65
 73
6
 40
0.8
 49
0.5
 49
-0.1
 49
0.0
 49
-0.1
 49
0.0
 49
-0.1
  0
LTYPE
  2
CENTER2
 70
0
  3
Center (.5x) ____ _ ____ _ ____ _ ____ _ ____
 72
65
 73
4
 40
1.0
 49
0.625
 49
-0.125
 49
0.125
 49
-0.125
  0
LTYPE
  2
DASHDOTX2
 70
0
  3
Dash dot (2x) ____  .  ____  .  ____  .  ____
 72
65
 73
4
 40
2.4
 49
2.0
 49
-0.2
 49
0.0
 49
-0.2
  0
LTYPE
  2
DOT
 70
0
  3
Dot .  .  .  .  .  .  .  .  .  .  .  .  .  .  .  .
 72
65
 73
2
 40
0.2
 49
0.0
 49
-0.2
  0
LTYPE
  2
DASHEDX2
 70
0
  3
Dashed (2x) ____  ____  ____  ____  ____  ____
 72
65
 73
2
 40
1.2
 49
1.0
 49
-0.2
  0
ENDTAB
  0
TABLE
  2
LAYER
 70
5
  0
LAYER
  2
VIEWPORTS
 70
0
 62
7
  6
CONTINUOUS
  0
LAYER
  2
TABLEGRID
 70
0
 62
1
  6
CONTINUOUS
  0
LAYER
  2
TABLECONTENT
 70
0
 62
1
  6
CONTINUOUS
  0
LAYER
  2
DIMENSIONS
 70
0
 62
1
  6
CONTINUOUS
  0
LAYER
  2
TABLEBACKGROUND
 70
0
 62
1
  6
CONTINUOUS
  0
ENDTAB
  0
TABLE
  2
STYLE
 70
12
  0
STYLE
  2
TIMES
 70
0
 40
0.0
 41
1.0
 42
1.0
 50
0.0
 71
0
  3
times.ttf
  4

  0
STYLE
  2
ARIAL
 70
0
 40
0.0
 41
1.0
 42
1.0
 50
0.0
 71
0
  3
arial.ttf
  4

  0
STYLE
  2
TIMES_BOLD
 70
0
 40
0.0
 41
1.0
 42
1.0
 50
0.0
 71
0
  3
timesbd.ttf
  4

  0
STYLE
  2
ARIAL_BLACK
 70
0
 40
0.0
 41
1.0
 42
1.0
 50
0.0
 71
0
  3
ariblk.ttf
  4

  0
STYLE
  2
TIMES_ITALIC
 70
0
 40
0.0
 41
1.0
 42
1.0
 50
0.0
 71
0
  3
timesi.ttf
  4

  0
STYLE
  2
ISOCPEUR
 70
0
 40
0.0
 41
1.0
 42
1.0
 50
0.0
 71
0
  3
isocpeur.ttf
  4

  0
STYLE
  2
ARIAL_BOLD
 70
0
 40
0.0
 41
1.0
 42
1.0
 50
0.0
 71
0
  3
arialbd.ttf
  4

  0
STYLE
  2
ARIAL_ITALIC
 70
0
 40
0.0
 41
1.0
 42
1.0
 50
0.0
 71
0
  3
ariali.ttf
  4

  0
STYLE
  2
ARIAL_BOLD_ITALIC
 70
0
 40
0.0
 41
1.0
 42
1.0
 50
0.0
 71
0
  3
arialbi.ttf
  4

  0
STYLE
  2
TIMES_BOLD_ITALIC
 70
0
 40
0.0
 41
1.0
 42
1.0
 50
0.0
 71
0
  3
timesbi.ttf
  4

  0
STYLE
  2
ISOCPEUR_ITALIC
 70
0
 40
0.0
 41
1.0
 42
1.0
 50
0.0
 71
0
  3
isocpeui.ttf
  4

  0
STYLE
  2
STANDARD
 70
0
 40
0.0
 41
1.0
 42
1.0
 50
0.0
 71
0
  3
arial.ttf
  4

  0
ENDTAB
  0
TABLE
  2
VIEW
 70
0
  0
ENDTAB
  0
TABLE
  2
APPID
 70
1
  0
APPID
  2
DXFWRITE
 70
0
  0
ENDTAB
  0
TABLE
  2
VPORT
 70
0
  0
ENDTAB
  0
TABLE
  2
UCS
 70
0
  0
ENDTAB
  0
ENDSEC
  0
SECTION
  2
BLOCKS
  0
ENDSEC
  0
SECTION
  2
ENTITIES
  0
VIEWPORT
  8
VIEWPORTS
 67
1
 10
0.0
 20
0.0
 30
0.0
 40
1.0
 41
1.0
 68
1
 69
1
1001
ACAD
1000
MVIEW
1002
{
1070
16
1010
0.0
1020
0.0
1030
0.0
1010
0.0
1020
0.0
1030
0.0
1040
0.0
1040
1.0
1040
0.0
1040
0.0
1040
50.0
1040
0.0
1040
0.0
1070
0
1070
100
1070
1
1070
3
1070
0
1070
0
1070
0
1070
0
1040
0.0
1040
0.0
1040
0.0
1040
0.1
1040
0.1
1040
0.1
1040
0.1
1070
0
1002
{
1002
}
1002
}
  0
LINE
 62
7
  8
0
 10
-4.0
 20
289.0
 30
0.0
 11
0.0
 21
289.0
 31
0.0
  0
LINE
 62
7
  8
0
 10
-8.0
 20
289.0
 30
0.0
 11
-4.0
 21
289.0
 31
0.0
  0
LINE
 62
7
  8
0
 10
-12.0
 20
283.0
 30
0.0
 11
-8.0
 21
289.0
 31
0.0
  0
LINE
 62
7
  8
0
 10
-16.0
 20
284.0
 30
0.0
 11
-12.0
 21
283.0
 31
0.0
  0
LINE
 62
7
  8
0
 10
-20.0
 20
283.0
 30
0.0
 11
-16.0
 21
284.0
 31
0.0
  0
LINE
 62
7
  8
0
 10
-24.0
 20
282.0
 30
0.0
 11
-20.0
 21
283.0
 31
0.0
  0
LINE
 62
7
  8
0
 10
-28.0
 20
278.0
 30
0.0
 11
-24.0
 21
282.0
 31
0.0
  0
LINE
 62
7
  8
0
 10
-32.0
 20
278.0
 30
0.0
 11
-28.0
 21
278.0
 31
0.0
  0
LINE
 62
7
  8
0
 10
-36.0
 20
277.0
 30
0.0
 11
-32.0
 21
278.0
 31
0.0
  0
LINE
 62
7
  8
0
 10
-40.0
 20
276.0
 30
0.0
 11
-36.0
 21
277.0
 31
0.0
  0
LINE
 62
7
  8
0
 10
-44.0
 20
276.0
 30
0.0
 11
-40.0
 21
276.0
 31
0.0
  0
LINE
 62
7
  8
0
 10
-48.0
 20
275.0
 30
0.0
 11
-44.0
 21
276.0
 31
0.0
  0
LINE
 62
7
  8
0
 10
-52.0
 20
275.0
 30
0.0
 11
-48.0
 21
275.0
 31
0.0
  0
LINE
 62
7
  8
0
 10
-56.0
 20
273.0
 30
0.0
 11
-52.0
 21
275.0
 31
0.0
  0
LINE
 62
7
  8
0
 10
-60.0
 20
274.0
 30
0.0
 11
-56.0
 21
273.0
 31
0.0
  0
LINE
 62
7
  8
0
 10
-64.0
 20
272.0
 30
0.0
 11
-60.0
 21
274.0
 31
0.0
  0
LINE
 62
7
  8
0
 10
-68.0
 20
270.0
 30
0.0
 11
-64.0
 21
272.0
 31
0.0
  0
LINE
 62
7
  8
0
 10
-72.0
 20
271.0
 30
0.0
 11
-68.0
 21
270.0
 31
0.0
  0
LINE
 62
7
  8
0
 10
-76.0
 20
269.0
 30
0.0
 11
-72.0
 21
271.0
 31
0.0
  0
LINE
 62
7
  8
0
 10
-81.0
 20
273.0
 30
0.0
 11
-76.0
 21
269.0
 31
0.0
  0
LINE
 62
7
  8
0
 10
-85.0
 20
271.0
 30
0.0
 11
-81.0
 21
273.0
 31
0.0
  0
LINE
 62
7
  8
0
 10
-89.0
 20
270.0
 30
0.0
 11
-85.0
 21
271.0
 31
0.0
  0
LINE
 62
7
  8
0
 10
-93.0
 20
268.0
 30
0.0
 11
-89.0
 21
270.0
 31
0.0
  0
LINE
 62
7
  8
0
 10
-99.0
 20
272.0
 30
0.0
 11
-93.0
 21
268.0
 31
0.0
  0
LINE
 62
7
  8
0
 10
-102.0
 20
270.0
 30
0.0
 11
-99.0
 21
272.0
 31
0.0
  0
LINE
 62
7
  8
0
 10
-108.0
 20
272.0
 30
0.0
 11
-102.0
 21
270.0
 31
0.0
  0
LINE
 62
7
  8
0
 10
-112.0
 20
272.0
 30
0.0
 11
-108.0
 21
272.0
 31
0.0
  0
LINE
 62
7
  8
0
 10
-118.0
 20
273.0
 30
0.0
 11
-112.0
 21
272.0
 31
0.0
  0
LINE
 62
7
  8
0
 10
-122.0
 20
272.0
 30
0.0
 11
-118.0
 21
273.0
 31
0.0
  0
LINE
 62
7
  8
0
 10
-128.0
 20
274.0
 30
0.0
 11
-122.0
 21
272.0
 31
0.0
  0
LINE
 62
7
  8
0
 10
-131.0
 20
272.0
 30
0.0
 11
-128.0
 21
274.0
 31
0.0
  0
LINE
 62
7
  8
0
 10
-136.0
 20
271.0
 30
0.0
 11
-131.0
 21
272.0
 31
0.0
  0
LINE
 62
7
  8
0
 10
-139.0
 20
268.0
 30
0.0
 11
-136.0
 21
271.0
 31
0.0
  0
LINE
 62
7
  8
0
 10
-146.0
 20
270.0
 30
0.0
 11
-139.0
 21
268.0
 31
0.0
  0
LINE
 62
7
  8
0
 10
-150.0
 20
269.0
 30
0.0
 11
-146.0
 21
270.0
 31
0.0
  0
LINE
 62
7
  8
0
 10
-155.0
 20
270.0
 30
0.0
 11
-150.0
 21
269.0
 31
0.0
  0
LINE
 62
7
  8
0
 10
-160.0
 20
268.0
 30
0.0
 11
-155.0
 21
270.0
 31
0.0
  0
LINE
 62
7
  8
0
 10
-166.0
 20
269.0
 30
0.0
 11
-160.0
 21
268.0
 31
0.0
  0
LINE
 62
7
  8
0
 10
-170.0
 20
267.0
 30
0.0
 11
-166.0
 21
269.0
 31
0.0
  0
LINE
 62
7
  8
0
 10
-177.0
 20
269.0
 30
0.0
 11
-170.0
 21
267.0
 31
0.0
  0
LINE
 62
7
  8
0
 10
-181.0
 20
267.0
 30
0.0
 11
-177.0
 21
269.0
 31
0.0
  0
LINE
 62
7
  8
0
 10
-187.0
 20
268.0
 30
0.0
 11
-181.0
 21
267.0
 31
0.0
  0
LINE
 62
7
  8
0
 10
-194.0
 20
268.0
 30
0.0
 11
-187.0
 21
268.0
 31
0.0
  0
LINE
 62
7
  8
0
 10
-200.0
 20
269.0
 30
0.0
 11
-194.0
 21
268.0
 31
0.0
  0
LINE
 62
7
  8
0
 10
-204.0
 20
266.0
 30
0.0
 11
-200.0
 21
269.0
 31
0.0
  0
LINE
 62
7
  8
0
 10
-211.0
 20
267.0
 30
0.0
 11
-204.0
 21
266.0
 31
0.0
  0
LINE
 62
7
  8
0
 10
-216.0
 20
266.0
 30
0.0
 11
-211.0
 21
267.0
 31
0.0
  0
LINE
 62
7
  8
0
 10
-224.0
 20
267.0
 30
0.0
 11
-216.0
 21
266.0
 31
0.0
  0
LINE
 62
7
  8
0
 10
-230.0
 20
266.0
 30
0.0
 11
-224.0
 21
267.0
 31
0.0
  0
LINE
 62
7
  8
0
 10
-236.0
 20
266.0
 30
0.0
 11
-230.0
 21
266.0
 31
0.0
  0
LINE
 62
7
  8
0
 10
-243.0
 20
265.0
 30
0.0
 11
-236.0
 21
266.0
 31
0.0
  0
LINE
 62
7
  8
0
 10
-252.0
 20
267.0
 30
0.0
 11
-243.0
 21
265.0
 31
0.0
  0
LINE
 62
7
  8
0
 10
-256.0
 20
264.0
 30
0.0
 11
-252.0
 21
267.0
 31
0.0
  0
LINE
 62
7
  8
0
 10
-262.0
 20
262.0
 30
0.0
 11
-256.0
 21
264.0
 31
0.0
  0
LINE
 62
7
  8
0
 10
-269.0
 20
261.0
 30
0.0
 11
-262.0
 21
262.0
 31
0.0
  0
LINE
 62
7
  8
0
 10
-276.0
 20
261.0
 30
0.0
 11
-269.0
 21
261.0
 31
0.0
  0
LINE
 62
7
  8
0
 10
-279.0
 20
256.0
 30
0.0
 11
-276.0
 21
261.0
 31
0.0
  0
LINE
 62
7
  8
0
 10
-290.0
 20
258.0
 30
0.0
 11
-279.0
 21
256.0
 31
0.0
  0
LINE
 62
7
  8
0
 10
-293.0
 20
253.0
 30
0.0
 11
-290.0
 21
258.0
 31
0.0
  0
LINE
 62
7
  8
0
 10
-302.0
 20
254.0
 30
0.0
 11
-293.0
 21
253.0
 31
0.0
  0
LINE
 62
7
  8
0
 10
-311.0
 20
253.0
 30
0.0
 11
-302.0
 21
254.0
 31
0.0
  0
LINE
 62
7
  8
0
 10
-316.0
 20
250.0
 30
0.0
 11
-311.0
 21
253.0
 31
0.0
  0
LINE
 62
7
  8
0
 10
-321.0
 20
246.0
 30
0.0
 11
-316.0
 21
250.0
 31
0.0
  0
LINE
 62
7
  8
0
 10
-337.0
 20
251.0
 30
0.0
 11
-321.0
 21
246.0
 31
0.0
  0
LINE
 62
7
  8
0
 10
-340.0
 20
246.0
 30
0.0
 11
-337.0
 21
251.0
 31
0.0
  0
LINE
 62
7
  8
0
 10
-345.0
 20
241.0
 30
0.0
 11
-340.0
 21
246.0
 31
0.0
  0
LINE
 62
7
  8
0
 10
-356.0
 20
241.0
 30
0.0
 11
-345.0
 21
241.0
 31
0.0
  0
LINE
 62
7
  8
0
 10
-369.0
 20
242.0
 30
0.0
 11
-356.0
 21
241.0
 31
0.0
  0
LINE
 62
7
  8
0
 10
-374.0
 20
238.0
 30
0.0
 11
-369.0
 21
242.0
 31
0.0
  0
LINE
 62
7
  8
0
 10
-385.0
 20
237.0
 30
0.0
 11
-374.0
 21
238.0
 31
0.0
  0
LINE
 62
7
  8
0
 10
-387.0
 20
231.0
 30
0.0
 11
-385.0
 21
237.0
 31
0.0
  0
LINE
 62
7
  8
0
 10
-404.0
 20
233.0
 30
0.0
 11
-387.0
 21
231.0
 31
0.0
  0
LINE
 62
7
  8
0
 10
-414.0
 20
231.0
 30
0.0
 11
-404.0
 21
233.0
 31
0.0
  0
LINE
 62
7
  8
0
 10
-440.0
 20
237.0
 30
0.0
 11
-414.0
 21
231.0
 31
0.0
  0
LINE
 62
7
  8
0
 10
-439.0
 20
228.0
 30
0.0
 11
-440.0
 21
237.0
 31
0.0
  0
LINE
 62
7
  8
0
 10
-454.0
 20
228.0
 30
0.0
 11
-439.0
 21
228.0
 31
0.0
  0
LINE
 62
7
  8
0
 10
-467.0
 20
226.0
 30
0.0
 11
-454.0
 21
228.0
 31
0.0
  0
LINE
 62
7
  8
0
 10
-489.0
 20
228.0
 30
0.0
 11
-467.0
 21
226.0
 31
0.0
  0
LINE
 62
7
  8
0
 10
-502.0
 20
225.0
 30
0.0
 11
-489.0
 21
228.0
 31
0.0
  0
LINE
 62
7
  8
0
 10
-516.0
 20
222.0
 30
0.0
 11
-502.0
 21
225.0
 31
0.0
  0
LINE
 62
7
  8
0
 10
-508.0
 20
210.0
 30
0.0
 11
-516.0
 21
222.0
 31
0.0
  0
LINE
 62
7
  8
0
 10
-501.0
 20
199.0
 30
0.0
 11
-508.0
 21
210.0
 31
0.0
  0
LINE
 62
7
  8
0
 10
-503.0
 20
191.0
 30
0.0
 11
-501.0
 21
199.0
 31
0.0
  0
LINE
 62
7
  8
0
 10
-508.0
 20
185.0
 30
0.0
 11
-503.0
 21
191.0
 31
0.0
  0
LINE
 62
7
  8
0
 10
-498.0
 20
173.0
 30
0.0
 11
-508.0
 21
185.0
 31
0.0
  0
LINE
 62
7
  8
0
 10
-484.0
 20
160.0
 30
0.0
 11
-498.0
 21
173.0
 31
0.0
  0
LINE
 62
7
  8
0
 10
-495.0
 20
156.0
 30
0.0
 11
-484.0
 21
160.0
 31
0.0
  0
LINE
 62
7
  8
0
 10
-487.0
 20
145.0
 30
0.0
 11
-495.0
 21
156.0
 31
0.0
  0
LINE
 62
7
  8
0
 10
-492.0
 20
139.0
 30
0.0
 11
-487.0
 21
145.0
 31
0.0
  0
LINE
 62
7
  8
0
 10
-483.0
 20
129.0
 30
0.0
 11
-492.0
 21
139.0
 31
0.0
  0
LINE
 62
7
  8
0
 10
-485.0
 20
122.0
 30
0.0
 11
-483.0
 21
129.0
 31
0.0
  0
LINE
 62
7
  8
0
 10
-483.0
 20
114.0
 30
0.0
 11
-485.0
 21
122.0
 31
0.0
  0
LINE
 62
7
  8
0
 10
-480.0
 20
106.0
 30
0.0
 11
-483.0
 21
114.0
 31
0.0
  0
LINE
 62
7
  8
0
 10
-480.0
 20
99.0
 30
0.0
 11
-480.0
 21
106.0
 31
0.0
  0
LINE
 62
7
  8
0
 10
-475.0
 20
90.0
 30
0.0
 11
-480.0
 21
99.0
 31
0.0
  0
LINE
 62
7
  8
0
 10
-474.0
 20
83.0
 30
0.0
 11
-475.0
 21
90.0
 31
0.0
  0
LINE
 62
7
  8
0
 10
-478.0
 20
77.0
 30
0.0
 11
-474.0
 21
83.0
 31
0.0
  0
LINE
 62
7
  8
0
 10
-475.0
 20
69.0
 30
0.0
 11
-478.0
 21
77.0
 31
0.0
  0
LINE
 62
7
  8
0
 10
-473.0
 20
62.0
 30
0.0
 11
-475.0
 21
69.0
 31
0.0
  0
LINE
 62
7
  8
0
 10
-473.0
 20
55.0
 30
0.0
 11
-473.0
 21
62.0
 31
0.0
  0
LINE
 62
7
  8
0
 10
-474.0
 20
48.0
 30
0.0
 11
-473.0
 21
55.0
 31
0.0
  0
LINE
 62
7
  8
0
 10
-473.0
 20
41.0
 30
0.0
 11
-474.0
 21
48.0
 31
0.0
  0
LINE
 62
7
  8
0
 10
-466.0
 20
34.0
 30
0.0
 11
-473.0
 21
41.0
 31
0.0
  0
LINE
 62
7
  8
0
 10
-465.0
 20
27.0
 30
0.0
 11
-466.0
 21
34.0
 31
0.0
  0
LINE
 62
7
  8
0
 10
-472.0
 20
20.0
 30
0.0
 11
-465.0
 21
27.0
 31
0.0
  0
LINE
 62
7
  8
0
 10
-467.0
 20
13.0
 30
0.0
 11
-472.0
 21
20.0
 31
0.0
  0
LINE
 62
7
  8
0
 10
-466.0
 20
6.0
 30
0.0
 11
-467.0
 21
13.0
 31
0.0
  0
LINE
 62
7
  8
0
 10
-466.0
 20
0.0
 30
0.0
 11
-466.0
 21
6.0
 31
0.0
  0
LINE
 62
7
  8
0
 10
-467.0
 20
-6.0
 30
0.0
 11
-466.0
 21
0.0
 31
0.0
  0
LINE
 62
7
  8
0
 10
-461.0
 20
-13.0
 30
0.0
 11
-467.0
 21
-6.0
 31
0.0
  0
LINE
 62
7
  8
0
 10
-459.0
 20
-20.0
 30
0.0
 11
-461.0
 21
-13.0
 31
0.0
  0
LINE
 62
7
  8
0
 10
-460.0
 20
-26.0
 30
0.0
 11
-459.0
 21
-20.0
 31
0.0
  0
LINE
 62
7
  8
0
 10
-458.0
 20
-33.0
 30
0.0
 11
-460.0
 21
-26.0
 31
0.0
  0
LINE
 62
7
  8
0
 10
-457.0
 20
-39.0
 30
0.0
 11
-458.0
 21
-33.0
 31
0.0
  0
LINE
 62
7
  8
0
 10
-452.0
 20
-46.0
 30
0.0
 11
-457.0
 21
-39.0
 31
0.0
  0
LINE
 62
7
  8
0
 10
-451.0
 20
-52.0
 30
0.0
 11
-452.0
 21
-46.0
 31
0.0
  0
LINE
 62
7
  8
0
 10
-449.0
 20
-59.0
 30
0.0
 11
-451.0
 21
-52.0
 31
0.0
  0
LINE
 62
7
  8
0
 10
-448.0
 20
-65.0
 30
0.0
 11
-449.0
 21
-59.0
 31
0.0
  0
LINE
 62
7
  8
0
 10
-448.0
 20
-72.0
 30
0.0
 11
-448.0
 21
-65.0
 31
0.0
  0
LINE
 62
7
  8
0
 10
-447.0
 20
-78.0
 30
0.0
 11
-448.0
 21
-72.0
 31
0.0
  0
LINE
 62
7
  8
0
 10
-445.0
 20
-85.0
 30
0.0
 11
-447.0
 21
-78.0
 31
0.0
  0
LINE
 62
7
  8
0
 10
-444.0
 20
-91.0
 30
0.0
 11
-445.0
 21
-85.0
 31
0.0
  0
LINE
 62
7
  8
0
 10
-444.0
 20
-98.0
 30
0.0
 11
-444.0
 21
-91.0
 31
0.0
  0
LINE
 62
7
  8
0
 10
-441.0
 20
-104.0
 30
0.0
 11
-444.0
 21
-98.0
 31
0.0
  0
LINE
 62
7
  8
0
 10
-439.0
 20
-111.0
 30
0.0
 11
-441.0
 21
-104.0
 31
0.0
  0
LINE
 62
7
  8
0
 10
-444.0
 20
-119.0
 30
0.0
 11
-439.0
 21
-111.0
 31
0.0
  0
LINE
 62
7
  8
0
 10
-444.0
 20
-126.0
 30
0.0
 11
-444.0
 21
-119.0
 31
0.0
  0
LINE
 62
7
  8
0
 10
-440.0
 20
-131.0
 30
0.0
 11
-444.0
 21
-126.0
 31
0.0
  0
LINE
 62
7
  8
0
 10
-438.0
 20
-138.0
 30
0.0
 11
-440.0
 21
-131.0
 31
0.0
  0
LINE
 62
7
  8
0
 10
-440.0
 20
-145.0
 30
0.0
 11
-438.0
 21
-138.0
 31
0.0
  0
LINE
 62
7
  8
0
 10
-442.0
 20
-153.0
 30
0.0
 11
-440.0
 21
-145.0
 31
0.0
  0
LINE
 62
7
  8
0
 10
-438.0
 20
-159.0
 30
0.0
 11
-442.0
 21
-153.0
 31
0.0
  0
LINE
 62
7
  8
0
 10
-435.0
 20
-165.0
 30
0.0
 11
-438.0
 21
-159.0
 31
0.0
  0
LINE
 62
7
  8
0
 10
-436.0
 20
-173.0
 30
0.0
 11
-435.0
 21
-165.0
 31
0.0
  0
LINE
 62
7
  8
0
 10
-440.0
 20
-182.0
 30
0.0
 11
-436.0
 21
-173.0
 31
0.0
  0
LINE
 62
7
  8
0
 10
-437.0
 20
-188.0
 30
0.0
 11
-440.0
 21
-182.0
 31
0.0
  0
LINE
 62
7
  8
0
 10
-434.0
 20
-195.0
 30
0.0
 11
-437.0
 21
-188.0
 31
0.0
  0
LINE
 62
7
  8
0
 10
-430.0
 20
-200.0
 30
0.0
 11
-434.0
 21
-195.0
 31
0.0
  0
LINE
 62
7
  8
0
 10
-428.0
 20
-207.0
 30
0.0
 11
-430.0
 21
-200.0
 31
0.0
  0
LINE
 62
7
  8
0
 10
-425.0
 20
-213.0
 30
0.0
 11
-428.0
 21
-207.0
 31
0.0
  0
LINE
 62
7
  8
0
 10
-425.0
 20
-221.0
 30
0.0
 11
-425.0
 21
-213.0
 31
0.0
  0
LINE
 62
7
  8
0
 10
-426.0
 20
-229.0
 30
0.0
 11
-425.0
 21
-221.0
 31
0.0
  0
LINE
 62
7
  8
0
 10
-423.0
 20
-236.0
 30
0.0
 11
-426.0
 21
-229.0
 31
0.0
  0
LINE
 62
7
  8
0
 10
-419.0
 20
-242.0
 30
0.0
 11
-423.0
 21
-236.0
 31
0.0
  0
LINE
 62
7
  8
0
 10
-415.0
 20
-248.0
 30
0.0
 11
-419.0
 21
-242.0
 31
0.0
  0
LINE
 62
7
  8
0
 10
-418.0
 20
-258.0
 30
0.0
 11
-415.0
 21
-248.0
 31
0.0
  0
LINE
 62
7
  8
0
 10
-421.0
 20
-268.0
 30
0.0
 11
-418.0
 21
-258.0
 31
0.0
  0
LINE
 62
7
  8
0
 10
-412.0
 20
-271.0
 30
0.0
 11
-421.0
 21
-268.0
 31
0.0
  0
LINE
 62
7
  8
0
 10
-409.0
 20
-277.0
 30
0.0
 11
-412.0
 21
-271.0
 31
0.0
  0
LINE
 62
7
  8
0
 10
-418.0
 20
-293.0
 30
0.0
 11
-409.0
 21
-277.0
 31
0.0
  0
LINE
 62
7
  8
0
 10
-406.0
 20
-293.0
 30
0.0
 11
-418.0
 21
-293.0
 31
0.0
  0
LINE
 62
7
  8
0
 10
-415.0
 20
-309.0
 30
0.0
 11
-406.0
 21
-293.0
 31
0.0
  0
LINE
 62
7
  8
0
 10
-408.0
 20
-313.0
 30
0.0
 11
-415.0
 21
-309.0
 31
0.0
  0
LINE
 62
7
  8
0
 10
-410.0
 20
-324.0
 30
0.0
 11
-408.0
 21
-313.0
 31
0.0
  0
LINE
 62
7
  8
0
 10
-411.0
 20
-335.0
 30
0.0
 11
-410.0
 21
-324.0
 31
0.0
  0
LINE
 62
7
  8
0
 10
-411.0
 20
-345.0
 30
0.0
 11
-411.0
 21
-335.0
 31
0.0
  0
LINE
 62
7
  8
0
 10
-404.0
 20
-349.0
 30
0.0
 11
-411.0
 21
-345.0
 31
0.0
  0
LINE
 62
7
  8
0
 10
-404.0
 20
-359.0
 30
0.0
 11
-404.0
 21
-349.0
 31
0.0
  0
LINE
 62
7
  8
0
 10
-404.0
 20
-370.0
 30
0.0
 11
-404.0
 21
-359.0
 31
0.0
  0
LINE
 62
7
  8
0
 10
-433.0
 20
-409.0
 30
0.0
 11
-404.0
 21
-370.0
 31
0.0
  0
LINE
 62
7
  8
0
 10
-401.0
 20
-390.0
 30
0.0
 11
-433.0
 21
-409.0
 31
0.0
  0
LINE
 62
7
  8
0
 10
-396.0
 20
-396.0
 30
0.0
 11
-401.0
 21
-390.0
 31
0.0
  0
LINE
 62
7
  8
0
 10
-400.0
 20
-411.0
 30
0.0
 11
-396.0
 21
-396.0
 31
0.0
  0
LINE
 62
7
  8
0
 10
-396.0
 20
-420.0
 30
0.0
 11
-400.0
 21
-411.0
 31
0.0
  0
LINE
 62
7
  8
0
 10
-396.0
 20
-432.0
 30
0.0
 11
-396.0
 21
-420.0
 31
0.0
  0
LINE
 62
7
  8
0
 10
-393.0
 20
-441.0
 30
0.0
 11
-396.0
 21
-432.0
 31
0.0
  0
LINE
 62
7
  8
0
 10
-393.0
 20
-455.0
 30
0.0
 11
-393.0
 21
-441.0
 31
0.0
  0
LINE
 62
7
  8
0
 10
-385.0
 20
-459.0
 30
0.0
 11
-393.0
 21
-455.0
 31
0.0
  0
LINE
 62
7
  8
0
 10
-380.0
 20
-467.0
 30
0.0
 11
-385.0
 21
-459.0
 31
0.0
  0
LINE
 62
7
  8
0
 10
-385.0
 20
-488.0
 30
0.0
 11
-380.0
 21
-467.0
 31
0.0
  0
LINE
 62
7
  8
0
 10
-383.0
 20
-499.0
 30
0.0
 11
-385.0
 21
-488.0
 31
0.0
  0
LINE
 62
7
  8
0
 10
-386.0
 20
-518.0
 30
0.0
 11
-383.0
 21
-499.0
 31
0.0
  0
LINE
 62
7
  8
0
 10
-379.0
 20
-526.0
 30
0.0
 11
-386.0
 21
-518.0
 31
0.0
  0
LINE
 62
7
  8
0
 10
-372.0
 20
-532.0
 30
0.0
 11
-379.0
 21
-526.0
 31
0.0
  0
LINE
 62
7
  8
0
 10
-377.0
 20
-556.0
 30
0.0
 11
-372.0
 21
-532.0
 31
0.0
  0
LINE
 62
7
  8
0
 10
-376.0
 20
-571.0
 30
0.0
 11
-377.0
 21
-556.0
 31
0.0
  0
LINE
 62
7
  8
0
 10
-375.0
 20
-589.0
 30
0.0
 11
-376.0
 21
-571.0
 31
0.0
  0
LINE
 62
7
  8
0
 10
-352.0
 20
-570.0
 30
0.0
 11
-375.0
 21
-589.0
 31
0.0
  0
LINE
 62
7
  8
0
 10
-380.0
 20
-637.0
 30
0.0
 11
-352.0
 21
-570.0
 31
0.0
  0
LINE
 62
7
  8
0
 10
-355.0
 20
-616.0
 30
0.0
 11
-380.0
 21
-637.0
 31
0.0
  0
LINE
 62
7
  8
0
 10
-349.0
 20
-625.0
 30
0.0
 11
-355.0
 21
-616.0
 31
0.0
  0
LINE
 62
7
  8
0
 10
-346.0
 20
-642.0
 30
0.0
 11
-349.0
 21
-625.0
 31
0.0
  0
LINE
 62
7
  8
0
 10
-330.0
 20
-635.0
 30
0.0
 11
-346.0
 21
-642.0
 31
0.0
  0
LINE
 62
7
  8
0
 10
-343.0
 20
-683.0
 30
0.0
 11
-330.0
 21
-635.0
 31
0.0
  0
LINE
 62
7
  8
0
 10
-348.0
 20
-719.0
 30
0.0
 11
-343.0
 21
-683.0
 31
0.0
  0
LINE
 62
7
  8
0
 10
-343.0
 20
-736.0
 30
0.0
 11
-348.0
 21
-719.0
 31
0.0
  0
LINE
 62
7
  8
0
 10
-331.0
 20
-738.0
 30
0.0
 11
-343.0
 21
-736.0
 31
0.0
  0
LINE
 62
7
  8
0
 10
-331.0
 20
-768.0
 30
0.0
 11
-331.0
 21
-738.0
 31
0.0
  0
LINE
 62
7
  8
0
 10
-305.0
 20
-738.0
 30
0.0
 11
-331.0
 21
-768.0
 31
0.0
  0
LINE
 62
7
  8
0
 10
-299.0
 20
-753.0
 30
0.0
 11
-305.0
 21
-738.0
 31
0.0
  0
LINE
 62
7
  8
0
 10
-283.0
 20
-744.0
 30
0.0
 11
-299.0
 21
-753.0
 31
0.0
  0
LINE
 62
7
  8
0
 10
-274.0
 20
-754.0
 30
0.0
 11
-283.0
 21
-744.0
 31
0.0
  0
LINE
 62
7
  8
0
 10
-247.0
 20
-713.0
 30
0.0
 11
-274.0
 21
-754.0
 31
0.0
  0
LINE
 62
7
  8
0
 10
-242.0
 20
-732.0
 30
0.0
 11
-247.0
 21
-713.0
 31
0.0
  0
LINE
 62
7
  8
0
 10
-236.0
 20
-750.0
 30
0.0
 11
-242.0
 21
-732.0
 31
0.0
  0
LINE
 62
7
  8
0
 10
-210.0
 20
-702.0
 30
0.0
 11
-236.0
 21
-750.0
 31
0.0
  0
LINE
 62
7
  8
0
 10
-204.0
 20
-721.0
 30
0.0
 11
-210.0
 21
-702.0
 31
0.0
  0
LINE
 62
7
  8
0
 10
-184.0
 20
-689.0
 30
0.0
 11
-204.0
 21
-721.0
 31
0.0
  0
LINE
 62
7
  8
0
 10
-180.0
 20
-715.0
 30
0.0
 11
-184.0
 21
-689.0
 31
0.0
  0
LINE
 62
7
  8
0
 10
-167.0
 20
-706.0
 30
0.0
 11
-180.0
 21
-715.0
 31
0.0
  0
LINE
 62
7
  8
0
 10
-158.0
 20
-715.0
 30
0.0
 11
-167.0
 21
-706.0
 31
0.0
  0
LINE
 62
7
  8
0
 10
-139.0
 20
-677.0
 30
0.0
 11
-158.0
 21
-715.0
 31
0.0
  0
LINE
 62
7
  8
0
 10
-132.0
 20
-694.0
 30
0.0
 11
-139.0
 21
-677.0
 31
0.0
  0
LINE
 62
7
  8
0
 10
-119.0
 20
-676.0
 30
0.0
 11
-132.0
 21
-694.0
 31
0.0
  0
LINE
 62
7
  8
0
 10
-109.0
 20
-681.0
 30
0.0
 11
-119.0
 21
-676.0
 31
0.0
  0
LINE
 62
7
  8
0
 10
-101.0
 20
-694.0
 30
0.0
 11
-109.0
 21
-681.0
 31
0.0
  0
LINE
 62
7
  8
0
 10
-86.0
 20
-660.0
 30
0.0
 11
-101.0
 21
-694.0
 31
0.0
  0
LINE
 62
7
  8
0
 10
-78.0
 20
-669.0
 30
0.0
 11
-86.0
 21
-660.0
 31
0.0
  0
LINE
 62
7
  8
0
 10
-67.0
 20
-656.0
 30
0.0
 11
-78.0
 21
-669.0
 31
0.0
  0
LINE
 62
7
  8
0
 10
-58.0
 20
-672.0
 30
0.0
 11
-67.0
 21
-656.0
 31
0.0
  0
LINE
 62
7
  8
0
 10
-48.0
 20
-670.0
 30
0.0
 11
-58.0
 21
-672.0
 31
0.0
  0
LINE
 62
7
  8
0
 10
-38.0
 20
-652.0
 30
0.0
 11
-48.0
 21
-670.0
 31
0.0
  0
LINE
 62
7
  8
0
 10
-28.0
 20
-661.0
 30
0.0
 11
-38.0
 21
-652.0
 31
0.0
  0
LINE
 62
7
  8
0
 10
-19.0
 20
-655.0
 30
0.0
 11
-28.0
 21
-661.0
 31
0.0
  0
LINE
 62
7
  8
0
 10
-9.0
 20
-654.0
 30
0.0
 11
-19.0
 21
-655.0
 31
0.0
  0
LINE
 62
7
  8
0
 10
0.0
 20
-655.0
 30
0.0
 11
-9.0
 21
-654.0
 31
0.0
  0
LINE
 62
7
  8
0
 10
9.0
 20
-654.0
 30
0.0
 11
0.0
 21
-655.0
 31
0.0
  0
LINE
 62
7
  8
0
 10
19.0
 20
-653.0
 30
0.0
 11
9.0
 21
-654.0
 31
0.0
  0
LINE
 62
7
  8
0
 10
28.0
 20
-652.0
 30
0.0
 11
19.0
 21
-653.0
 31
0.0
  0
LINE
 62
7
  8
0
 10
37.0
 20
-652.0
 30
0.0
 11
28.0
 21
-652.0
 31
0.0
  0
LINE
 62
7
  8
0
 10
47.0
 20
-654.0
 30
0.0
 11
37.0
 21
-652.0
 31
0.0
  0
LINE
 62
7
  8
0
 10
56.0
 20
-650.0
 30
0.0
 11
47.0
 21
-654.0
 31
0.0
  0
LINE
 62
7
  8
0
 10
66.0
 20
-650.0
 30
0.0
 11
56.0
 21
-650.0
 31
0.0
  0
LINE
 62
7
  8
0
 10
75.0
 20
-642.0
 30
0.0
 11
66.0
 21
-650.0
 31
0.0
  0
LINE
 62
7
  8
0
 10
84.0
 20
-641.0
 30
0.0
 11
75.0
 21
-642.0
 31
0.0
  0
LINE
 62
7
  8
0
 10
94.0
 20
-642.0
 30
0.0
 11
84.0
 21
-641.0
 31
0.0
  0
LINE
 62
7
  8
0
 10
103.0
 20
-640.0
 30
0.0
 11
94.0
 21
-642.0
 31
0.0
  0
LINE
 62
7
  8
0
 10
112.0
 20
-639.0
 30
0.0
 11
103.0
 21
-640.0
 31
0.0
  0
LINE
 62
7
  8
0
 10
121.0
 20
-636.0
 30
0.0
 11
112.0
 21
-639.0
 31
0.0
  0
LINE
 62
7
  8
0
 10
130.0
 20
-629.0
 30
0.0
 11
121.0
 21
-636.0
 31
0.0
  0
LINE
 62
7
  8
0
 10
136.0
 20
-616.0
 30
0.0
 11
130.0
 21
-629.0
 31
0.0
  0
LINE
 62
7
  8
0
 10
145.0
 20
-614.0
 30
0.0
 11
136.0
 21
-616.0
 31
0.0
  0
LINE
 62
7
  8
0
 10
154.0
 20
-613.0
 30
0.0
 11
145.0
 21
-614.0
 31
0.0
  0
LINE
 62
7
  8
0
 10
164.0
 20
-612.0
 30
0.0
 11
154.0
 21
-613.0
 31
0.0
  0
LINE
 62
7
  8
0
 10
172.0
 20
-607.0
 30
0.0
 11
164.0
 21
-612.0
 31
0.0
  0
LINE
 62
7
  8
0
 10
185.0
 20
-620.0
 30
0.0
 11
172.0
 21
-607.0
 31
0.0
  0
LINE
 62
7
  8
0
 10
194.0
 20
-617.0
 30
0.0
 11
185.0
 21
-620.0
 31
0.0
  0
LINE
 62
7
  8
0
 10
203.0
 20
-614.0
 30
0.0
 11
194.0
 21
-617.0
 31
0.0
  0
LINE
 62
7
  8
0
 10
211.0
 20
-609.0
 30
0.0
 11
203.0
 21
-614.0
 31
0.0
  0
LINE
 62
7
  8
0
 10
223.0
 20
-614.0
 30
0.0
 11
211.0
 21
-609.0
 31
0.0
  0
LINE
 62
7
  8
0
 10
233.0
 20
-613.0
 30
0.0
 11
223.0
 21
-614.0
 31
0.0
  0
LINE
 62
7
  8
0
 10
241.0
 20
-607.0
 30
0.0
 11
233.0
 21
-613.0
 31
0.0
  0
LINE
 62
7
  8
0
 10
250.0
 20
-604.0
 30
0.0
 11
241.0
 21
-607.0
 31
0.0
  0
LINE
 62
7
  8
0
 10
259.0
 20
-601.0
 30
0.0
 11
250.0
 21
-604.0
 31
0.0
  0
LINE
 62
7
  8
0
 10
268.0
 20
-599.0
 30
0.0
 11
259.0
 21
-601.0
 31
0.0
  0
LINE
 62
7
  8
0
 10
276.0
 20
-593.0
 30
0.0
 11
268.0
 21
-599.0
 31
0.0
  0
LINE
 62
7
  8
0
 10
285.0
 20
-589.0
 30
0.0
 11
276.0
 21
-593.0
 31
0.0
  0
LINE
 62
7
  8
0
 10
290.0
 20
-579.0
 30
0.0
 11
285.0
 21
-589.0
 31
0.0
  0
LINE
 62
7
  8
0
 10
301.0
 20
-580.0
 30
0.0
 11
290.0
 21
-579.0
 31
0.0
  0
LINE
 62
7
  8
0
 10
307.0
 20
-570.0
 30
0.0
 11
301.0
 21
-580.0
 31
0.0
  0
LINE
 62
7
  8
0
 10
319.0
 20
-572.0
 30
0.0
 11
307.0
 21
-570.0
 31
0.0
  0
LINE
 62
7
  8
0
 10
326.0
 20
-565.0
 30
0.0
 11
319.0
 21
-572.0
 31
0.0
  0
LINE
 62
7
  8
0
 10
339.0
 20
-568.0
 30
0.0
 11
326.0
 21
-565.0
 31
0.0
  0
LINE
 62
7
  8
0
 10
360.0
 20
-583.0
 30
0.0
 11
339.0
 21
-568.0
 31
0.0
  0
LINE
 62
7
  8
0
 10
370.0
 20
-581.0
 30
0.0
 11
360.0
 21
-583.0
 31
0.0
  0
LINE
 62
7
  8
0
 10
375.0
 20
-570.0
 30
0.0
 11
370.0
 21
-581.0
 31
0.0
  0
LINE
 62
7
  8
0
 10
388.0
 20
-572.0
 30
0.0
 11
375.0
 21
-570.0
 31
0.0
  0
LINE
 62
7
  8
0
 10
408.0
 20
-583.0
 30
0.0
 11
388.0
 21
-572.0
 31
0.0
  0
LINE
 62
7
  8
0
 10
406.0
 20
-562.0
 30
0.0
 11
408.0
 21
-583.0
 31
0.0
  0
LINE
 62
7
  8
0
 10
438.0
 20
-588.0
 30
0.0
 11
406.0
 21
-562.0
 31
0.0
  0
LINE
 62
7
  8
0
 10
432.0
 20
-563.0
 30
0.0
 11
438.0
 21
-588.0
 31
0.0
  0
LINE
 62
7
  8
0
 10
461.0
 20
-583.0
 30
0.0
 11
432.0
 21
-563.0
 31
0.0
  0
LINE
 62
7
  8
0
 10
451.0
 20
-553.0
 30
0.0
 11
461.0
 21
-583.0
 31
0.0
  0
LINE
 62
7
  8
0
 10
504.0
 20
-601.0
 30
0.0
 11
451.0
 21
-553.0
 31
0.0
  0
LINE
 62
7
  8
0
 10
504.0
 20
-584.0
 30
0.0
 11
504.0
 21
-601.0
 31
0.0
  0
LINE
 62
7
  8
0
 10
513.0
 20
-576.0
 30
0.0
 11
504.0
 21
-584.0
 31
0.0
  0
LINE
 62
7
  8
0
 10
527.0
 20
-575.0
 30
0.0
 11
513.0
 21
-576.0
 31
0.0
  0
LINE
 62
7
  8
0
 10
531.0
 20
-563.0
 30
0.0
 11
527.0
 21
-575.0
 31
0.0
  0
LINE
 62
7
  8
0
 10
561.0
 20
-577.0
 30
0.0
 11
531.0
 21
-563.0
 31
0.0
  0
LINE
 62
7
  8
0
 10
550.0
 20
-550.0
 30
0.0
 11
561.0
 21
-577.0
 31
0.0
  0
LINE
 62
7
  8
0
 10
559.0
 20
-542.0
 30
0.0
 11
550.0
 21
-550.0
 31
0.0
  0
LINE
 62
7
  8
0
 10
534.0
 20
-504.0
 30
0.0
 11
559.0
 21
-542.0
 31
0.0
  0
LINE
 62
7
  8
0
 10
534.0
 20
-489.0
 30
0.0
 11
534.0
 21
-504.0
 31
0.0
  0
LINE
 62
7
  8
0
 10
535.0
 20
-476.0
 30
0.0
 11
534.0
 21
-489.0
 31
0.0
  0
LINE
 62
7
  8
0
 10
524.0
 20
-453.0
 30
0.0
 11
535.0
 21
-476.0
 31
0.0
  0
LINE
 62
7
  8
0
 10
495.0
 20
-415.0
 30
0.0
 11
524.0
 21
-453.0
 31
0.0
  0
LINE
 62
7
  8
0
 10
514.0
 20
-419.0
 30
0.0
 11
495.0
 21
-415.0
 31
0.0
  0
LINE
 62
7
  8
0
 10
482.0
 20
-381.0
 30
0.0
 11
514.0
 21
-419.0
 31
0.0
  0
LINE
 62
7
  8
0
 10
467.0
 20
-358.0
 30
0.0
 11
482.0
 21
-381.0
 31
0.0
  0
LINE
 62
7
  8
0
 10
466.0
 20
-347.0
 30
0.0
 11
467.0
 21
-358.0
 31
0.0
  0
LINE
 62
7
  8
0
 10
464.0
 20
-335.0
 30
0.0
 11
466.0
 21
-347.0
 31
0.0
  0
LINE
 62
7
  8
0
 10
460.0
 20
-322.0
 30
0.0
 11
464.0
 21
-335.0
 31
0.0
  0
LINE
 62
7
  8
0
 10
466.0
 20
-316.0
 30
0.0
 11
460.0
 21
-322.0
 31
0.0
  0
LINE
 62
7
  8
0
 10
453.0
 20
-298.0
 30
0.0
 11
466.0
 21
-316.0
 31
0.0
  0
LINE
 62
7
  8
0
 10
451.0
 20
-287.0
 30
0.0
 11
453.0
 21
-298.0
 31
0.0
  0
LINE
 62
7
  8
0
 10
442.0
 20
-272.0
 30
0.0
 11
451.0
 21
-287.0
 31
0.0
  0
LINE
 62
7
  8
0
 10
444.0
 20
-265.0
 30
0.0
 11
442.0
 21
-272.0
 31
0.0
  0
LINE
 62
7
  8
0
 10
440.0
 20
-254.0
 30
0.0
 11
444.0
 21
-265.0
 31
0.0
  0
LINE
 62
7
  8
0
 10
448.0
 20
-250.0
 30
0.0
 11
440.0
 21
-254.0
 31
0.0
  0
LINE
 62
7
  8
0
 10
441.0
 20
-238.0
 30
0.0
 11
448.0
 21
-250.0
 31
0.0
  0
LINE
 62
7
  8
0
 10
440.0
 20
-229.0
 30
0.0
 11
441.0
 21
-238.0
 31
0.0
  0
LINE
 62
7
  8
0
 10
440.0
 20
-220.0
 30
0.0
 11
440.0
 21
-229.0
 31
0.0
  0
LINE
 62
7
  8
0
 10
435.0
 20
-210.0
 30
0.0
 11
440.0
 21
-220.0
 31
0.0
  0
LINE
 62
7
  8
0
 10
427.0
 20
-199.0
 30
0.0
 11
435.0
 21
-210.0
 31
0.0
  0
LINE
 62
7
  8
0
 10
432.0
 20
-193.0
 30
0.0
 11
427.0
 21
-199.0
 31
0.0
  0
LINE
 62
7
  8
0
 10
428.0
 20
-185.0
 30
0.0
 11
432.0
 21
-193.0
 31
0.0
  0
LINE
 62
7
  8
0
 10
426.0
 20
-176.0
 30
0.0
 11
428.0
 21
-185.0
 31
0.0
  0
LINE
 62
7
  8
0
 10
427.0
 20
-169.0
 30
0.0
 11
426.0
 21
-176.0
 31
0.0
  0
LINE
 62
7
  8
0
 10
423.0
 20
-161.0
 30
0.0
 11
427.0
 21
-169.0
 31
0.0
  0
LINE
 62
7
  8
0
 10
422.0
 20
-153.0
 30
0.0
 11
423.0
 21
-161.0
 31
0.0
  0
LINE
 62
7
  8
0
 10
420.0
 20
-146.0
 30
0.0
 11
422.0
 21
-153.0
 31
0.0
  0
LINE
 62
7
  8
0
 10
420.0
 20
-139.0
 30
0.0
 11
420.0
 21
-146.0
 31
0.0
  0
LINE
 62
7
  8
0
 10
426.0
 20
-134.0
 30
0.0
 11
420.0
 21
-139.0
 31
0.0
  0
LINE
 62
7
  8
0
 10
422.0
 20
-126.0
 30
0.0
 11
426.0
 21
-134.0
 31
0.0
  0
LINE
 62
7
  8
0
 10
422.0
 20
-119.0
 30
0.0
 11
422.0
 21
-126.0
 31
0.0
  0
LINE
 62
7
  8
0
 10
415.0
 20
-111.0
 30
0.0
 11
422.0
 21
-119.0
 31
0.0
  0
LINE
 62
7
  8
0
 10
416.0
 20
-105.0
 30
0.0
 11
415.0
 21
-111.0
 31
0.0
  0
LINE
 62
7
  8
0
 10
414.0
 20
-98.0
 30
0.0
 11
416.0
 21
-105.0
 31
0.0
  0
LINE
 62
7
  8
0
 10
417.0
 20
-92.0
 30
0.0
 11
414.0
 21
-98.0
 31
0.0
  0
LINE
 62
7
  8
0
 10
416.0
 20
-86.0
 30
0.0
 11
417.0
 21
-92.0
 31
0.0
  0
LINE
 62
7
  8
0
 10
417.0
 20
-79.0
 30
0.0
 11
416.0
 21
-86.0
 31
0.0
  0
LINE
 62
7
  8
0
 10
419.0
 20
-73.0
 30
0.0
 11
417.0
 21
-79.0
 31
0.0
  0
LINE
 62
7
  8
0
 10
418.0
 20
-67.0
 30
0.0
 11
419.0
 21
-73.0
 31
0.0
  0
LINE
 62
7
  8
0
 10
415.0
 20
-60.0
 30
0.0
 11
418.0
 21
-67.0
 31
0.0
  0
LINE
 62
7
  8
0
 10
416.0
 20
-54.0
 30
0.0
 11
415.0
 21
-60.0
 31
0.0
  0
LINE
 62
7
  8
0
 10
416.0
 20
-48.0
 30
0.0
 11
416.0
 21
-54.0
 31
0.0
  0
LINE
 62
7
  8
0
 10
417.0
 20
-42.0
 30
0.0
 11
416.0
 21
-48.0
 31
0.0
  0
LINE
 62
7
  8
0
 10
414.0
 20
-36.0
 30
0.0
 11
417.0
 21
-42.0
 31
0.0
  0
LINE
 62
7
  8
0
 10
414.0
 20
-30.0
 30
0.0
 11
414.0
 21
-36.0
 31
0.0
  0
LINE
 62
7
  8
0
 10
410.0
 20
-23.0
 30
0.0
 11
414.0
 21
-30.0
 31
0.0
  0
LINE
 62
7
  8
0
 10
410.0
 20
-17.0
 30
0.0
 11
410.0
 21
-23.0
 31
0.0
  0
LINE
 62
7
  8
0
 10
409.0
 20
-11.0
 30
0.0
 11
410.0
 21
-17.0
 31
0.0
  0
LINE
 62
7
  8
0
 10
410.0
 20
-5.0
 30
0.0
 11
409.0
 21
-11.0
 31
0.0
  0
LINE
 62
7
  8
0
 10
405.0
 20
0.0
 30
0.0
 11
410.0
 21
-5.0
 31
0.0
  0
LINE
 62
7
  8
0
 10
406.0
 20
5.0
 30
0.0
 11
405.0
 21
0.0
 31
0.0
  0
LINE
 62
7
  8
0
 10
405.0
 20
11.0
 30
0.0
 11
406.0
 21
5.0
 31
0.0
  0
LINE
 62
7
  8
0
 10
405.0
 20
17.0
 30
0.0
 11
405.0
 21
11.0
 31
0.0
  0
LINE
 62
7
  8
0
 10
404.0
 20
23.0
 30
0.0
 11
405.0
 21
17.0
 31
0.0
  0
LINE
 62
7
  8
0
 10
404.0
 20
29.0
 30
0.0
 11
404.0
 21
23.0
 31
0.0
  0
LINE
 62
7
  8
0
 10
405.0
 20
35.0
 30
0.0
 11
404.0
 21
29.0
 31
0.0
  0
LINE
 62
7
  8
0
 10
403.0
 20
41.0
 30
0.0
 11
405.0
 21
35.0
 31
0.0
  0
LINE
 62
7
  8
0
 10
401.0
 20
46.0
 30
0.0
 11
403.0
 21
41.0
 31
0.0
  0
LINE
 62
7
  8
0
 10
403.0
 20
53.0
 30
0.0
 11
401.0
 21
46.0
 31
0.0
  0
LINE
 62
7
  8
0
 10
398.0
 20
58.0
 30
0.0
 11
403.0
 21
53.0
 31
0.0
  0
LINE
 62
7
  8
0
 10
401.0
 20
64.0
 30
0.0
 11
398.0
 21
58.0
 31
0.0
  0
LINE
 62
7
  8
0
 10
400.0
 20
70.0
 30
0.0
 11
401.0
 21
64.0
 31
0.0
  0
LINE
 62
7
  8
0
 10
399.0
 20
76.0
 30
0.0
 11
400.0
 21
70.0
 31
0.0
  0
LINE
 62
7
  8
0
 10
397.0
 20
81.0
 30
0.0
 11
399.0
 21
76.0
 31
0.0
  0
LINE
 62
7
  8
0
 10
396.0
 20
87.0
 30
0.0
 11
397.0
 21
81.0
 31
0.0
  0
LINE
 62
7
  8
0
 10
400.0
 20
94.0
 30
0.0
 11
396.0
 21
87.0
 31
0.0
  0
LINE
 62
7
  8
0
 10
397.0
 20
100.0
 30
0.0
 11
400.0
 21
94.0
 31
0.0
  0
LINE
 62
7
  8
0
 10
395.0
 20
106.0
 30
0.0
 11
397.0
 21
100.0
 31
0.0
  0
LINE
 62
7
  8
0
 10
399.0
 20
113.0
 30
0.0
 11
395.0
 21
106.0
 31
0.0
  0
LINE
 62
7
  8
0
 10
397.0
 20
119.0
 30
0.0
 11
399.0
 21
113.0
 31
0.0
  0
LINE
 62
7
  8
0
 10
395.0
 20
124.0
 30
0.0
 11
397.0
 21
119.0
 31
0.0
  0
LINE
 62
7
  8
0
 10
399.0
 20
132.0
 30
0.0
 11
395.0
 21
124.0
 31
0.0
  0
LINE
 62
7
  8
0
 10
398.0
 20
138.0
 30
0.0
 11
399.0
 21
132.0
 31
0.0
  0
LINE
 62
7
  8
0
 10
395.0
 20
143.0
 30
0.0
 11
398.0
 21
138.0
 31
0.0
  0
LINE
 62
7
  8
0
 10
392.0
 20
149.0
 30
0.0
 11
395.0
 21
143.0
 31
0.0
  0
LINE
 62
7
  8
0
 10
393.0
 20
156.0
 30
0.0
 11
392.0
 21
149.0
 31
0.0
  0
LINE
 62
7
  8
0
 10
392.0
 20
162.0
 30
0.0
 11
393.0
 21
156.0
 31
0.0
  0
LINE
 62
7
  8
0
 10
390.0
 20
168.0
 30
0.0
 11
392.0
 21
162.0
 31
0.0
  0
LINE
 62
7
  8
0
 10
388.0
 20
174.0
 30
0.0
 11
390.0
 21
168.0
 31
0.0
  0
LINE
 62
7
  8
0
 10
390.0
 20
181.0
 30
0.0
 11
388.0
 21
174.0
 31
0.0
  0
LINE
 62
7
  8
0
 10
387.0
 20
187.0
 30
0.0
 11
390.0
 21
181.0
 31
0.0
  0
LINE
 62
7
  8
0
 10
390.0
 20
195.0
 30
0.0
 11
387.0
 21
187.0
 31
0.0
  0
LINE
 62
7
  8
0
 10
385.0
 20
200.0
 30
0.0
 11
390.0
 21
195.0
 31
0.0
  0
LINE
 62
7
  8
0
 10
383.0
 20
206.0
 30
0.0
 11
385.0
 21
200.0
 31
0.0
  0
LINE
 62
7
  8
0
 10
385.0
 20
215.0
 30
0.0
 11
383.0
 21
206.0
 31
0.0
  0
LINE
 62
7
  8
0
 10
383.0
 20
221.0
 30
0.0
 11
385.0
 21
215.0
 31
0.0
  0
LINE
 62
7
  8
0
 10
383.0
 20
228.0
 30
0.0
 11
383.0
 21
221.0
 31
0.0
  0
LINE
 62
7
  8
0
 10
380.0
 20
234.0
 30
0.0
 11
383.0
 21
228.0
 31
0.0
  0
LINE
 62
7
  8
0
 10
374.0
 20
238.0
 30
0.0
 11
380.0
 21
234.0
 31
0.0
  0
LINE
 62
7
  8
0
 10
379.0
 20
249.0
 30
0.0
 11
374.0
 21
238.0
 31
0.0
  0
LINE
 62
7
  8
0
 10
377.0
 20
256.0
 30
0.0
 11
379.0
 21
249.0
 31
0.0
  0
LINE
 62
7
  8
0
 10
371.0
 20
260.0
 30
0.0
 11
377.0
 21
256.0
 31
0.0
  0
LINE
 62
7
  8
0
 10
373.0
 20
269.0
 30
0.0
 11
371.0
 21
260.0
 31
0.0
  0
LINE
 62
7
  8
0
 10
374.0
 20
279.0
 30
0.0
 11
373.0
 21
269.0
 31
0.0
  0
LINE
 62
7
  8
0
 10
366.0
 20
281.0
 30
0.0
 11
374.0
 21
279.0
 31
0.0
  0
LINE
 62
7
  8
0
 10
373.0
 20
295.0
 30
0.0
 11
366.0
 21
281.0
 31
0.0
  0
LINE
 62
7
  8
0
 10
366.0
 20
298.0
 30
0.0
 11
373.0
 21
295.0
 31
0.0
  0
LINE
 62
7
  8
0
 10
364.0
 20
306.0
 30
0.0
 11
366.0
 21
298.0
 31
0.0
  0
LINE
 62
7
  8
0
 10
365.0
 20
316.0
 30
0.0
 11
364.0
 21
306.0
 31
0.0
  0
LINE
 62
7
  8
0
 10
362.0
 20
323.0
 30
0.0
 11
365.0
 21
316.0
 31
0.0
  0
LINE
 62
7
  8
0
 10
368.0
 20
337.0
 30
0.0
 11
362.0
 21
323.0
 31
0.0
  0
LINE
 62
7
  8
0
 10
364.0
 20
343.0
 30
0.0
 11
368.0
 21
337.0
 31
0.0
  0
LINE
 62
7
  8
0
 10
364.0
 20
354.0
 30
0.0
 11
364.0
 21
343.0
 31
0.0
  0
LINE
 62
7
  8
0
 10
359.0
 20
359.0
 30
0.0
 11
364.0
 21
354.0
 31
0.0
  0
LINE
 62
7
  8
0
 10
354.0
 20
364.0
 30
0.0
 11
359.0
 21
359.0
 31
0.0
  0
LINE
 62
7
  8
0
 10
338.0
 20
358.0
 30
0.0
 11
354.0
 21
364.0
 31
0.0
  0
LINE
 62
7
  8
0
 10
323.0
 20
352.0
 30
0.0
 11
338.0
 21
358.0
 31
0.0
  0
LINE
 62
7
  8
0
 10
310.0
 20
348.0
 30
0.0
 11
323.0
 21
352.0
 31
0.0
  0
LINE
 62
7
  8
0
 10
300.0
 20
347.0
 30
0.0
 11
310.0
 21
348.0
 31
0.0
  0
LINE
 62
7
  8
0
 10
295.0
 20
352.0
 30
0.0
 11
300.0
 21
347.0
 31
0.0
  0
LINE
 62
7
  8
0
 10
290.0
 20
356.0
 30
0.0
 11
295.0
 21
352.0
 31
0.0
  0
LINE
 62
7
  8
0
 10
278.0
 20
351.0
 30
0.0
 11
290.0
 21
356.0
 31
0.0
  0
LINE
 62
7
  8
0
 10
274.0
 20
358.0
 30
0.0
 11
278.0
 21
351.0
 31
0.0
  0
LINE
 62
7
  8
0
 10
266.0
 20
358.0
 30
0.0
 11
274.0
 21
358.0
 31
0.0
  0
LINE
 62
7
  8
0
 10
255.0
 20
354.0
 30
0.0
 11
266.0
 21
358.0
 31
0.0
  0
LINE
 62
7
  8
0
 10
250.0
 20
357.0
 30
0.0
 11
255.0
 21
354.0
 31
0.0
  0
LINE
 62
7
  8
0
 10
241.0
 20
356.0
 30
0.0
 11
250.0
 21
357.0
 31
0.0
  0
LINE
 62
7
  8
0
 10
233.0
 20
355.0
 30
0.0
 11
241.0
 21
356.0
 31
0.0
  0
LINE
 62
7
  8
0
 10
226.0
 20
355.0
 30
0.0
 11
233.0
 21
355.0
 31
0.0
  0
LINE
 62
7
  8
0
 10
217.0
 20
352.0
 30
0.0
 11
226.0
 21
355.0
 31
0.0
  0
LINE
 62
7
  8
0
 10
208.0
 20
348.0
 30
0.0
 11
217.0
 21
352.0
 31
0.0
  0
LINE
 62
7
  8
0
 10
202.0
 20
351.0
 30
0.0
 11
208.0
 21
348.0
 31
0.0
  0
LINE
 62
7
  8
0
 10
196.0
 20
351.0
 30
0.0
 11
202.0
 21
351.0
 31
0.0
  0
LINE
 62
7
  8
0
 10
188.0
 20
349.0
 30
0.0
 11
196.0
 21
351.0
 31
0.0
  0
LINE
 62
7
  8
0
 10
182.0
 20
350.0
 30
0.0
 11
188.0
 21
349.0
 31
0.0
  0
LINE
 62
7
  8
0
 10
174.0
 20
346.0
 30
0.0
 11
182.0
 21
350.0
 31
0.0
  0
LINE
 62
7
  8
0
 10
167.0
 20
346.0
 30
0.0
 11
174.0
 21
346.0
 31
0.0
  0
LINE
 62
7
  8
0
 10
160.0
 20
344.0
 30
0.0
 11
167.0
 21
346.0
 31
0.0
  0
LINE
 62
7
  8
0
 10
155.0
 20
347.0
 30
0.0
 11
160.0
 21
344.0
 31
0.0
  0
LINE
 62
7
  8
0
 10
147.0
 20
341.0
 30
0.0
 11
155.0
 21
347.0
 31
0.0
  0
LINE
 62
7
  8
0
 10
140.0
 20
339.0
 30
0.0
 11
147.0
 21
341.0
 31
0.0
  0
LINE
 62
7
  8
0
 10
134.0
 20
338.0
 30
0.0
 11
140.0
 21
339.0
 31
0.0
  0
LINE
 62
7
  8
0
 10
129.0
 20
340.0
 30
0.0
 11
134.0
 21
338.0
 31
0.0
  0
LINE
 62
7
  8
0
 10
123.0
 20
338.0
 30
0.0
 11
129.0
 21
340.0
 31
0.0
  0
LINE
 62
7
  8
0
 10
117.0
 20
336.0
 30
0.0
 11
123.0
 21
338.0
 31
0.0
  0
LINE
 62
7
  8
0
 10
109.0
 20
331.0
 30
0.0
 11
117.0
 21
336.0
 31
0.0
  0
LINE
 62
7
  8
0
 10
104.0
 20
332.0
 30
0.0
 11
109.0
 21
331.0
 31
0.0
  0
LINE
 62
7
  8
0
 10
98.0
 20
328.0
 30
0.0
 11
104.0
 21
332.0
 31
0.0
  0
LINE
 62
7
  8
0
 10
92.0
 20
326.0
 30
0.0
 11
98.0
 21
328.0
 31
0.0
  0
LINE
 62
7
  8
0
 10
87.0
 20
324.0
 30
0.0
 11
92.0
 21
326.0
 31
0.0
  0
LINE
 62
7
  8
0
 10
81.0
 20
321.0
 30
0.0
 11
87.0
 21
324.0
 31
0.0
  0
LINE
 62
7
  8
0
 10
75.0
 20
318.0
 30
0.0
 11
81.0
 21
321.0
 31
0.0
  0
LINE
 62
7
  8
0
 10
70.0
 20
318.0
 30
0.0
 11
75.0
 21
318.0
 31
0.0
  0
LINE
 62
7
  8
0
 10
65.0
 20
314.0
 30
0.0
 11
70.0
 21
318.0
 31
0.0
  0
LINE
 62
7
  8
0
 10
59.0
 20
311.0
 30
0.0
 11
65.0
 21
314.0
 31
0.0
  0
LINE
 62
7
  8
0
 10
54.0
 20
307.0
 30
0.0
 11
59.0
 21
311.0
 31
0.0
  0
LINE
 62
7
  8
0
 10
49.0
 20
303.0
 30
0.0
 11
54.0
 21
307.0
 31
0.0
  0
LINE
 62
7
  8
0
 10
44.0
 20
303.0
 30
0.0
 11
49.0
 21
303.0
 31
0.0
  0
LINE
 62
7
  8
0
 10
39.0
 20
302.0
 30
0.0
 11
44.0
 21
303.0
 31
0.0
  0
LINE
 62
7
  8
0
 10
35.0
 20
300.0
 30
0.0
 11
39.0
 21
302.0
 31
0.0
  0
LINE
 62
7
  8
0
 10
30.0
 20
302.0
 30
0.0
 11
35.0
 21
300.0
 31
0.0
  0
LINE
 62
7
  8
0
 10
26.0
 20
302.0
 30
0.0
 11
30.0
 21
302.0
 31
0.0
  0
LINE
 62
7
  8
0
 10
21.0
 20
298.0
 30
0.0
 11
26.0
 21
302.0
 31
0.0
  0
LINE
 62
7
  8
0
 10
17.0
 20
295.0
 30
0.0
 11
21.0
 21
298.0
 31
0.0
  0
LINE
 62
7
  8
0
 10
12.0
 20
293.0
 30
0.0
 11
17.0
 21
295.0
 31
0.0
  0
LINE
 62
7
  8
0
 10
8.0
 20
295.0
 30
0.0
 11
12.0
 21
293.0
 31
0.0
  0
LINE
 62
7
  8
0
 10
4.0
 20
289.0
 30
0.0
 11
8.0
 21
295.0
 31
0.0
  0
LINE
 62
7
  8
0
 10
4.0
 20
289.0
 30
0.0
 11
0.0
 21
289.0
 31
0.0
  0
ENDSEC
  0
EOF
