  0
SECTION
  2
HEADER
  9
$ACADVER
  1
AC1009
  9
$EXTMIN
 10
0.0
 20
0.0
 30
0.0
  9
$EXTMAX
 10
100.0
 20
100.0
 30
0.0
  9
$INSBASE
 10
0.0
 20
0.0
 30
0.0
  0
ENDSEC
  0
SECTION
  2
TABLES
  0
TABLE
  2
LTYPE
 70
19
  0
LTYPE
  2
PHANTOM
 70
0
  3
Phantom ______  __  __  ______  __  __  ______
 72
65
 73
6
 40
2.5
 49
1.25
 49
-0.25
 49
0.25
 49
-0.25
 49
0.25
 49
-0.25
  0
LTYPE
  2
DOT2
 70
0
  3
Dot (.5) . . . . . . . . . . . . . . . . . . . 
 72
65
 73
2
 40
0.1
 49
0.0
 49
-0.1
  0
LTYPE
  2
DIVIDE
 70
0
  3
Divide __ . . __ . . __ . . __ . . __ . . __
 72
65
 73
6
 40
1.6
 49
1.0
 49
-0.2
 49
0.0
 49
-0.2
 49
0.0
 49
-0.2
  0
LTYPE
  2
DIVIDEX2
 70
0
  3
Divide (2x) ____  . .  ____  . .  ____  . .  ____
 72
65
 73
6
 40
2.6
 49
2.0
 49
-0.2
 49
0.0
 49
-0.2
 49
0.0
 49
-0.2
  0
LTYPE
  2
CENTER
 70
0
  3
Center ____ _ ____ _ ____ _ ____ _ ____ _ ____
 72
65
 73
4
 40
2.0
 49
1.25
 49
-0.25
 49
0.25
 49
-0.25
  0
LTYPE
  2
DASHDOT
 70
0
  3
Dash dot __ . __ . __ . __ . __ . __ . __ . __
 72
65
 73
4
 40
1.4
 49
1.0
 49
-0.2
 49
0.0
 49
-0.2
  0
LTYPE
  2
CENTERX2
 70
0
  3
Center (2x) ________  __  ________  __  ________
 72
65
 73
4
 40
3.5
 49
2.5
 49
-0.25
 49
0.5
 49
-0.25
  0
LTYPE
  2
PHANTOMX2
 70
0
  3
Phantom (2x)____________    ____    ____    ____________
 72
65
 73
6
 40
4.25
 49
2.5
 49
-0.25
 49
0.5
 49
-0.25
 49
0.5
 49
-0.25
  0
LTYPE
  2
CONTINUOUS
 70
0
  3
Solid
 72
65
 73
0
 40
0.0
  0
LTYPE
  2
PHANTOM2
 70
0
  3
Phantom (.5x) ___ _ _ ___ _ _ ___ _ _ ___ _ _ ___
 72
65
 73
6
 40
1.25
 49
0.625
 49
-0.125
 49
0.125
 49
-0.125
 49
0.125
 49
-0.125
  0
LTYPE
  2
DASHED
 70
0
  3
Dashed __ __ __ __ __ __ __ __ __ __ __ __ __ _
 72
65
 73
2
 40
0.6
 49
0.5
 49
-0.1
  0
LTYPE
  2
DASHED2
 70
0
  3
Dashed (.5x) _ _ _ _ _ _ _ _ _ _ _ _ _ _
 72
65
 73
2
 40
0.3
 49
0.25
 49
-0.05
  0
LTYPE
  2
DASHDOT2
 70
0
  3
Dash dot (.5x) _ . _ . _ . _ . _ . _ . _ . _
 72
65
 73
4
 40
0.7
 49
0.5
 49
-0.1
 49
0.0
 49
-0.1
  0
LTYPE
  2
DOTX2
 70
0
  3
Dot (2x) .    .    .    .    .    .    .    . 
 72
65
 73
2
 40
0.4
 49
0.0
 49
-0.4
  0
LTYPE
  2
DIVIDE2
 70
0
  3
Divide(.5x) _ . _ . _ . _ . _ . _ . _ . _
 72
65
 73
6
 40
0.8
 49
0.5
 49
-0.1
 49
0.0
 49
-0.1
 49
0.0
 49
-0.1
  0
LTYPE
  2
CENTER2
 70
0
  3
Center (.5x) ____ _ ____ _ ____ _ ____ _ ____
 72
65
 73
4
 40
1.0
 49
0.625
 49
-0.125
 49
0.125
 49
-0.125
  0
LTYPE
  2
DASHDOTX2
 70
0
  3
Dash dot (2x) ____  .  ____  .  ____  .  ____
 72
65
 73
4
 40
2.4
 49
2.0
 49
-0.2
 49
0.0
 49
-0.2
  0
LTYPE
  2
DOT
 70
0
  3
Dot .  .  .  .  .  .  .  .  .  .  .  .  .  .  .  .
 72
65
 73
2
 40
0.2
 49
0.0
 49
-0.2
  0
LTYPE
  2
DASHEDX2
 70
0
  3
Dashed (2x) ____  ____  ____  ____  ____  ____
 72
65
 73
2
 40
1.2
 49
1.0
 49
-0.2
  0
ENDTAB
  0
TABLE
  2
LAYER
 70
5
  0
LAYER
  2
VIEWPORTS
 70
0
 62
7
  6
CONTINUOUS
  0
LAYER
  2
TABLEGRID
 70
0
 62
1
  6
CONTINUOUS
  0
LAYER
  2
TABLECONTENT
 70
0
 62
1
  6
CONTINUOUS
  0
LAYER
  2
DIMENSIONS
 70
0
 62
1
  6
CONTINUOUS
  0
LAYER
  2
TABLEBACKGROUND
 70
0
 62
1
  6
CONTINUOUS
  0
ENDTAB
  0
TABLE
  2
STYLE
 70
12
  0
STYLE
  2
TIMES
 70
0
 40
0.0
 41
1.0
 42
1.0
 50
0.0
 71
0
  3
times.ttf
  4

  0
STYLE
  2
ARIAL
 70
0
 40
0.0
 41
1.0
 42
1.0
 50
0.0
 71
0
  3
arial.ttf
  4

  0
STYLE
  2
TIMES_BOLD
 70
0
 40
0.0
 41
1.0
 42
1.0
 50
0.0
 71
0
  3
timesbd.ttf
  4

  0
STYLE
  2
ARIAL_BLACK
 70
0
 40
0.0
 41
1.0
 42
1.0
 50
0.0
 71
0
  3
ariblk.ttf
  4

  0
STYLE
  2
TIMES_ITALIC
 70
0
 40
0.0
 41
1.0
 42
1.0
 50
0.0
 71
0
  3
timesi.ttf
  4

  0
STYLE
  2
ISOCPEUR
 70
0
 40
0.0
 41
1.0
 42
1.0
 50
0.0
 71
0
  3
isocpeur.ttf
  4

  0
STYLE
  2
ARIAL_BOLD
 70
0
 40
0.0
 41
1.0
 42
1.0
 50
0.0
 71
0
  3
arialbd.ttf
  4

  0
STYLE
  2
ARIAL_ITALIC
 70
0
 40
0.0
 41
1.0
 42
1.0
 50
0.0
 71
0
  3
ariali.ttf
  4

  0
STYLE
  2
ARIAL_BOLD_ITALIC
 70
0
 40
0.0
 41
1.0
 42
1.0
 50
0.0
 71
0
  3
arialbi.ttf
  4

  0
STYLE
  2
TIMES_BOLD_ITALIC
 70
0
 40
0.0
 41
1.0
 42
1.0
 50
0.0
 71
0
  3
timesbi.ttf
  4

  0
STYLE
  2
ISOCPEUR_ITALIC
 70
0
 40
0.0
 41
1.0
 42
1.0
 50
0.0
 71
0
  3
isocpeui.ttf
  4

  0
STYLE
  2
STANDARD
 70
0
 40
0.0
 41
1.0
 42
1.0
 50
0.0
 71
0
  3
arial.ttf
  4

  0
ENDTAB
  0
TABLE
  2
VIEW
 70
0
  0
ENDTAB
  0
TABLE
  2
APPID
 70
1
  0
APPID
  2
DXFWRITE
 70
0
  0
ENDTAB
  0
TABLE
  2
VPORT
 70
0
  0
ENDTAB
  0
TABLE
  2
UCS
 70
0
  0
ENDTAB
  0
ENDSEC
  0
SECTION
  2
BLOCKS
  0
ENDSEC
  0
SECTION
  2
ENTITIES
  0
VIEWPORT
  8
VIEWPORTS
 67
1
 10
0.0
 20
0.0
 30
0.0
 40
1.0
 41
1.0
 68
1
 69
1
1001
ACAD
1000
MVIEW
1002
{
1070
16
1010
0.0
1020
0.0
1030
0.0
1010
0.0
1020
0.0
1030
0.0
1040
0.0
1040
1.0
1040
0.0
1040
0.0
1040
50.0
1040
0.0
1040
0.0
1070
0
1070
100
1070
1
1070
3
1070
0
1070
0
1070
0
1070
0
1040
0.0
1040
0.0
1040
0.0
1040
0.1
1040
0.1
1040
0.1
1040
0.1
1070
0
1002
{
1002
}
1002
}
  0
LINE
 62
7
  8
0
 10
-37.0
 20
2602.0
 30
0.0
 11
0.0
 21
2607.0
 31
0.0
  0
LINE
 62
7
  8
0
 10
-75.0
 20
2603.0
 30
0.0
 11
-37.0
 21
2602.0
 31
0.0
  0
LINE
 62
7
  8
0
 10
-115.0
 20
2634.0
 30
0.0
 11
-75.0
 21
2603.0
 31
0.0
  0
LINE
 62
7
  8
0
 10
-152.0
 20
2623.0
 30
0.0
 11
-115.0
 21
2634.0
 31
0.0
  0
LINE
 62
7
  8
0
 10
-191.0
 20
2625.0
 30
0.0
 11
-152.0
 21
2623.0
 31
0.0
  0
LINE
 62
7
  8
0
 10
-229.0
 20
2623.0
 30
0.0
 11
-191.0
 21
2625.0
 31
0.0
  0
LINE
 62
7
  8
0
 10
-269.0
 20
2639.0
 30
0.0
 11
-229.0
 21
2623.0
 31
0.0
  0
LINE
 62
7
  8
0
 10
-307.0
 20
2634.0
 30
0.0
 11
-269.0
 21
2639.0
 31
0.0
  0
LINE
 62
7
  8
0
 10
-346.0
 20
2630.0
 30
0.0
 11
-307.0
 21
2634.0
 31
0.0
  0
LINE
 62
7
  8
0
 10
-384.0
 20
2626.0
 30
0.0
 11
-346.0
 21
2630.0
 31
0.0
  0
LINE
 62
7
  8
0
 10
-422.0
 20
2620.0
 30
0.0
 11
-384.0
 21
2626.0
 31
0.0
  0
LINE
 62
7
  8
0
 10
-460.0
 20
2613.0
 30
0.0
 11
-422.0
 21
2620.0
 31
0.0
  0
LINE
 62
7
  8
0
 10
-498.0
 20
2606.0
 30
0.0
 11
-460.0
 21
2613.0
 31
0.0
  0
LINE
 62
7
  8
0
 10
-537.0
 20
2602.0
 30
0.0
 11
-498.0
 21
2606.0
 31
0.0
  0
LINE
 62
7
  8
0
 10
-573.0
 20
2587.0
 30
0.0
 11
-537.0
 21
2602.0
 31
0.0
  0
LINE
 62
7
  8
0
 10
-612.0
 20
2584.0
 30
0.0
 11
-573.0
 21
2587.0
 31
0.0
  0
LINE
 62
7
  8
0
 10
-650.0
 20
2576.0
 30
0.0
 11
-612.0
 21
2584.0
 31
0.0
  0
LINE
 62
7
  8
0
 10
-685.0
 20
2557.0
 30
0.0
 11
-650.0
 21
2576.0
 31
0.0
  0
LINE
 62
7
  8
0
 10
-723.0
 20
2551.0
 30
0.0
 11
-685.0
 21
2557.0
 31
0.0
  0
LINE
 62
7
  8
0
 10
-753.0
 20
2516.0
 30
0.0
 11
-723.0
 21
2551.0
 31
0.0
  0
LINE
 62
7
  8
0
 10
-790.0
 20
2507.0
 30
0.0
 11
-753.0
 21
2516.0
 31
0.0
  0
LINE
 62
7
  8
0
 10
-826.0
 20
2494.0
 30
0.0
 11
-790.0
 21
2507.0
 31
0.0
  0
LINE
 62
7
  8
0
 10
-864.0
 20
2486.0
 30
0.0
 11
-826.0
 21
2494.0
 31
0.0
  0
LINE
 62
7
  8
0
 10
-890.0
 20
2446.0
 30
0.0
 11
-864.0
 21
2486.0
 31
0.0
  0
LINE
 62
7
  8
0
 10
-926.0
 20
2433.0
 30
0.0
 11
-890.0
 21
2446.0
 31
0.0
  0
LINE
 62
7
  8
0
 10
-953.0
 20
2399.0
 30
0.0
 11
-926.0
 21
2433.0
 31
0.0
  0
LINE
 62
7
  8
0
 10
-985.0
 20
2378.0
 30
0.0
 11
-953.0
 21
2399.0
 31
0.0
  0
LINE
 62
7
  8
0
 10
-1012.0
 20
2347.0
 30
0.0
 11
-985.0
 21
2378.0
 31
0.0
  0
LINE
 62
7
  8
0
 10
-1046.0
 20
2331.0
 30
0.0
 11
-1012.0
 21
2347.0
 31
0.0
  0
LINE
 62
7
  8
0
 10
-1069.0
 20
2293.0
 30
0.0
 11
-1046.0
 21
2331.0
 31
0.0
  0
LINE
 62
7
  8
0
 10
-1103.0
 20
2279.0
 30
0.0
 11
-1069.0
 21
2293.0
 31
0.0
  0
LINE
 62
7
  8
0
 10
-1135.0
 20
2259.0
 30
0.0
 11
-1103.0
 21
2279.0
 31
0.0
  0
LINE
 62
7
  8
0
 10
-1168.0
 20
2245.0
 30
0.0
 11
-1135.0
 21
2259.0
 31
0.0
  0
LINE
 62
7
  8
0
 10
-1188.0
 20
2204.0
 30
0.0
 11
-1168.0
 21
2245.0
 31
0.0
  0
LINE
 62
7
  8
0
 10
-1218.0
 20
2183.0
 30
0.0
 11
-1188.0
 21
2204.0
 31
0.0
  0
LINE
 62
7
  8
0
 10
-1241.0
 20
2150.0
 30
0.0
 11
-1218.0
 21
2183.0
 31
0.0
  0
LINE
 62
7
  8
0
 10
-1269.0
 20
2126.0
 30
0.0
 11
-1241.0
 21
2150.0
 31
0.0
  0
LINE
 62
7
  8
0
 10
-1289.0
 20
2090.0
 30
0.0
 11
-1269.0
 21
2126.0
 31
0.0
  0
LINE
 62
7
  8
0
 10
-1316.0
 20
2067.0
 30
0.0
 11
-1289.0
 21
2090.0
 31
0.0
  0
LINE
 62
7
  8
0
 10
-1332.0
 20
2025.0
 30
0.0
 11
-1316.0
 21
2067.0
 31
0.0
  0
LINE
 62
7
  8
0
 10
-1358.0
 20
2001.0
 30
0.0
 11
-1332.0
 21
2025.0
 31
0.0
  0
LINE
 62
7
  8
0
 10
-1373.0
 20
1961.0
 30
0.0
 11
-1358.0
 21
2001.0
 31
0.0
  0
LINE
 62
7
  8
0
 10
-1387.0
 20
1921.0
 30
0.0
 11
-1373.0
 21
1961.0
 31
0.0
  0
LINE
 62
7
  8
0
 10
-1400.0
 20
1881.0
 30
0.0
 11
-1387.0
 21
1921.0
 31
0.0
  0
LINE
 62
7
  8
0
 10
-1426.0
 20
1859.0
 30
0.0
 11
-1400.0
 21
1881.0
 31
0.0
  0
LINE
 62
7
  8
0
 10
-1435.0
 20
1815.0
 30
0.0
 11
-1426.0
 21
1859.0
 31
0.0
  0
LINE
 62
7
  8
0
 10
-1450.0
 20
1780.0
 30
0.0
 11
-1435.0
 21
1815.0
 31
0.0
  0
LINE
 62
7
  8
0
 10
-1455.0
 20
1734.0
 30
0.0
 11
-1450.0
 21
1780.0
 31
0.0
  0
LINE
 62
7
  8
0
 10
-1468.0
 20
1699.0
 30
0.0
 11
-1455.0
 21
1734.0
 31
0.0
  0
LINE
 62
7
  8
0
 10
-1475.0
 20
1657.0
 30
0.0
 11
-1468.0
 21
1699.0
 31
0.0
  0
LINE
 62
7
  8
0
 10
-1481.0
 20
1616.0
 30
0.0
 11
-1475.0
 21
1657.0
 31
0.0
  0
LINE
 62
7
  8
0
 10
-1472.0
 20
1560.0
 30
0.0
 11
-1481.0
 21
1616.0
 31
0.0
  0
LINE
 62
7
  8
0
 10
-1493.0
 20
1537.0
 30
0.0
 11
-1472.0
 21
1560.0
 31
0.0
  0
LINE
 62
7
  8
0
 10
-1499.0
 20
1499.0
 30
0.0
 11
-1493.0
 21
1537.0
 31
0.0
  0
LINE
 62
7
  8
0
 10
-1504.0
 20
1461.0
 30
0.0
 11
-1499.0
 21
1499.0
 31
0.0
  0
LINE
 62
7
  8
0
 10
-1502.0
 20
1417.0
 30
0.0
 11
-1504.0
 21
1461.0
 31
0.0
  0
LINE
 62
7
  8
0
 10
-1529.0
 20
1401.0
 30
0.0
 11
-1502.0
 21
1417.0
 31
0.0
  0
LINE
 62
7
  8
0
 10
-1505.0
 20
1339.0
 30
0.0
 11
-1529.0
 21
1401.0
 31
0.0
  0
LINE
 62
7
  8
0
 10
-1526.0
 20
1318.0
 30
0.0
 11
-1505.0
 21
1339.0
 31
0.0
  0
LINE
 62
7
  8
0
 10
-1512.0
 20
1269.0
 30
0.0
 11
-1526.0
 21
1318.0
 31
0.0
  0
LINE
 62
7
  8
0
 10
-1501.0
 20
1222.0
 30
0.0
 11
-1512.0
 21
1269.0
 31
0.0
  0
LINE
 62
7
  8
0
 10
-1511.0
 20
1195.0
 30
0.0
 11
-1501.0
 21
1222.0
 31
0.0
  0
LINE
 62
7
  8
0
 10
-1521.0
 20
1167.0
 30
0.0
 11
-1511.0
 21
1195.0
 31
0.0
  0
LINE
 62
7
  8
0
 10
-1470.0
 20
1094.0
 30
0.0
 11
-1521.0
 21
1167.0
 31
0.0
  0
LINE
 62
7
  8
0
 10
-1486.0
 20
1073.0
 30
0.0
 11
-1470.0
 21
1094.0
 31
0.0
  0
LINE
 62
7
  8
0
 10
-1498.0
 20
1049.0
 30
0.0
 11
-1486.0
 21
1073.0
 31
0.0
  0
LINE
 62
7
  8
0
 10
-1476.0
 20
1001.0
 30
0.0
 11
-1498.0
 21
1049.0
 31
0.0
  0
LINE
 62
7
  8
0
 10
-1445.0
 20
950.0
 30
0.0
 11
-1476.0
 21
1001.0
 31
0.0
  0
LINE
 62
7
  8
0
 10
-1451.0
 20
924.0
 30
0.0
 11
-1445.0
 21
950.0
 31
0.0
  0
LINE
 62
7
  8
0
 10
-1434.0
 20
884.0
 30
0.0
 11
-1451.0
 21
924.0
 31
0.0
  0
LINE
 62
7
  8
0
 10
-1449.0
 20
865.0
 30
0.0
 11
-1434.0
 21
884.0
 31
0.0
  0
LINE
 62
7
  8
0
 10
-1409.0
 20
813.0
 30
0.0
 11
-1449.0
 21
865.0
 31
0.0
  0
LINE
 62
7
  8
0
 10
-1396.0
 20
779.0
 30
0.0
 11
-1409.0
 21
813.0
 31
0.0
  0
LINE
 62
7
  8
0
 10
-1336.0
 20
720.0
 30
0.0
 11
-1396.0
 21
779.0
 31
0.0
  0
LINE
 62
7
  8
0
 10
-1360.0
 20
708.0
 30
0.0
 11
-1336.0
 21
720.0
 31
0.0
  0
LINE
 62
7
  8
0
 10
-1334.0
 20
670.0
 30
0.0
 11
-1360.0
 21
708.0
 31
0.0
  0
LINE
 62
7
  8
0
 10
-1318.0
 20
638.0
 30
0.0
 11
-1334.0
 21
670.0
 31
0.0
  0
LINE
 62
7
  8
0
 10
-1278.0
 20
596.0
 30
0.0
 11
-1318.0
 21
638.0
 31
0.0
  0
LINE
 62
7
  8
0
 10
-1265.0
 20
567.0
 30
0.0
 11
-1278.0
 21
596.0
 31
0.0
  0
LINE
 62
7
  8
0
 10
-1248.0
 20
538.0
 30
0.0
 11
-1265.0
 21
567.0
 31
0.0
  0
LINE
 62
7
  8
0
 10
-1281.0
 20
530.0
 30
0.0
 11
-1248.0
 21
538.0
 31
0.0
  0
LINE
 62
7
  8
0
 10
-1312.0
 20
521.0
 30
0.0
 11
-1281.0
 21
530.0
 31
0.0
  0
LINE
 62
7
  8
0
 10
-1321.0
 20
502.0
 30
0.0
 11
-1312.0
 21
521.0
 31
0.0
  0
LINE
 62
7
  8
0
 10
-1323.0
 20
481.0
 30
0.0
 11
-1321.0
 21
502.0
 31
0.0
  0
LINE
 62
7
  8
0
 10
-1361.0
 20
473.0
 30
0.0
 11
-1323.0
 21
481.0
 31
0.0
  0
LINE
 62
7
  8
0
 10
-1413.0
 20
468.0
 30
0.0
 11
-1361.0
 21
473.0
 31
0.0
  0
LINE
 62
7
  8
0
 10
-1394.0
 20
439.0
 30
0.0
 11
-1413.0
 21
468.0
 31
0.0
  0
LINE
 62
7
  8
0
 10
-1430.0
 20
428.0
 30
0.0
 11
-1394.0
 21
439.0
 31
0.0
  0
LINE
 62
7
  8
0
 10
-1428.0
 20
405.0
 30
0.0
 11
-1430.0
 21
428.0
 31
0.0
  0
LINE
 62
7
  8
0
 10
-1464.0
 20
392.0
 30
0.0
 11
-1428.0
 21
405.0
 31
0.0
  0
LINE
 62
7
  8
0
 10
-1471.0
 20
371.0
 30
0.0
 11
-1464.0
 21
392.0
 31
0.0
  0
LINE
 62
7
  8
0
 10
-1486.0
 20
352.0
 30
0.0
 11
-1471.0
 21
371.0
 31
0.0
  0
LINE
 62
7
  8
0
 10
-1507.0
 20
334.0
 30
0.0
 11
-1486.0
 21
352.0
 31
0.0
  0
LINE
 62
7
  8
0
 10
-1516.0
 20
313.0
 30
0.0
 11
-1507.0
 21
334.0
 31
0.0
  0
LINE
 62
7
  8
0
 10
-1541.0
 20
294.0
 30
0.0
 11
-1516.0
 21
313.0
 31
0.0
  0
LINE
 62
7
  8
0
 10
-1552.0
 20
273.0
 30
0.0
 11
-1541.0
 21
294.0
 31
0.0
  0
LINE
 62
7
  8
0
 10
-1546.0
 20
249.0
 30
0.0
 11
-1552.0
 21
273.0
 31
0.0
  0
LINE
 62
7
  8
0
 10
-1563.0
 20
228.0
 30
0.0
 11
-1546.0
 21
249.0
 31
0.0
  0
LINE
 62
7
  8
0
 10
-1578.0
 20
207.0
 30
0.0
 11
-1563.0
 21
228.0
 31
0.0
  0
LINE
 62
7
  8
0
 10
-1584.0
 20
185.0
 30
0.0
 11
-1578.0
 21
207.0
 31
0.0
  0
LINE
 62
7
  8
0
 10
-1584.0
 20
161.0
 30
0.0
 11
-1584.0
 21
185.0
 31
0.0
  0
LINE
 62
7
  8
0
 10
-1590.0
 20
139.0
 30
0.0
 11
-1584.0
 21
161.0
 31
0.0
  0
LINE
 62
7
  8
0
 10
-1620.0
 20
118.0
 30
0.0
 11
-1590.0
 21
139.0
 31
0.0
  0
LINE
 62
7
  8
0
 10
-1630.0
 20
94.0
 30
0.0
 11
-1620.0
 21
118.0
 31
0.0
  0
LINE
 62
7
  8
0
 10
-1605.0
 20
70.0
 30
0.0
 11
-1630.0
 21
94.0
 31
0.0
  0
LINE
 62
7
  8
0
 10
-1626.0
 20
47.0
 30
0.0
 11
-1605.0
 21
70.0
 31
0.0
  0
LINE
 62
7
  8
0
 10
-1631.0
 20
23.0
 30
0.0
 11
-1626.0
 21
47.0
 31
0.0
  0
LINE
 62
7
  8
0
 10
-1630.0
 20
0.0
 30
0.0
 11
-1631.0
 21
23.0
 31
0.0
  0
LINE
 62
7
  8
0
 10
-1627.0
 20
-23.0
 30
0.0
 11
-1630.0
 21
0.0
 31
0.0
  0
LINE
 62
7
  8
0
 10
-1648.0
 20
-47.0
 30
0.0
 11
-1627.0
 21
-23.0
 31
0.0
  0
LINE
 62
7
  8
0
 10
-1654.0
 20
-72.0
 30
0.0
 11
-1648.0
 21
-47.0
 31
0.0
  0
LINE
 62
7
  8
0
 10
-1649.0
 20
-96.0
 30
0.0
 11
-1654.0
 21
-72.0
 31
0.0
  0
LINE
 62
7
  8
0
 10
-1650.0
 20
-120.0
 30
0.0
 11
-1649.0
 21
-96.0
 31
0.0
  0
LINE
 62
7
  8
0
 10
-1653.0
 20
-144.0
 30
0.0
 11
-1650.0
 21
-120.0
 31
0.0
  0
LINE
 62
7
  8
0
 10
-1665.0
 20
-170.0
 30
0.0
 11
-1653.0
 21
-144.0
 31
0.0
  0
LINE
 62
7
  8
0
 10
-1666.0
 20
-194.0
 30
0.0
 11
-1665.0
 21
-170.0
 31
0.0
  0
LINE
 62
7
  8
0
 10
-1665.0
 20
-219.0
 30
0.0
 11
-1666.0
 21
-194.0
 31
0.0
  0
LINE
 62
7
  8
0
 10
-1664.0
 20
-243.0
 30
0.0
 11
-1665.0
 21
-219.0
 31
0.0
  0
LINE
 62
7
  8
0
 10
-1654.0
 20
-266.0
 30
0.0
 11
-1664.0
 21
-243.0
 31
0.0
  0
LINE
 62
7
  8
0
 10
-1652.0
 20
-291.0
 30
0.0
 11
-1654.0
 21
-266.0
 31
0.0
  0
LINE
 62
7
  8
0
 10
-1649.0
 20
-315.0
 30
0.0
 11
-1652.0
 21
-291.0
 31
0.0
  0
LINE
 62
7
  8
0
 10
-1644.0
 20
-339.0
 30
0.0
 11
-1649.0
 21
-315.0
 31
0.0
  0
LINE
 62
7
  8
0
 10
-1635.0
 20
-362.0
 30
0.0
 11
-1644.0
 21
-339.0
 31
0.0
  0
LINE
 62
7
  8
0
 10
-1634.0
 20
-387.0
 30
0.0
 11
-1635.0
 21
-362.0
 31
0.0
  0
LINE
 62
7
  8
0
 10
-1629.0
 20
-411.0
 30
0.0
 11
-1634.0
 21
-387.0
 31
0.0
  0
LINE
 62
7
  8
0
 10
-1597.0
 20
-428.0
 30
0.0
 11
-1629.0
 21
-411.0
 31
0.0
  0
LINE
 62
7
  8
0
 10
-1585.0
 20
-449.0
 30
0.0
 11
-1597.0
 21
-428.0
 31
0.0
  0
LINE
 62
7
  8
0
 10
-1586.0
 20
-474.0
 30
0.0
 11
-1585.0
 21
-449.0
 31
0.0
  0
LINE
 62
7
  8
0
 10
-1581.0
 20
-498.0
 30
0.0
 11
-1586.0
 21
-474.0
 31
0.0
  0
LINE
 62
7
  8
0
 10
-1556.0
 20
-515.0
 30
0.0
 11
-1581.0
 21
-498.0
 31
0.0
  0
LINE
 62
7
  8
0
 10
-1534.0
 20
-533.0
 30
0.0
 11
-1556.0
 21
-515.0
 31
0.0
  0
LINE
 62
7
  8
0
 10
-1530.0
 20
-557.0
 30
0.0
 11
-1534.0
 21
-533.0
 31
0.0
  0
LINE
 62
7
  8
0
 10
-1524.0
 20
-580.0
 30
0.0
 11
-1530.0
 21
-557.0
 31
0.0
  0
LINE
 62
7
  8
0
 10
-1502.0
 20
-597.0
 30
0.0
 11
-1524.0
 21
-580.0
 31
0.0
  0
LINE
 62
7
  8
0
 10
-1472.0
 20
-609.0
 30
0.0
 11
-1502.0
 21
-597.0
 31
0.0
  0
LINE
 62
7
  8
0
 10
-1463.0
 20
-631.0
 30
0.0
 11
-1472.0
 21
-609.0
 31
0.0
  0
LINE
 62
7
  8
0
 10
-1455.0
 20
-652.0
 30
0.0
 11
-1463.0
 21
-631.0
 31
0.0
  0
LINE
 62
7
  8
0
 10
-1448.0
 20
-675.0
 30
0.0
 11
-1455.0
 21
-652.0
 31
0.0
  0
LINE
 62
7
  8
0
 10
-1438.0
 20
-696.0
 30
0.0
 11
-1448.0
 21
-675.0
 31
0.0
  0
LINE
 62
7
  8
0
 10
-1424.0
 20
-715.0
 30
0.0
 11
-1438.0
 21
-696.0
 31
0.0
  0
LINE
 62
7
  8
0
 10
-1403.0
 20
-730.0
 30
0.0
 11
-1424.0
 21
-715.0
 31
0.0
  0
LINE
 62
7
  8
0
 10
-1381.0
 20
-744.0
 30
0.0
 11
-1403.0
 21
-730.0
 31
0.0
  0
LINE
 62
7
  8
0
 10
-1368.0
 20
-763.0
 30
0.0
 11
-1381.0
 21
-744.0
 31
0.0
  0
LINE
 62
7
  8
0
 10
-1356.0
 20
-782.0
 30
0.0
 11
-1368.0
 21
-763.0
 31
0.0
  0
LINE
 62
7
  8
0
 10
-1346.0
 20
-803.0
 30
0.0
 11
-1356.0
 21
-782.0
 31
0.0
  0
LINE
 62
7
  8
0
 10
-1313.0
 20
-810.0
 30
0.0
 11
-1346.0
 21
-803.0
 31
0.0
  0
LINE
 62
7
  8
0
 10
-1281.0
 20
-816.0
 30
0.0
 11
-1313.0
 21
-810.0
 31
0.0
  0
LINE
 62
7
  8
0
 10
-1285.0
 20
-845.0
 30
0.0
 11
-1281.0
 21
-816.0
 31
0.0
  0
LINE
 62
7
  8
0
 10
-1270.0
 20
-862.0
 30
0.0
 11
-1285.0
 21
-845.0
 31
0.0
  0
LINE
 62
7
  8
0
 10
-1218.0
 20
-852.0
 30
0.0
 11
-1270.0
 21
-862.0
 31
0.0
  0
LINE
 62
7
  8
0
 10
-1227.0
 20
-886.0
 30
0.0
 11
-1218.0
 21
-852.0
 31
0.0
  0
LINE
 62
7
  8
0
 10
-1175.0
 20
-875.0
 30
0.0
 11
-1227.0
 21
-886.0
 31
0.0
  0
LINE
 62
7
  8
0
 10
-1170.0
 20
-898.0
 30
0.0
 11
-1175.0
 21
-875.0
 31
0.0
  0
LINE
 62
7
  8
0
 10
-1138.0
 20
-900.0
 30
0.0
 11
-1170.0
 21
-898.0
 31
0.0
  0
LINE
 62
7
  8
0
 10
-1111.0
 20
-905.0
 30
0.0
 11
-1138.0
 21
-900.0
 31
0.0
  0
LINE
 62
7
  8
0
 10
-1087.0
 20
-912.0
 30
0.0
 11
-1111.0
 21
-905.0
 31
0.0
  0
LINE
 62
7
  8
0
 10
-1076.0
 20
-930.0
 30
0.0
 11
-1087.0
 21
-912.0
 31
0.0
  0
LINE
 62
7
  8
0
 10
-1052.0
 20
-936.0
 30
0.0
 11
-1076.0
 21
-930.0
 31
0.0
  0
LINE
 62
7
  8
0
 10
-1026.0
 20
-940.0
 30
0.0
 11
-1052.0
 21
-936.0
 31
0.0
  0
LINE
 62
7
  8
0
 10
-939.0
 20
-886.0
 30
0.0
 11
-1026.0
 21
-940.0
 31
0.0
  0
LINE
 62
7
  8
0
 10
-979.0
 20
-951.0
 30
0.0
 11
-939.0
 21
-886.0
 31
0.0
  0
LINE
 62
7
  8
0
 10
-963.0
 20
-963.0
 30
0.0
 11
-979.0
 21
-951.0
 31
0.0
  0
LINE
 62
7
  8
0
 10
-930.0
 20
-957.0
 30
0.0
 11
-963.0
 21
-963.0
 31
0.0
  0
LINE
 62
7
  8
0
 10
-911.0
 20
-965.0
 30
0.0
 11
-930.0
 21
-957.0
 31
0.0
  0
LINE
 62
7
  8
0
 10
-884.0
 20
-965.0
 30
0.0
 11
-911.0
 21
-965.0
 31
0.0
  0
LINE
 62
7
  8
0
 10
-864.0
 20
-971.0
 30
0.0
 11
-884.0
 21
-965.0
 31
0.0
  0
LINE
 62
7
  8
0
 10
-838.0
 20
-969.0
 30
0.0
 11
-864.0
 21
-971.0
 31
0.0
  0
LINE
 62
7
  8
0
 10
-825.0
 20
-983.0
 30
0.0
 11
-838.0
 21
-969.0
 31
0.0
  0
LINE
 62
7
  8
0
 10
-808.0
 20
-992.0
 30
0.0
 11
-825.0
 21
-983.0
 31
0.0
  0
LINE
 62
7
  8
0
 10
-772.0
 20
-976.0
 30
0.0
 11
-808.0
 21
-992.0
 31
0.0
  0
LINE
 62
7
  8
0
 10
-749.0
 20
-977.0
 30
0.0
 11
-772.0
 21
-976.0
 31
0.0
  0
LINE
 62
7
  8
0
 10
-718.0
 20
-965.0
 30
0.0
 11
-749.0
 21
-977.0
 31
0.0
  0
LINE
 62
7
  8
0
 10
-703.0
 20
-973.0
 30
0.0
 11
-718.0
 21
-965.0
 31
0.0
  0
LINE
 62
7
  8
0
 10
-687.0
 20
-982.0
 30
0.0
 11
-703.0
 21
-973.0
 31
0.0
  0
LINE
 62
7
  8
0
 10
-654.0
 20
-963.0
 30
0.0
 11
-687.0
 21
-982.0
 31
0.0
  0
LINE
 62
7
  8
0
 10
-630.0
 20
-959.0
 30
0.0
 11
-654.0
 21
-963.0
 31
0.0
  0
LINE
 62
7
  8
0
 10
-605.0
 20
-950.0
 30
0.0
 11
-630.0
 21
-959.0
 31
0.0
  0
LINE
 62
7
  8
0
 10
-613.0
 20
-994.0
 30
0.0
 11
-605.0
 21
-950.0
 31
0.0
  0
LINE
 62
7
  8
0
 10
-549.0
 20
-920.0
 30
0.0
 11
-613.0
 21
-994.0
 31
0.0
  0
LINE
 62
7
  8
0
 10
-555.0
 20
-962.0
 30
0.0
 11
-549.0
 21
-920.0
 31
0.0
  0
LINE
 62
7
  8
0
 10
-538.0
 20
-964.0
 30
0.0
 11
-555.0
 21
-962.0
 31
0.0
  0
LINE
 62
7
  8
0
 10
-515.0
 20
-956.0
 30
0.0
 11
-538.0
 21
-964.0
 31
0.0
  0
LINE
 62
7
  8
0
 10
-509.0
 20
-979.0
 30
0.0
 11
-515.0
 21
-956.0
 31
0.0
  0
LINE
 62
7
  8
0
 10
-468.0
 20
-932.0
 30
0.0
 11
-509.0
 21
-979.0
 31
0.0
  0
LINE
 62
7
  8
0
 10
-438.0
 20
-905.0
 30
0.0
 11
-468.0
 21
-932.0
 31
0.0
  0
LINE
 62
7
  8
0
 10
-419.0
 20
-899.0
 30
0.0
 11
-438.0
 21
-905.0
 31
0.0
  0
LINE
 62
7
  8
0
 10
-407.0
 20
-907.0
 30
0.0
 11
-419.0
 21
-899.0
 31
0.0
  0
LINE
 62
7
  8
0
 10
-382.0
 20
-886.0
 30
0.0
 11
-407.0
 21
-907.0
 31
0.0
  0
LINE
 62
7
  8
0
 10
-384.0
 20
-929.0
 30
0.0
 11
-382.0
 21
-886.0
 31
0.0
  0
LINE
 62
7
  8
0
 10
-366.0
 20
-923.0
 30
0.0
 11
-384.0
 21
-929.0
 31
0.0
  0
LINE
 62
7
  8
0
 10
-358.0
 20
-943.0
 30
0.0
 11
-366.0
 21
-923.0
 31
0.0
  0
LINE
 62
7
  8
0
 10
-342.0
 20
-941.0
 30
0.0
 11
-358.0
 21
-943.0
 31
0.0
  0
LINE
 62
7
  8
0
 10
-346.0
 20
-997.0
 30
0.0
 11
-342.0
 21
-941.0
 31
0.0
  0
LINE
 62
7
  8
0
 10
-326.0
 20
-984.0
 30
0.0
 11
-346.0
 21
-997.0
 31
0.0
  0
LINE
 62
7
  8
0
 10
-306.0
 20
-971.0
 30
0.0
 11
-326.0
 21
-984.0
 31
0.0
  0
LINE
 62
7
  8
0
 10
-310.0
 20
-1037.0
 30
0.0
 11
-306.0
 21
-971.0
 31
0.0
  0
LINE
 62
7
  8
0
 10
-289.0
 20
-1021.0
 30
0.0
 11
-310.0
 21
-1037.0
 31
0.0
  0
LINE
 62
7
  8
0
 10
-286.0
 20
-1070.0
 30
0.0
 11
-289.0
 21
-1021.0
 31
0.0
  0
LINE
 62
7
  8
0
 10
-263.0
 20
-1044.0
 30
0.0
 11
-286.0
 21
-1070.0
 31
0.0
  0
LINE
 62
7
  8
0
 10
-251.0
 20
-1062.0
 30
0.0
 11
-263.0
 21
-1044.0
 31
0.0
  0
LINE
 62
7
  8
0
 10
-234.0
 20
-1057.0
 30
0.0
 11
-251.0
 21
-1062.0
 31
0.0
  0
LINE
 62
7
  8
0
 10
-229.0
 20
-1113.0
 30
0.0
 11
-234.0
 21
-1057.0
 31
0.0
  0
LINE
 62
7
  8
0
 10
-209.0
 20
-1096.0
 30
0.0
 11
-229.0
 21
-1113.0
 31
0.0
  0
LINE
 62
7
  8
0
 10
-198.0
 20
-1126.0
 30
0.0
 11
-209.0
 21
-1096.0
 31
0.0
  0
LINE
 62
7
  8
0
 10
-181.0
 20
-1125.0
 30
0.0
 11
-198.0
 21
-1126.0
 31
0.0
  0
LINE
 62
7
  8
0
 10
-162.0
 20
-1112.0
 30
0.0
 11
-181.0
 21
-1125.0
 31
0.0
  0
LINE
 62
7
  8
0
 10
-153.0
 20
-1163.0
 30
0.0
 11
-162.0
 21
-1112.0
 31
0.0
  0
LINE
 62
7
  8
0
 10
-135.0
 20
-1155.0
 30
0.0
 11
-153.0
 21
-1163.0
 31
0.0
  0
LINE
 62
7
  8
0
 10
-120.0
 20
-1177.0
 30
0.0
 11
-135.0
 21
-1155.0
 31
0.0
  0
LINE
 62
7
  8
0
 10
-101.0
 20
-1157.0
 30
0.0
 11
-120.0
 21
-1177.0
 31
0.0
  0
LINE
 62
7
  8
0
 10
-84.0
 20
-1162.0
 30
0.0
 11
-101.0
 21
-1157.0
 31
0.0
  0
LINE
 62
7
  8
0
 10
-69.0
 20
-1190.0
 30
0.0
 11
-84.0
 21
-1162.0
 31
0.0
  0
LINE
 62
7
  8
0
 10
-51.0
 20
-1179.0
 30
0.0
 11
-69.0
 21
-1190.0
 31
0.0
  0
LINE
 62
7
  8
0
 10
-34.0
 20
-1190.0
 30
0.0
 11
-51.0
 21
-1179.0
 31
0.0
  0
LINE
 62
7
  8
0
 10
-17.0
 20
-1191.0
 30
0.0
 11
-34.0
 21
-1190.0
 31
0.0
  0
LINE
 62
7
  8
0
 10
0.0
 20
-1191.0
 30
0.0
 11
-17.0
 21
-1191.0
 31
0.0
  0
LINE
 62
7
  8
0
 10
17.0
 20
-1191.0
 30
0.0
 11
0.0
 21
-1191.0
 31
0.0
  0
LINE
 62
7
  8
0
 10
34.0
 20
-1192.0
 30
0.0
 11
17.0
 21
-1191.0
 31
0.0
  0
LINE
 62
7
  8
0
 10
52.0
 20
-1193.0
 30
0.0
 11
34.0
 21
-1192.0
 31
0.0
  0
LINE
 62
7
  8
0
 10
69.0
 20
-1191.0
 30
0.0
 11
52.0
 21
-1193.0
 31
0.0
  0
LINE
 62
7
  8
0
 10
86.0
 20
-1186.0
 30
0.0
 11
69.0
 21
-1191.0
 31
0.0
  0
LINE
 62
7
  8
0
 10
104.0
 20
-1190.0
 30
0.0
 11
86.0
 21
-1186.0
 31
0.0
  0
LINE
 62
7
  8
0
 10
121.0
 20
-1187.0
 30
0.0
 11
104.0
 21
-1190.0
 31
0.0
  0
LINE
 62
7
  8
0
 10
139.0
 20
-1195.0
 30
0.0
 11
121.0
 21
-1187.0
 31
0.0
  0
LINE
 62
7
  8
0
 10
157.0
 20
-1193.0
 30
0.0
 11
139.0
 21
-1195.0
 31
0.0
  0
LINE
 62
7
  8
0
 10
173.0
 20
-1187.0
 30
0.0
 11
157.0
 21
-1193.0
 31
0.0
  0
LINE
 62
7
  8
0
 10
191.0
 20
-1185.0
 30
0.0
 11
173.0
 21
-1187.0
 31
0.0
  0
LINE
 62
7
  8
0
 10
208.0
 20
-1181.0
 30
0.0
 11
191.0
 21
-1185.0
 31
0.0
  0
LINE
 62
7
  8
0
 10
226.0
 20
-1181.0
 30
0.0
 11
208.0
 21
-1181.0
 31
0.0
  0
LINE
 62
7
  8
0
 10
244.0
 20
-1185.0
 30
0.0
 11
226.0
 21
-1181.0
 31
0.0
  0
LINE
 62
7
  8
0
 10
266.0
 20
-1200.0
 30
0.0
 11
244.0
 21
-1185.0
 31
0.0
  0
LINE
 62
7
  8
0
 10
283.0
 20
-1196.0
 30
0.0
 11
266.0
 21
-1200.0
 31
0.0
  0
LINE
 62
7
  8
0
 10
300.0
 20
-1190.0
 30
0.0
 11
283.0
 21
-1196.0
 31
0.0
  0
LINE
 62
7
  8
0
 10
317.0
 20
-1183.0
 30
0.0
 11
300.0
 21
-1190.0
 31
0.0
  0
LINE
 62
7
  8
0
 10
335.0
 20
-1183.0
 30
0.0
 11
317.0
 21
-1183.0
 31
0.0
  0
LINE
 62
7
  8
0
 10
345.0
 20
-1152.0
 30
0.0
 11
335.0
 21
-1183.0
 31
0.0
  0
LINE
 62
7
  8
0
 10
362.0
 20
-1148.0
 30
0.0
 11
345.0
 21
-1152.0
 31
0.0
  0
LINE
 62
7
  8
0
 10
378.0
 20
-1141.0
 30
0.0
 11
362.0
 21
-1148.0
 31
0.0
  0
LINE
 62
7
  8
0
 10
396.0
 20
-1140.0
 30
0.0
 11
378.0
 21
-1141.0
 31
0.0
  0
LINE
 62
7
  8
0
 10
408.0
 20
-1121.0
 30
0.0
 11
396.0
 21
-1140.0
 31
0.0
  0
LINE
 62
7
  8
0
 10
423.0
 20
-1112.0
 30
0.0
 11
408.0
 21
-1121.0
 31
0.0
  0
LINE
 62
7
  8
0
 10
440.0
 20
-1109.0
 30
0.0
 11
423.0
 21
-1112.0
 31
0.0
  0
LINE
 62
7
  8
0
 10
456.0
 20
-1101.0
 30
0.0
 11
440.0
 21
-1109.0
 31
0.0
  0
LINE
 62
7
  8
0
 10
471.0
 20
-1093.0
 30
0.0
 11
456.0
 21
-1101.0
 31
0.0
  0
LINE
 62
7
  8
0
 10
486.0
 20
-1084.0
 30
0.0
 11
471.0
 21
-1093.0
 31
0.0
  0
LINE
 62
7
  8
0
 10
503.0
 20
-1079.0
 30
0.0
 11
486.0
 21
-1084.0
 31
0.0
  0
LINE
 62
7
  8
0
 10
519.0
 20
-1072.0
 30
0.0
 11
503.0
 21
-1079.0
 31
0.0
  0
LINE
 62
7
  8
0
 10
539.0
 20
-1074.0
 30
0.0
 11
519.0
 21
-1072.0
 31
0.0
  0
LINE
 62
7
  8
0
 10
550.0
 20
-1058.0
 30
0.0
 11
539.0
 21
-1074.0
 31
0.0
  0
LINE
 62
7
  8
0
 10
570.0
 20
-1058.0
 30
0.0
 11
550.0
 21
-1058.0
 31
0.0
  0
LINE
 62
7
  8
0
 10
580.0
 20
-1039.0
 30
0.0
 11
570.0
 21
-1058.0
 31
0.0
  0
LINE
 62
7
  8
0
 10
597.0
 20
-1034.0
 30
0.0
 11
580.0
 21
-1039.0
 31
0.0
  0
LINE
 62
7
  8
0
 10
604.0
 20
-1013.0
 30
0.0
 11
597.0
 21
-1034.0
 31
0.0
  0
LINE
 62
7
  8
0
 10
601.0
 20
-975.0
 30
0.0
 11
604.0
 21
-1013.0
 31
0.0
  0
LINE
 62
7
  8
0
 10
613.0
 20
-962.0
 30
0.0
 11
601.0
 21
-975.0
 31
0.0
  0
LINE
 62
7
  8
0
 10
631.0
 20
-960.0
 30
0.0
 11
613.0
 21
-962.0
 31
0.0
  0
LINE
 62
7
  8
0
 10
638.0
 20
-940.0
 30
0.0
 11
631.0
 21
-960.0
 31
0.0
  0
LINE
 62
7
  8
0
 10
636.0
 20
-908.0
 30
0.0
 11
638.0
 21
-940.0
 31
0.0
  0
LINE
 62
7
  8
0
 10
663.0
 20
-919.0
 30
0.0
 11
636.0
 21
-908.0
 31
0.0
  0
LINE
 62
7
  8
0
 10
646.0
 20
-867.0
 30
0.0
 11
663.0
 21
-919.0
 31
0.0
  0
LINE
 62
7
  8
0
 10
676.0
 20
-882.0
 30
0.0
 11
646.0
 21
-867.0
 31
0.0
  0
LINE
 62
7
  8
0
 10
663.0
 20
-839.0
 30
0.0
 11
676.0
 21
-882.0
 31
0.0
  0
LINE
 62
7
  8
0
 10
699.0
 20
-858.0
 30
0.0
 11
663.0
 21
-839.0
 31
0.0
  0
LINE
 62
7
  8
0
 10
656.0
 20
-782.0
 30
0.0
 11
699.0
 21
-858.0
 31
0.0
  0
LINE
 62
7
  8
0
 10
677.0
 20
-783.0
 30
0.0
 11
656.0
 21
-782.0
 31
0.0
  0
LINE
 62
7
  8
0
 10
688.0
 20
-773.0
 30
0.0
 11
677.0
 21
-783.0
 31
0.0
  0
LINE
 62
7
  8
0
 10
693.0
 20
-756.0
 30
0.0
 11
688.0
 21
-773.0
 31
0.0
  0
LINE
 62
7
  8
0
 10
708.0
 20
-751.0
 30
0.0
 11
693.0
 21
-756.0
 31
0.0
  0
LINE
 62
7
  8
0
 10
696.0
 20
-716.0
 30
0.0
 11
708.0
 21
-751.0
 31
0.0
  0
LINE
 62
7
  8
0
 10
727.0
 20
-727.0
 30
0.0
 11
696.0
 21
-716.0
 31
0.0
  0
LINE
 62
7
  8
0
 10
737.0
 20
-716.0
 30
0.0
 11
727.0
 21
-727.0
 31
0.0
  0
LINE
 62
7
  8
0
 10
785.0
 20
-741.0
 30
0.0
 11
737.0
 21
-716.0
 31
0.0
  0
LINE
 62
7
  8
0
 10
805.0
 20
-738.0
 30
0.0
 11
785.0
 21
-741.0
 31
0.0
  0
LINE
 62
7
  8
0
 10
824.0
 20
-733.0
 30
0.0
 11
805.0
 21
-738.0
 31
0.0
  0
LINE
 62
7
  8
0
 10
859.0
 20
-742.0
 30
0.0
 11
824.0
 21
-733.0
 31
0.0
  0
LINE
 62
7
  8
0
 10
923.0
 20
-774.0
 30
0.0
 11
859.0
 21
-742.0
 31
0.0
  0
LINE
 62
7
  8
0
 10
913.0
 20
-743.0
 30
0.0
 11
923.0
 21
-774.0
 31
0.0
  0
LINE
 62
7
  8
0
 10
986.0
 20
-779.0
 30
0.0
 11
913.0
 21
-743.0
 31
0.0
  0
LINE
 62
7
  8
0
 10
1035.0
 20
-794.0
 30
0.0
 11
986.0
 21
-779.0
 31
0.0
  0
LINE
 62
7
  8
0
 10
1058.0
 20
-788.0
 30
0.0
 11
1035.0
 21
-794.0
 31
0.0
  0
LINE
 62
7
  8
0
 10
1083.0
 20
-782.0
 30
0.0
 11
1058.0
 21
-788.0
 31
0.0
  0
LINE
 62
7
  8
0
 10
1114.0
 20
-780.0
 30
0.0
 11
1083.0
 21
-782.0
 31
0.0
  0
LINE
 62
7
  8
0
 10
1123.0
 20
-762.0
 30
0.0
 11
1114.0
 21
-780.0
 31
0.0
  0
LINE
 62
7
  8
0
 10
1173.0
 20
-771.0
 30
0.0
 11
1123.0
 21
-762.0
 31
0.0
  0
LINE
 62
7
  8
0
 10
1199.0
 20
-764.0
 30
0.0
 11
1173.0
 21
-771.0
 31
0.0
  0
LINE
 62
7
  8
0
 10
1245.0
 20
-768.0
 30
0.0
 11
1199.0
 21
-764.0
 31
0.0
  0
LINE
 62
7
  8
0
 10
1260.0
 20
-752.0
 30
0.0
 11
1245.0
 21
-768.0
 31
0.0
  0
LINE
 62
7
  8
0
 10
1294.0
 20
-747.0
 30
0.0
 11
1260.0
 21
-752.0
 31
0.0
  0
LINE
 62
7
  8
0
 10
1290.0
 20
-720.0
 30
0.0
 11
1294.0
 21
-747.0
 31
0.0
  0
LINE
 62
7
  8
0
 10
1331.0
 20
-718.0
 30
0.0
 11
1290.0
 21
-720.0
 31
0.0
  0
LINE
 62
7
  8
0
 10
1355.0
 20
-705.0
 30
0.0
 11
1331.0
 21
-718.0
 31
0.0
  0
LINE
 62
7
  8
0
 10
1377.0
 20
-692.0
 30
0.0
 11
1355.0
 21
-705.0
 31
0.0
  0
LINE
 62
7
  8
0
 10
1412.0
 20
-683.0
 30
0.0
 11
1377.0
 21
-692.0
 31
0.0
  0
LINE
 62
7
  8
0
 10
1460.0
 20
-681.0
 30
0.0
 11
1412.0
 21
-683.0
 31
0.0
  0
LINE
 62
7
  8
0
 10
1463.0
 20
-656.0
 30
0.0
 11
1460.0
 21
-681.0
 31
0.0
  0
LINE
 62
7
  8
0
 10
1494.0
 20
-644.0
 30
0.0
 11
1463.0
 21
-656.0
 31
0.0
  0
LINE
 62
7
  8
0
 10
1525.0
 20
-631.0
 30
0.0
 11
1494.0
 21
-644.0
 31
0.0
  0
LINE
 62
7
  8
0
 10
1539.0
 20
-611.0
 30
0.0
 11
1525.0
 21
-631.0
 31
0.0
  0
LINE
 62
7
  8
0
 10
1571.0
 20
-597.0
 30
0.0
 11
1539.0
 21
-611.0
 31
0.0
  0
LINE
 62
7
  8
0
 10
1594.0
 20
-580.0
 30
0.0
 11
1571.0
 21
-597.0
 31
0.0
  0
LINE
 62
7
  8
0
 10
1619.0
 20
-563.0
 30
0.0
 11
1594.0
 21
-580.0
 31
0.0
  0
LINE
 62
7
  8
0
 10
1639.0
 20
-543.0
 30
0.0
 11
1619.0
 21
-563.0
 31
0.0
  0
LINE
 62
7
  8
0
 10
1627.0
 20
-513.0
 30
0.0
 11
1639.0
 21
-543.0
 31
0.0
  0
LINE
 62
7
  8
0
 10
1663.0
 20
-497.0
 30
0.0
 11
1627.0
 21
-513.0
 31
0.0
  0
LINE
 62
7
  8
0
 10
1674.0
 20
-475.0
 30
0.0
 11
1663.0
 21
-497.0
 31
0.0
  0
LINE
 62
7
  8
0
 10
1722.0
 20
-461.0
 30
0.0
 11
1674.0
 21
-475.0
 31
0.0
  0
LINE
 62
7
  8
0
 10
1731.0
 20
-437.0
 30
0.0
 11
1722.0
 21
-461.0
 31
0.0
  0
LINE
 62
7
  8
0
 10
1757.0
 20
-416.0
 30
0.0
 11
1731.0
 21
-437.0
 31
0.0
  0
LINE
 62
7
  8
0
 10
1753.0
 20
-388.0
 30
0.0
 11
1757.0
 21
-416.0
 31
0.0
  0
LINE
 62
7
  8
0
 10
1769.0
 20
-365.0
 30
0.0
 11
1753.0
 21
-388.0
 31
0.0
  0
LINE
 62
7
  8
0
 10
1776.0
 20
-340.0
 30
0.0
 11
1769.0
 21
-365.0
 31
0.0
  0
LINE
 62
7
  8
0
 10
1780.0
 20
-313.0
 30
0.0
 11
1776.0
 21
-340.0
 31
0.0
  0
LINE
 62
7
  8
0
 10
1790.0
 20
-288.0
 30
0.0
 11
1780.0
 21
-313.0
 31
0.0
  0
LINE
 62
7
  8
0
 10
1815.0
 20
-265.0
 30
0.0
 11
1790.0
 21
-288.0
 31
0.0
  0
LINE
 62
7
  8
0
 10
1820.0
 20
-239.0
 30
0.0
 11
1815.0
 21
-265.0
 31
0.0
  0
LINE
 62
7
  8
0
 10
1824.0
 20
-213.0
 30
0.0
 11
1820.0
 21
-239.0
 31
0.0
  0
LINE
 62
7
  8
0
 10
1828.0
 20
-186.0
 30
0.0
 11
1824.0
 21
-213.0
 31
0.0
  0
LINE
 62
7
  8
0
 10
1848.0
 20
-161.0
 30
0.0
 11
1828.0
 21
-186.0
 31
0.0
  0
LINE
 62
7
  8
0
 10
1855.0
 20
-135.0
 30
0.0
 11
1848.0
 21
-161.0
 31
0.0
  0
LINE
 62
7
  8
0
 10
1880.0
 20
-109.0
 30
0.0
 11
1855.0
 21
-135.0
 31
0.0
  0
LINE
 62
7
  8
0
 10
1885.0
 20
-82.0
 30
0.0
 11
1880.0
 21
-109.0
 31
0.0
  0
LINE
 62
7
  8
0
 10
1890.0
 20
-54.0
 30
0.0
 11
1885.0
 21
-82.0
 31
0.0
  0
LINE
 62
7
  8
0
 10
1887.0
 20
-27.0
 30
0.0
 11
1890.0
 21
-54.0
 31
0.0
  0
LINE
 62
7
  8
0
 10
1916.0
 20
0.0
 30
0.0
 11
1887.0
 21
-27.0
 31
0.0
  0
LINE
 62
7
  8
0
 10
1910.0
 20
27.0
 30
0.0
 11
1916.0
 21
0.0
 31
0.0
  0
LINE
 62
7
  8
0
 10
1911.0
 20
55.0
 30
0.0
 11
1910.0
 21
27.0
 31
0.0
  0
LINE
 62
7
  8
0
 10
1909.0
 20
83.0
 30
0.0
 11
1911.0
 21
55.0
 31
0.0
  0
LINE
 62
7
  8
0
 10
1915.0
 20
111.0
 30
0.0
 11
1909.0
 21
83.0
 31
0.0
  0
LINE
 62
7
  8
0
 10
1907.0
 20
138.0
 30
0.0
 11
1915.0
 21
111.0
 31
0.0
  0
LINE
 62
7
  8
0
 10
1898.0
 20
166.0
 30
0.0
 11
1907.0
 21
138.0
 31
0.0
  0
LINE
 62
7
  8
0
 10
1902.0
 20
194.0
 30
0.0
 11
1898.0
 21
166.0
 31
0.0
  0
LINE
 62
7
  8
0
 10
1907.0
 20
222.0
 30
0.0
 11
1902.0
 21
194.0
 31
0.0
  0
LINE
 62
7
  8
0
 10
1892.0
 20
249.0
 30
0.0
 11
1907.0
 21
222.0
 31
0.0
  0
LINE
 62
7
  8
0
 10
1907.0
 20
279.0
 30
0.0
 11
1892.0
 21
249.0
 31
0.0
  0
LINE
 62
7
  8
0
 10
1886.0
 20
304.0
 30
0.0
 11
1907.0
 21
279.0
 31
0.0
  0
LINE
 62
7
  8
0
 10
1880.0
 20
331.0
 30
0.0
 11
1886.0
 21
304.0
 31
0.0
  0
LINE
 62
7
  8
0
 10
1874.0
 20
358.0
 30
0.0
 11
1880.0
 21
331.0
 31
0.0
  0
LINE
 62
7
  8
0
 10
1875.0
 20
387.0
 30
0.0
 11
1874.0
 21
358.0
 31
0.0
  0
LINE
 62
7
  8
0
 10
1868.0
 20
414.0
 30
0.0
 11
1875.0
 21
387.0
 31
0.0
  0
LINE
 62
7
  8
0
 10
1832.0
 20
434.0
 30
0.0
 11
1868.0
 21
414.0
 31
0.0
  0
LINE
 62
7
  8
0
 10
1830.0
 20
462.0
 30
0.0
 11
1832.0
 21
434.0
 31
0.0
  0
LINE
 62
7
  8
0
 10
1826.0
 20
489.0
 30
0.0
 11
1830.0
 21
462.0
 31
0.0
  0
LINE
 62
7
  8
0
 10
1788.0
 20
507.0
 30
0.0
 11
1826.0
 21
489.0
 31
0.0
  0
LINE
 62
7
  8
0
 10
1782.0
 20
533.0
 30
0.0
 11
1788.0
 21
507.0
 31
0.0
  0
LINE
 62
7
  8
0
 10
1775.0
 20
559.0
 30
0.0
 11
1782.0
 21
533.0
 31
0.0
  0
LINE
 62
7
  8
0
 10
1737.0
 20
575.0
 30
0.0
 11
1775.0
 21
559.0
 31
0.0
  0
LINE
 62
7
  8
0
 10
1727.0
 20
600.0
 30
0.0
 11
1737.0
 21
575.0
 31
0.0
  0
LINE
 62
7
  8
0
 10
1722.0
 20
626.0
 30
0.0
 11
1727.0
 21
600.0
 31
0.0
  0
LINE
 62
7
  8
0
 10
1715.0
 20
652.0
 30
0.0
 11
1722.0
 21
626.0
 31
0.0
  0
LINE
 62
7
  8
0
 10
1690.0
 20
671.0
 30
0.0
 11
1715.0
 21
652.0
 31
0.0
  0
LINE
 62
7
  8
0
 10
1673.0
 20
693.0
 30
0.0
 11
1690.0
 21
671.0
 31
0.0
  0
LINE
 62
7
  8
0
 10
1661.0
 20
716.0
 30
0.0
 11
1673.0
 21
693.0
 31
0.0
  0
LINE
 62
7
  8
0
 10
1650.0
 20
740.0
 30
0.0
 11
1661.0
 21
716.0
 31
0.0
  0
LINE
 62
7
  8
0
 10
1615.0
 20
753.0
 30
0.0
 11
1650.0
 21
740.0
 31
0.0
  0
LINE
 62
7
  8
0
 10
1604.0
 20
776.0
 30
0.0
 11
1615.0
 21
753.0
 31
0.0
  0
LINE
 62
7
  8
0
 10
1568.0
 20
787.0
 30
0.0
 11
1604.0
 21
776.0
 31
0.0
  0
LINE
 62
7
  8
0
 10
1562.0
 20
813.0
 30
0.0
 11
1568.0
 21
787.0
 31
0.0
  0
LINE
 62
7
  8
0
 10
1548.0
 20
834.0
 30
0.0
 11
1562.0
 21
813.0
 31
0.0
  0
LINE
 62
7
  8
0
 10
1512.0
 20
844.0
 30
0.0
 11
1548.0
 21
834.0
 31
0.0
  0
LINE
 62
7
  8
0
 10
1496.0
 20
864.0
 30
0.0
 11
1512.0
 21
844.0
 31
0.0
  0
LINE
 62
7
  8
0
 10
1470.0
 20
877.0
 30
0.0
 11
1496.0
 21
864.0
 31
0.0
  0
LINE
 62
7
  8
0
 10
1452.0
 20
896.0
 30
0.0
 11
1470.0
 21
877.0
 31
0.0
  0
LINE
 62
7
  8
0
 10
1452.0
 20
925.0
 30
0.0
 11
1452.0
 21
896.0
 31
0.0
  0
LINE
 62
7
  8
0
 10
1403.0
 20
923.0
 30
0.0
 11
1452.0
 21
925.0
 31
0.0
  0
LINE
 62
7
  8
0
 10
1380.0
 20
936.0
 30
0.0
 11
1403.0
 21
923.0
 31
0.0
  0
LINE
 62
7
  8
0
 10
1375.0
 20
963.0
 30
0.0
 11
1380.0
 21
936.0
 31
0.0
  0
LINE
 62
7
  8
0
 10
1339.0
 20
967.0
 30
0.0
 11
1375.0
 21
963.0
 31
0.0
  0
LINE
 62
7
  8
0
 10
1305.0
 20
971.0
 30
0.0
 11
1339.0
 21
967.0
 31
0.0
  0
LINE
 62
7
  8
0
 10
1305.0
 20
1002.0
 30
0.0
 11
1305.0
 21
971.0
 31
0.0
  0
LINE
 62
7
  8
0
 10
1252.0
 20
990.0
 30
0.0
 11
1305.0
 21
1002.0
 31
0.0
  0
LINE
 62
7
  8
0
 10
1246.0
 20
1015.0
 30
0.0
 11
1252.0
 21
990.0
 31
0.0
  0
LINE
 62
7
  8
0
 10
1221.0
 20
1025.0
 30
0.0
 11
1246.0
 21
1015.0
 31
0.0
  0
LINE
 62
7
  8
0
 10
1188.0
 20
1027.0
 30
0.0
 11
1221.0
 21
1025.0
 31
0.0
  0
LINE
 62
7
  8
0
 10
1167.0
 20
1039.0
 30
0.0
 11
1188.0
 21
1027.0
 31
0.0
  0
LINE
 62
7
  8
0
 10
1120.0
 20
1026.0
 30
0.0
 11
1167.0
 21
1039.0
 31
0.0
  0
LINE
 62
7
  8
0
 10
1102.0
 20
1040.0
 30
0.0
 11
1120.0
 21
1026.0
 31
0.0
  0
LINE
 62
7
  8
0
 10
1070.0
 20
1040.0
 30
0.0
 11
1102.0
 21
1040.0
 31
0.0
  0
LINE
 62
7
  8
0
 10
1055.0
 20
1055.0
 30
0.0
 11
1070.0
 21
1040.0
 31
0.0
  0
LINE
 62
7
  8
0
 10
1040.0
 20
1071.0
 30
0.0
 11
1055.0
 21
1055.0
 31
0.0
  0
LINE
 62
7
  8
0
 10
1057.0
 20
1120.0
 30
0.0
 11
1040.0
 21
1071.0
 31
0.0
  0
LINE
 62
7
  8
0
 10
1072.0
 20
1170.0
 30
0.0
 11
1057.0
 21
1120.0
 31
0.0
  0
LINE
 62
7
  8
0
 10
1084.0
 20
1218.0
 30
0.0
 11
1072.0
 21
1170.0
 31
0.0
  0
LINE
 62
7
  8
0
 10
1082.0
 20
1252.0
 30
0.0
 11
1084.0
 21
1218.0
 31
0.0
  0
LINE
 62
7
  8
0
 10
1063.0
 20
1267.0
 30
0.0
 11
1082.0
 21
1252.0
 31
0.0
  0
LINE
 62
7
  8
0
 10
1045.0
 20
1283.0
 30
0.0
 11
1063.0
 21
1267.0
 31
0.0
  0
LINE
 62
7
  8
0
 10
1056.0
 20
1335.0
 30
0.0
 11
1045.0
 21
1283.0
 31
0.0
  0
LINE
 62
7
  8
0
 10
1028.0
 20
1339.0
 30
0.0
 11
1056.0
 21
1335.0
 31
0.0
  0
LINE
 62
7
  8
0
 10
1020.0
 20
1370.0
 30
0.0
 11
1028.0
 21
1339.0
 31
0.0
  0
LINE
 62
7
  8
0
 10
1026.0
 20
1422.0
 30
0.0
 11
1020.0
 21
1370.0
 31
0.0
  0
LINE
 62
7
  8
0
 10
1007.0
 20
1438.0
 30
0.0
 11
1026.0
 21
1422.0
 31
0.0
  0
LINE
 62
7
  8
0
 10
1001.0
 20
1475.0
 30
0.0
 11
1007.0
 21
1438.0
 31
0.0
  0
LINE
 62
7
  8
0
 10
994.0
 20
1512.0
 30
0.0
 11
1001.0
 21
1475.0
 31
0.0
  0
LINE
 62
7
  8
0
 10
983.0
 20
1544.0
 30
0.0
 11
994.0
 21
1512.0
 31
0.0
  0
LINE
 62
7
  8
0
 10
979.0
 20
1588.0
 30
0.0
 11
983.0
 21
1544.0
 31
0.0
  0
LINE
 62
7
  8
0
 10
980.0
 20
1642.0
 30
0.0
 11
979.0
 21
1588.0
 31
0.0
  0
LINE
 62
7
  8
0
 10
956.0
 20
1656.0
 30
0.0
 11
980.0
 21
1642.0
 31
0.0
  0
LINE
 62
7
  8
0
 10
940.0
 20
1684.0
 30
0.0
 11
956.0
 21
1656.0
 31
0.0
  0
LINE
 62
7
  8
0
 10
930.0
 20
1726.0
 30
0.0
 11
940.0
 21
1684.0
 31
0.0
  0
LINE
 62
7
  8
0
 10
911.0
 20
1750.0
 30
0.0
 11
930.0
 21
1726.0
 31
0.0
  0
LINE
 62
7
  8
0
 10
905.0
 20
1802.0
 30
0.0
 11
911.0
 21
1750.0
 31
0.0
  0
LINE
 62
7
  8
0
 10
886.0
 20
1830.0
 30
0.0
 11
905.0
 21
1802.0
 31
0.0
  0
LINE
 62
7
  8
0
 10
873.0
 20
1873.0
 30
0.0
 11
886.0
 21
1830.0
 31
0.0
  0
LINE
 62
7
  8
0
 10
844.0
 20
1883.0
 30
0.0
 11
873.0
 21
1873.0
 31
0.0
  0
LINE
 62
7
  8
0
 10
838.0
 20
1943.0
 30
0.0
 11
844.0
 21
1883.0
 31
0.0
  0
LINE
 62
7
  8
0
 10
821.0
 20
1983.0
 30
0.0
 11
838.0
 21
1943.0
 31
0.0
  0
LINE
 62
7
  8
0
 10
800.0
 20
2013.0
 30
0.0
 11
821.0
 21
1983.0
 31
0.0
  0
LINE
 62
7
  8
0
 10
770.0
 20
2024.0
 30
0.0
 11
800.0
 21
2013.0
 31
0.0
  0
LINE
 62
7
  8
0
 10
751.0
 20
2063.0
 30
0.0
 11
770.0
 21
2024.0
 31
0.0
  0
LINE
 62
7
  8
0
 10
727.0
 20
2094.0
 30
0.0
 11
751.0
 21
2063.0
 31
0.0
  0
LINE
 62
7
  8
0
 10
711.0
 20
2147.0
 30
0.0
 11
727.0
 21
2094.0
 31
0.0
  0
LINE
 62
7
  8
0
 10
680.0
 20
2159.0
 30
0.0
 11
711.0
 21
2147.0
 31
0.0
  0
LINE
 62
7
  8
0
 10
659.0
 20
2203.0
 30
0.0
 11
680.0
 21
2159.0
 31
0.0
  0
LINE
 62
7
  8
0
 10
633.0
 20
2232.0
 30
0.0
 11
659.0
 21
2203.0
 31
0.0
  0
LINE
 62
7
  8
0
 10
605.0
 20
2261.0
 30
0.0
 11
633.0
 21
2232.0
 31
0.0
  0
LINE
 62
7
  8
0
 10
579.0
 20
2296.0
 30
0.0
 11
605.0
 21
2261.0
 31
0.0
  0
LINE
 62
7
  8
0
 10
552.0
 20
2331.0
 30
0.0
 11
579.0
 21
2296.0
 31
0.0
  0
LINE
 62
7
  8
0
 10
519.0
 20
2341.0
 30
0.0
 11
552.0
 21
2331.0
 31
0.0
  0
LINE
 62
7
  8
0
 10
490.0
 20
2377.0
 30
0.0
 11
519.0
 21
2341.0
 31
0.0
  0
LINE
 62
7
  8
0
 10
461.0
 20
2410.0
 30
0.0
 11
490.0
 21
2377.0
 31
0.0
  0
LINE
 62
7
  8
0
 10
430.0
 20
2442.0
 30
0.0
 11
461.0
 21
2410.0
 31
0.0
  0
LINE
 62
7
  8
0
 10
399.0
 20
2473.0
 30
0.0
 11
430.0
 21
2442.0
 31
0.0
  0
LINE
 62
7
  8
0
 10
363.0
 20
2483.0
 30
0.0
 11
399.0
 21
2473.0
 31
0.0
  0
LINE
 62
7
  8
0
 10
328.0
 20
2496.0
 30
0.0
 11
363.0
 21
2483.0
 31
0.0
  0
LINE
 62
7
  8
0
 10
294.0
 20
2518.0
 30
0.0
 11
328.0
 21
2496.0
 31
0.0
  0
LINE
 62
7
  8
0
 10
256.0
 20
2511.0
 30
0.0
 11
294.0
 21
2518.0
 31
0.0
  0
LINE
 62
7
  8
0
 10
220.0
 20
2518.0
 30
0.0
 11
256.0
 21
2511.0
 31
0.0
  0
LINE
 62
7
  8
0
 10
185.0
 20
2544.0
 30
0.0
 11
220.0
 21
2518.0
 31
0.0
  0
LINE
 62
7
  8
0
 10
149.0
 20
2563.0
 30
0.0
 11
185.0
 21
2544.0
 31
0.0
  0
LINE
 62
7
  8
0
 10
112.0
 20
2579.0
 30
0.0
 11
149.0
 21
2563.0
 31
0.0
  0
LINE
 62
7
  8
0
 10
74.0
 20
2571.0
 30
0.0
 11
112.0
 21
2579.0
 31
0.0
  0
LINE
 62
7
  8
0
 10
37.0
 20
2604.0
 30
0.0
 11
74.0
 21
2571.0
 31
0.0
  0
LINE
 62
7
  8
0
 10
37.0
 20
2604.0
 30
0.0
 11
0.0
 21
2607.0
 31
0.0
  0
ENDSEC
  0
EOF
