  0
SECTION
  2
HEADER
  9
$ACADVER
  1
AC1009
  9
$EXTMIN
 10
0.0
 20
0.0
 30
0.0
  9
$EXTMAX
 10
100.0
 20
100.0
 30
0.0
  9
$INSBASE
 10
0.0
 20
0.0
 30
0.0
  0
ENDSEC
  0
SECTION
  2
TABLES
  0
TABLE
  2
LTYPE
 70
19
  0
LTYPE
  2
PHANTOM
 70
0
  3
Phantom ______  __  __  ______  __  __  ______
 72
65
 73
6
 40
2.5
 49
1.25
 49
-0.25
 49
0.25
 49
-0.25
 49
0.25
 49
-0.25
  0
LTYPE
  2
DOT2
 70
0
  3
Dot (.5) . . . . . . . . . . . . . . . . . . . 
 72
65
 73
2
 40
0.1
 49
0.0
 49
-0.1
  0
LTYPE
  2
DIVIDE
 70
0
  3
Divide __ . . __ . . __ . . __ . . __ . . __
 72
65
 73
6
 40
1.6
 49
1.0
 49
-0.2
 49
0.0
 49
-0.2
 49
0.0
 49
-0.2
  0
LTYPE
  2
DIVIDEX2
 70
0
  3
Divide (2x) ____  . .  ____  . .  ____  . .  ____
 72
65
 73
6
 40
2.6
 49
2.0
 49
-0.2
 49
0.0
 49
-0.2
 49
0.0
 49
-0.2
  0
LTYPE
  2
CENTER
 70
0
  3
Center ____ _ ____ _ ____ _ ____ _ ____ _ ____
 72
65
 73
4
 40
2.0
 49
1.25
 49
-0.25
 49
0.25
 49
-0.25
  0
LTYPE
  2
DASHDOT
 70
0
  3
Dash dot __ . __ . __ . __ . __ . __ . __ . __
 72
65
 73
4
 40
1.4
 49
1.0
 49
-0.2
 49
0.0
 49
-0.2
  0
LTYPE
  2
CENTERX2
 70
0
  3
Center (2x) ________  __  ________  __  ________
 72
65
 73
4
 40
3.5
 49
2.5
 49
-0.25
 49
0.5
 49
-0.25
  0
LTYPE
  2
PHANTOMX2
 70
0
  3
Phantom (2x)____________    ____    ____    ____________
 72
65
 73
6
 40
4.25
 49
2.5
 49
-0.25
 49
0.5
 49
-0.25
 49
0.5
 49
-0.25
  0
LTYPE
  2
CONTINUOUS
 70
0
  3
Solid
 72
65
 73
0
 40
0.0
  0
LTYPE
  2
PHANTOM2
 70
0
  3
Phantom (.5x) ___ _ _ ___ _ _ ___ _ _ ___ _ _ ___
 72
65
 73
6
 40
1.25
 49
0.625
 49
-0.125
 49
0.125
 49
-0.125
 49
0.125
 49
-0.125
  0
LTYPE
  2
DASHED
 70
0
  3
Dashed __ __ __ __ __ __ __ __ __ __ __ __ __ _
 72
65
 73
2
 40
0.6
 49
0.5
 49
-0.1
  0
LTYPE
  2
DASHED2
 70
0
  3
Dashed (.5x) _ _ _ _ _ _ _ _ _ _ _ _ _ _
 72
65
 73
2
 40
0.3
 49
0.25
 49
-0.05
  0
LTYPE
  2
DASHDOT2
 70
0
  3
Dash dot (.5x) _ . _ . _ . _ . _ . _ . _ . _
 72
65
 73
4
 40
0.7
 49
0.5
 49
-0.1
 49
0.0
 49
-0.1
  0
LTYPE
  2
DOTX2
 70
0
  3
Dot (2x) .    .    .    .    .    .    .    . 
 72
65
 73
2
 40
0.4
 49
0.0
 49
-0.4
  0
LTYPE
  2
DIVIDE2
 70
0
  3
Divide(.5x) _ . _ . _ . _ . _ . _ . _ . _
 72
65
 73
6
 40
0.8
 49
0.5
 49
-0.1
 49
0.0
 49
-0.1
 49
0.0
 49
-0.1
  0
LTYPE
  2
CENTER2
 70
0
  3
Center (.5x) ____ _ ____ _ ____ _ ____ _ ____
 72
65
 73
4
 40
1.0
 49
0.625
 49
-0.125
 49
0.125
 49
-0.125
  0
LTYPE
  2
DASHDOTX2
 70
0
  3
Dash dot (2x) ____  .  ____  .  ____  .  ____
 72
65
 73
4
 40
2.4
 49
2.0
 49
-0.2
 49
0.0
 49
-0.2
  0
LTYPE
  2
DOT
 70
0
  3
Dot .  .  .  .  .  .  .  .  .  .  .  .  .  .  .  .
 72
65
 73
2
 40
0.2
 49
0.0
 49
-0.2
  0
LTYPE
  2
DASHEDX2
 70
0
  3
Dashed (2x) ____  ____  ____  ____  ____  ____
 72
65
 73
2
 40
1.2
 49
1.0
 49
-0.2
  0
ENDTAB
  0
TABLE
  2
LAYER
 70
5
  0
LAYER
  2
VIEWPORTS
 70
0
 62
7
  6
CONTINUOUS
  0
LAYER
  2
TABLEGRID
 70
0
 62
1
  6
CONTINUOUS
  0
LAYER
  2
TABLECONTENT
 70
0
 62
1
  6
CONTINUOUS
  0
LAYER
  2
DIMENSIONS
 70
0
 62
1
  6
CONTINUOUS
  0
LAYER
  2
TABLEBACKGROUND
 70
0
 62
1
  6
CONTINUOUS
  0
ENDTAB
  0
TABLE
  2
STYLE
 70
12
  0
STYLE
  2
TIMES
 70
0
 40
0.0
 41
1.0
 42
1.0
 50
0.0
 71
0
  3
times.ttf
  4

  0
STYLE
  2
ARIAL
 70
0
 40
0.0
 41
1.0
 42
1.0
 50
0.0
 71
0
  3
arial.ttf
  4

  0
STYLE
  2
TIMES_BOLD
 70
0
 40
0.0
 41
1.0
 42
1.0
 50
0.0
 71
0
  3
timesbd.ttf
  4

  0
STYLE
  2
ARIAL_BLACK
 70
0
 40
0.0
 41
1.0
 42
1.0
 50
0.0
 71
0
  3
ariblk.ttf
  4

  0
STYLE
  2
TIMES_ITALIC
 70
0
 40
0.0
 41
1.0
 42
1.0
 50
0.0
 71
0
  3
timesi.ttf
  4

  0
STYLE
  2
ISOCPEUR
 70
0
 40
0.0
 41
1.0
 42
1.0
 50
0.0
 71
0
  3
isocpeur.ttf
  4

  0
STYLE
  2
ARIAL_BOLD
 70
0
 40
0.0
 41
1.0
 42
1.0
 50
0.0
 71
0
  3
arialbd.ttf
  4

  0
STYLE
  2
ARIAL_ITALIC
 70
0
 40
0.0
 41
1.0
 42
1.0
 50
0.0
 71
0
  3
ariali.ttf
  4

  0
STYLE
  2
ARIAL_BOLD_ITALIC
 70
0
 40
0.0
 41
1.0
 42
1.0
 50
0.0
 71
0
  3
arialbi.ttf
  4

  0
STYLE
  2
TIMES_BOLD_ITALIC
 70
0
 40
0.0
 41
1.0
 42
1.0
 50
0.0
 71
0
  3
timesbi.ttf
  4

  0
STYLE
  2
ISOCPEUR_ITALIC
 70
0
 40
0.0
 41
1.0
 42
1.0
 50
0.0
 71
0
  3
isocpeui.ttf
  4

  0
STYLE
  2
STANDARD
 70
0
 40
0.0
 41
1.0
 42
1.0
 50
0.0
 71
0
  3
arial.ttf
  4

  0
ENDTAB
  0
TABLE
  2
VIEW
 70
0
  0
ENDTAB
  0
TABLE
  2
APPID
 70
1
  0
APPID
  2
DXFWRITE
 70
0
  0
ENDTAB
  0
TABLE
  2
VPORT
 70
0
  0
ENDTAB
  0
TABLE
  2
UCS
 70
0
  0
ENDTAB
  0
ENDSEC
  0
SECTION
  2
BLOCKS
  0
ENDSEC
  0
SECTION
  2
ENTITIES
  0
VIEWPORT
  8
VIEWPORTS
 67
1
 10
0.0
 20
0.0
 30
0.0
 40
1.0
 41
1.0
 68
1
 69
1
1001
ACAD
1000
MVIEW
1002
{
1070
16
1010
0.0
1020
0.0
1030
0.0
1010
0.0
1020
0.0
1030
0.0
1040
0.0
1040
1.0
1040
0.0
1040
0.0
1040
50.0
1040
0.0
1040
0.0
1070
0
1070
100
1070
1
1070
3
1070
0
1070
0
1070
0
1070
0
1040
0.0
1040
0.0
1040
0.0
1040
0.1
1040
0.1
1040
0.1
1040
0.1
1070
0
1002
{
1002
}
1002
}
  0
LINE
 62
7
  8
0
 10
-31.0
 20
999.0
 30
0.0
 11
0.0
 21
1000.0
 31
0.0
  0
LINE
 62
7
  8
0
 10
-62.0
 20
998.0
 30
0.0
 11
-31.0
 21
999.0
 31
0.0
  0
LINE
 62
7
  8
0
 10
-94.0
 20
995.0
 30
0.0
 11
-62.0
 21
998.0
 31
0.0
  0
LINE
 62
7
  8
0
 10
-125.0
 20
992.0
 30
0.0
 11
-94.0
 21
995.0
 31
0.0
  0
LINE
 62
7
  8
0
 10
-156.0
 20
987.0
 30
0.0
 11
-125.0
 21
992.0
 31
0.0
  0
LINE
 62
7
  8
0
 10
-187.0
 20
982.0
 30
0.0
 11
-156.0
 21
987.0
 31
0.0
  0
LINE
 62
7
  8
0
 10
-218.0
 20
975.0
 30
0.0
 11
-187.0
 21
982.0
 31
0.0
  0
LINE
 62
7
  8
0
 10
-248.0
 20
968.0
 30
0.0
 11
-218.0
 21
975.0
 31
0.0
  0
LINE
 62
7
  8
0
 10
-278.0
 20
960.0
 30
0.0
 11
-248.0
 21
968.0
 31
0.0
  0
LINE
 62
7
  8
0
 10
-309.0
 20
951.0
 30
0.0
 11
-278.0
 21
960.0
 31
0.0
  0
LINE
 62
7
  8
0
 10
-338.0
 20
940.0
 30
0.0
 11
-309.0
 21
951.0
 31
0.0
  0
LINE
 62
7
  8
0
 10
-368.0
 20
929.0
 30
0.0
 11
-338.0
 21
940.0
 31
0.0
  0
LINE
 62
7
  8
0
 10
-397.0
 20
917.0
 30
0.0
 11
-368.0
 21
929.0
 31
0.0
  0
LINE
 62
7
  8
0
 10
-425.0
 20
904.0
 30
0.0
 11
-397.0
 21
917.0
 31
0.0
  0
LINE
 62
7
  8
0
 10
-453.0
 20
891.0
 30
0.0
 11
-425.0
 21
904.0
 31
0.0
  0
LINE
 62
7
  8
0
 10
-481.0
 20
876.0
 30
0.0
 11
-453.0
 21
891.0
 31
0.0
  0
LINE
 62
7
  8
0
 10
-509.0
 20
860.0
 30
0.0
 11
-481.0
 21
876.0
 31
0.0
  0
LINE
 62
7
  8
0
 10
-535.0
 20
844.0
 30
0.0
 11
-509.0
 21
860.0
 31
0.0
  0
LINE
 62
7
  8
0
 10
-562.0
 20
827.0
 30
0.0
 11
-535.0
 21
844.0
 31
0.0
  0
LINE
 62
7
  8
0
 10
-587.0
 20
809.0
 30
0.0
 11
-562.0
 21
827.0
 31
0.0
  0
LINE
 62
7
  8
0
 10
-612.0
 20
790.0
 30
0.0
 11
-587.0
 21
809.0
 31
0.0
  0
LINE
 62
7
  8
0
 10
-637.0
 20
770.0
 30
0.0
 11
-612.0
 21
790.0
 31
0.0
  0
LINE
 62
7
  8
0
 10
-661.0
 20
750.0
 30
0.0
 11
-637.0
 21
770.0
 31
0.0
  0
LINE
 62
7
  8
0
 10
-684.0
 20
728.0
 30
0.0
 11
-661.0
 21
750.0
 31
0.0
  0
LINE
 62
7
  8
0
 10
-707.0
 20
707.0
 30
0.0
 11
-684.0
 21
728.0
 31
0.0
  0
LINE
 62
7
  8
0
 10
-728.0
 20
684.0
 30
0.0
 11
-707.0
 21
707.0
 31
0.0
  0
LINE
 62
7
  8
0
 10
-750.0
 20
661.0
 30
0.0
 11
-728.0
 21
684.0
 31
0.0
  0
LINE
 62
7
  8
0
 10
-770.0
 20
637.0
 30
0.0
 11
-750.0
 21
661.0
 31
0.0
  0
LINE
 62
7
  8
0
 10
-790.0
 20
612.0
 30
0.0
 11
-770.0
 21
637.0
 31
0.0
  0
LINE
 62
7
  8
0
 10
-809.0
 20
587.0
 30
0.0
 11
-790.0
 21
612.0
 31
0.0
  0
LINE
 62
7
  8
0
 10
-827.0
 20
562.0
 30
0.0
 11
-809.0
 21
587.0
 31
0.0
  0
LINE
 62
7
  8
0
 10
-844.0
 20
535.0
 30
0.0
 11
-827.0
 21
562.0
 31
0.0
  0
LINE
 62
7
  8
0
 10
-860.0
 20
509.0
 30
0.0
 11
-844.0
 21
535.0
 31
0.0
  0
LINE
 62
7
  8
0
 10
-876.0
 20
481.0
 30
0.0
 11
-860.0
 21
509.0
 31
0.0
  0
LINE
 62
7
  8
0
 10
-891.0
 20
453.0
 30
0.0
 11
-876.0
 21
481.0
 31
0.0
  0
LINE
 62
7
  8
0
 10
-904.0
 20
425.0
 30
0.0
 11
-891.0
 21
453.0
 31
0.0
  0
LINE
 62
7
  8
0
 10
-917.0
 20
397.0
 30
0.0
 11
-904.0
 21
425.0
 31
0.0
  0
LINE
 62
7
  8
0
 10
-929.0
 20
368.0
 30
0.0
 11
-917.0
 21
397.0
 31
0.0
  0
LINE
 62
7
  8
0
 10
-940.0
 20
338.0
 30
0.0
 11
-929.0
 21
368.0
 31
0.0
  0
LINE
 62
7
  8
0
 10
-951.0
 20
309.0
 30
0.0
 11
-940.0
 21
338.0
 31
0.0
  0
LINE
 62
7
  8
0
 10
-960.0
 20
278.0
 30
0.0
 11
-951.0
 21
309.0
 31
0.0
  0
LINE
 62
7
  8
0
 10
-968.0
 20
248.0
 30
0.0
 11
-960.0
 21
278.0
 31
0.0
  0
LINE
 62
7
  8
0
 10
-975.0
 20
218.0
 30
0.0
 11
-968.0
 21
248.0
 31
0.0
  0
LINE
 62
7
  8
0
 10
-982.0
 20
187.0
 30
0.0
 11
-975.0
 21
218.0
 31
0.0
  0
LINE
 62
7
  8
0
 10
-987.0
 20
156.0
 30
0.0
 11
-982.0
 21
187.0
 31
0.0
  0
LINE
 62
7
  8
0
 10
-992.0
 20
125.0
 30
0.0
 11
-987.0
 21
156.0
 31
0.0
  0
LINE
 62
7
  8
0
 10
-995.0
 20
94.0
 30
0.0
 11
-992.0
 21
125.0
 31
0.0
  0
LINE
 62
7
  8
0
 10
-998.0
 20
62.0
 30
0.0
 11
-995.0
 21
94.0
 31
0.0
  0
LINE
 62
7
  8
0
 10
-999.0
 20
31.0
 30
0.0
 11
-998.0
 21
62.0
 31
0.0
  0
LINE
 62
7
  8
0
 10
-1000.0
 20
0.0
 30
0.0
 11
-999.0
 21
31.0
 31
0.0
  0
LINE
 62
7
  8
0
 10
-999.0
 20
-31.0
 30
0.0
 11
-1000.0
 21
0.0
 31
0.0
  0
LINE
 62
7
  8
0
 10
-998.0
 20
-62.0
 30
0.0
 11
-999.0
 21
-31.0
 31
0.0
  0
LINE
 62
7
  8
0
 10
-995.0
 20
-94.0
 30
0.0
 11
-998.0
 21
-62.0
 31
0.0
  0
LINE
 62
7
  8
0
 10
-992.0
 20
-125.0
 30
0.0
 11
-995.0
 21
-94.0
 31
0.0
  0
LINE
 62
7
  8
0
 10
-987.0
 20
-156.0
 30
0.0
 11
-992.0
 21
-125.0
 31
0.0
  0
LINE
 62
7
  8
0
 10
-982.0
 20
-187.0
 30
0.0
 11
-987.0
 21
-156.0
 31
0.0
  0
LINE
 62
7
  8
0
 10
-975.0
 20
-218.0
 30
0.0
 11
-982.0
 21
-187.0
 31
0.0
  0
LINE
 62
7
  8
0
 10
-968.0
 20
-248.0
 30
0.0
 11
-975.0
 21
-218.0
 31
0.0
  0
LINE
 62
7
  8
0
 10
-960.0
 20
-278.0
 30
0.0
 11
-968.0
 21
-248.0
 31
0.0
  0
LINE
 62
7
  8
0
 10
-951.0
 20
-309.0
 30
0.0
 11
-960.0
 21
-278.0
 31
0.0
  0
LINE
 62
7
  8
0
 10
-940.0
 20
-338.0
 30
0.0
 11
-951.0
 21
-309.0
 31
0.0
  0
LINE
 62
7
  8
0
 10
-929.0
 20
-368.0
 30
0.0
 11
-940.0
 21
-338.0
 31
0.0
  0
LINE
 62
7
  8
0
 10
-917.0
 20
-397.0
 30
0.0
 11
-929.0
 21
-368.0
 31
0.0
  0
LINE
 62
7
  8
0
 10
-904.0
 20
-425.0
 30
0.0
 11
-917.0
 21
-397.0
 31
0.0
  0
LINE
 62
7
  8
0
 10
-891.0
 20
-453.0
 30
0.0
 11
-904.0
 21
-425.0
 31
0.0
  0
LINE
 62
7
  8
0
 10
-876.0
 20
-481.0
 30
0.0
 11
-891.0
 21
-453.0
 31
0.0
  0
LINE
 62
7
  8
0
 10
-860.0
 20
-509.0
 30
0.0
 11
-876.0
 21
-481.0
 31
0.0
  0
LINE
 62
7
  8
0
 10
-844.0
 20
-535.0
 30
0.0
 11
-860.0
 21
-509.0
 31
0.0
  0
LINE
 62
7
  8
0
 10
-827.0
 20
-562.0
 30
0.0
 11
-844.0
 21
-535.0
 31
0.0
  0
LINE
 62
7
  8
0
 10
-809.0
 20
-587.0
 30
0.0
 11
-827.0
 21
-562.0
 31
0.0
  0
LINE
 62
7
  8
0
 10
-790.0
 20
-612.0
 30
0.0
 11
-809.0
 21
-587.0
 31
0.0
  0
LINE
 62
7
  8
0
 10
-770.0
 20
-637.0
 30
0.0
 11
-790.0
 21
-612.0
 31
0.0
  0
LINE
 62
7
  8
0
 10
-750.0
 20
-661.0
 30
0.0
 11
-770.0
 21
-637.0
 31
0.0
  0
LINE
 62
7
  8
0
 10
-728.0
 20
-684.0
 30
0.0
 11
-750.0
 21
-661.0
 31
0.0
  0
LINE
 62
7
  8
0
 10
-707.0
 20
-707.0
 30
0.0
 11
-728.0
 21
-684.0
 31
0.0
  0
LINE
 62
7
  8
0
 10
-684.0
 20
-728.0
 30
0.0
 11
-707.0
 21
-707.0
 31
0.0
  0
LINE
 62
7
  8
0
 10
-661.0
 20
-750.0
 30
0.0
 11
-684.0
 21
-728.0
 31
0.0
  0
LINE
 62
7
  8
0
 10
-637.0
 20
-770.0
 30
0.0
 11
-661.0
 21
-750.0
 31
0.0
  0
LINE
 62
7
  8
0
 10
-612.0
 20
-790.0
 30
0.0
 11
-637.0
 21
-770.0
 31
0.0
  0
LINE
 62
7
  8
0
 10
-587.0
 20
-809.0
 30
0.0
 11
-612.0
 21
-790.0
 31
0.0
  0
LINE
 62
7
  8
0
 10
-562.0
 20
-827.0
 30
0.0
 11
-587.0
 21
-809.0
 31
0.0
  0
LINE
 62
7
  8
0
 10
-535.0
 20
-844.0
 30
0.0
 11
-562.0
 21
-827.0
 31
0.0
  0
LINE
 62
7
  8
0
 10
-509.0
 20
-860.0
 30
0.0
 11
-535.0
 21
-844.0
 31
0.0
  0
LINE
 62
7
  8
0
 10
-481.0
 20
-876.0
 30
0.0
 11
-509.0
 21
-860.0
 31
0.0
  0
LINE
 62
7
  8
0
 10
-453.0
 20
-891.0
 30
0.0
 11
-481.0
 21
-876.0
 31
0.0
  0
LINE
 62
7
  8
0
 10
-425.0
 20
-904.0
 30
0.0
 11
-453.0
 21
-891.0
 31
0.0
  0
LINE
 62
7
  8
0
 10
-397.0
 20
-917.0
 30
0.0
 11
-425.0
 21
-904.0
 31
0.0
  0
LINE
 62
7
  8
0
 10
-368.0
 20
-929.0
 30
0.0
 11
-397.0
 21
-917.0
 31
0.0
  0
LINE
 62
7
  8
0
 10
-338.0
 20
-940.0
 30
0.0
 11
-368.0
 21
-929.0
 31
0.0
  0
LINE
 62
7
  8
0
 10
-309.0
 20
-951.0
 30
0.0
 11
-338.0
 21
-940.0
 31
0.0
  0
LINE
 62
7
  8
0
 10
-278.0
 20
-960.0
 30
0.0
 11
-309.0
 21
-951.0
 31
0.0
  0
LINE
 62
7
  8
0
 10
-248.0
 20
-968.0
 30
0.0
 11
-278.0
 21
-960.0
 31
0.0
  0
LINE
 62
7
  8
0
 10
-218.0
 20
-975.0
 30
0.0
 11
-248.0
 21
-968.0
 31
0.0
  0
LINE
 62
7
  8
0
 10
-187.0
 20
-982.0
 30
0.0
 11
-218.0
 21
-975.0
 31
0.0
  0
LINE
 62
7
  8
0
 10
-156.0
 20
-987.0
 30
0.0
 11
-187.0
 21
-982.0
 31
0.0
  0
LINE
 62
7
  8
0
 10
-125.0
 20
-992.0
 30
0.0
 11
-156.0
 21
-987.0
 31
0.0
  0
LINE
 62
7
  8
0
 10
-94.0
 20
-995.0
 30
0.0
 11
-125.0
 21
-992.0
 31
0.0
  0
LINE
 62
7
  8
0
 10
-62.0
 20
-998.0
 30
0.0
 11
-94.0
 21
-995.0
 31
0.0
  0
LINE
 62
7
  8
0
 10
-31.0
 20
-999.0
 30
0.0
 11
-62.0
 21
-998.0
 31
0.0
  0
LINE
 62
7
  8
0
 10
0.0
 20
-1000.0
 30
0.0
 11
-31.0
 21
-999.0
 31
0.0
  0
LINE
 62
7
  8
0
 10
31.0
 20
-999.0
 30
0.0
 11
0.0
 21
-1000.0
 31
0.0
  0
LINE
 62
7
  8
0
 10
62.0
 20
-998.0
 30
0.0
 11
31.0
 21
-999.0
 31
0.0
  0
LINE
 62
7
  8
0
 10
94.0
 20
-995.0
 30
0.0
 11
62.0
 21
-998.0
 31
0.0
  0
LINE
 62
7
  8
0
 10
125.0
 20
-992.0
 30
0.0
 11
94.0
 21
-995.0
 31
0.0
  0
LINE
 62
7
  8
0
 10
156.0
 20
-987.0
 30
0.0
 11
125.0
 21
-992.0
 31
0.0
  0
LINE
 62
7
  8
0
 10
187.0
 20
-982.0
 30
0.0
 11
156.0
 21
-987.0
 31
0.0
  0
LINE
 62
7
  8
0
 10
218.0
 20
-975.0
 30
0.0
 11
187.0
 21
-982.0
 31
0.0
  0
LINE
 62
7
  8
0
 10
248.0
 20
-968.0
 30
0.0
 11
218.0
 21
-975.0
 31
0.0
  0
LINE
 62
7
  8
0
 10
278.0
 20
-960.0
 30
0.0
 11
248.0
 21
-968.0
 31
0.0
  0
LINE
 62
7
  8
0
 10
309.0
 20
-951.0
 30
0.0
 11
278.0
 21
-960.0
 31
0.0
  0
LINE
 62
7
  8
0
 10
338.0
 20
-940.0
 30
0.0
 11
309.0
 21
-951.0
 31
0.0
  0
LINE
 62
7
  8
0
 10
368.0
 20
-929.0
 30
0.0
 11
338.0
 21
-940.0
 31
0.0
  0
LINE
 62
7
  8
0
 10
397.0
 20
-917.0
 30
0.0
 11
368.0
 21
-929.0
 31
0.0
  0
LINE
 62
7
  8
0
 10
425.0
 20
-904.0
 30
0.0
 11
397.0
 21
-917.0
 31
0.0
  0
LINE
 62
7
  8
0
 10
453.0
 20
-891.0
 30
0.0
 11
425.0
 21
-904.0
 31
0.0
  0
LINE
 62
7
  8
0
 10
481.0
 20
-876.0
 30
0.0
 11
453.0
 21
-891.0
 31
0.0
  0
LINE
 62
7
  8
0
 10
509.0
 20
-860.0
 30
0.0
 11
481.0
 21
-876.0
 31
0.0
  0
LINE
 62
7
  8
0
 10
535.0
 20
-844.0
 30
0.0
 11
509.0
 21
-860.0
 31
0.0
  0
LINE
 62
7
  8
0
 10
562.0
 20
-827.0
 30
0.0
 11
535.0
 21
-844.0
 31
0.0
  0
LINE
 62
7
  8
0
 10
587.0
 20
-809.0
 30
0.0
 11
562.0
 21
-827.0
 31
0.0
  0
LINE
 62
7
  8
0
 10
612.0
 20
-790.0
 30
0.0
 11
587.0
 21
-809.0
 31
0.0
  0
LINE
 62
7
  8
0
 10
637.0
 20
-770.0
 30
0.0
 11
612.0
 21
-790.0
 31
0.0
  0
LINE
 62
7
  8
0
 10
661.0
 20
-750.0
 30
0.0
 11
637.0
 21
-770.0
 31
0.0
  0
LINE
 62
7
  8
0
 10
684.0
 20
-728.0
 30
0.0
 11
661.0
 21
-750.0
 31
0.0
  0
LINE
 62
7
  8
0
 10
707.0
 20
-707.0
 30
0.0
 11
684.0
 21
-728.0
 31
0.0
  0
LINE
 62
7
  8
0
 10
728.0
 20
-684.0
 30
0.0
 11
707.0
 21
-707.0
 31
0.0
  0
LINE
 62
7
  8
0
 10
750.0
 20
-661.0
 30
0.0
 11
728.0
 21
-684.0
 31
0.0
  0
LINE
 62
7
  8
0
 10
770.0
 20
-637.0
 30
0.0
 11
750.0
 21
-661.0
 31
0.0
  0
LINE
 62
7
  8
0
 10
790.0
 20
-612.0
 30
0.0
 11
770.0
 21
-637.0
 31
0.0
  0
LINE
 62
7
  8
0
 10
809.0
 20
-587.0
 30
0.0
 11
790.0
 21
-612.0
 31
0.0
  0
LINE
 62
7
  8
0
 10
827.0
 20
-562.0
 30
0.0
 11
809.0
 21
-587.0
 31
0.0
  0
LINE
 62
7
  8
0
 10
844.0
 20
-535.0
 30
0.0
 11
827.0
 21
-562.0
 31
0.0
  0
LINE
 62
7
  8
0
 10
860.0
 20
-509.0
 30
0.0
 11
844.0
 21
-535.0
 31
0.0
  0
LINE
 62
7
  8
0
 10
876.0
 20
-481.0
 30
0.0
 11
860.0
 21
-509.0
 31
0.0
  0
LINE
 62
7
  8
0
 10
891.0
 20
-453.0
 30
0.0
 11
876.0
 21
-481.0
 31
0.0
  0
LINE
 62
7
  8
0
 10
904.0
 20
-425.0
 30
0.0
 11
891.0
 21
-453.0
 31
0.0
  0
LINE
 62
7
  8
0
 10
917.0
 20
-397.0
 30
0.0
 11
904.0
 21
-425.0
 31
0.0
  0
LINE
 62
7
  8
0
 10
929.0
 20
-368.0
 30
0.0
 11
917.0
 21
-397.0
 31
0.0
  0
LINE
 62
7
  8
0
 10
940.0
 20
-338.0
 30
0.0
 11
929.0
 21
-368.0
 31
0.0
  0
LINE
 62
7
  8
0
 10
951.0
 20
-309.0
 30
0.0
 11
940.0
 21
-338.0
 31
0.0
  0
LINE
 62
7
  8
0
 10
960.0
 20
-278.0
 30
0.0
 11
951.0
 21
-309.0
 31
0.0
  0
LINE
 62
7
  8
0
 10
968.0
 20
-248.0
 30
0.0
 11
960.0
 21
-278.0
 31
0.0
  0
LINE
 62
7
  8
0
 10
975.0
 20
-218.0
 30
0.0
 11
968.0
 21
-248.0
 31
0.0
  0
LINE
 62
7
  8
0
 10
982.0
 20
-187.0
 30
0.0
 11
975.0
 21
-218.0
 31
0.0
  0
LINE
 62
7
  8
0
 10
987.0
 20
-156.0
 30
0.0
 11
982.0
 21
-187.0
 31
0.0
  0
LINE
 62
7
  8
0
 10
992.0
 20
-125.0
 30
0.0
 11
987.0
 21
-156.0
 31
0.0
  0
LINE
 62
7
  8
0
 10
995.0
 20
-94.0
 30
0.0
 11
992.0
 21
-125.0
 31
0.0
  0
LINE
 62
7
  8
0
 10
998.0
 20
-62.0
 30
0.0
 11
995.0
 21
-94.0
 31
0.0
  0
LINE
 62
7
  8
0
 10
999.0
 20
-31.0
 30
0.0
 11
998.0
 21
-62.0
 31
0.0
  0
LINE
 62
7
  8
0
 10
1000.0
 20
0.0
 30
0.0
 11
999.0
 21
-31.0
 31
0.0
  0
LINE
 62
7
  8
0
 10
999.0
 20
31.0
 30
0.0
 11
1000.0
 21
0.0
 31
0.0
  0
LINE
 62
7
  8
0
 10
998.0
 20
62.0
 30
0.0
 11
999.0
 21
31.0
 31
0.0
  0
LINE
 62
7
  8
0
 10
995.0
 20
94.0
 30
0.0
 11
998.0
 21
62.0
 31
0.0
  0
LINE
 62
7
  8
0
 10
992.0
 20
125.0
 30
0.0
 11
995.0
 21
94.0
 31
0.0
  0
LINE
 62
7
  8
0
 10
987.0
 20
156.0
 30
0.0
 11
992.0
 21
125.0
 31
0.0
  0
LINE
 62
7
  8
0
 10
982.0
 20
187.0
 30
0.0
 11
987.0
 21
156.0
 31
0.0
  0
LINE
 62
7
  8
0
 10
975.0
 20
218.0
 30
0.0
 11
982.0
 21
187.0
 31
0.0
  0
LINE
 62
7
  8
0
 10
968.0
 20
248.0
 30
0.0
 11
975.0
 21
218.0
 31
0.0
  0
LINE
 62
7
  8
0
 10
960.0
 20
278.0
 30
0.0
 11
968.0
 21
248.0
 31
0.0
  0
LINE
 62
7
  8
0
 10
951.0
 20
309.0
 30
0.0
 11
960.0
 21
278.0
 31
0.0
  0
LINE
 62
7
  8
0
 10
940.0
 20
338.0
 30
0.0
 11
951.0
 21
309.0
 31
0.0
  0
LINE
 62
7
  8
0
 10
929.0
 20
368.0
 30
0.0
 11
940.0
 21
338.0
 31
0.0
  0
LINE
 62
7
  8
0
 10
917.0
 20
397.0
 30
0.0
 11
929.0
 21
368.0
 31
0.0
  0
LINE
 62
7
  8
0
 10
904.0
 20
425.0
 30
0.0
 11
917.0
 21
397.0
 31
0.0
  0
LINE
 62
7
  8
0
 10
891.0
 20
453.0
 30
0.0
 11
904.0
 21
425.0
 31
0.0
  0
LINE
 62
7
  8
0
 10
876.0
 20
481.0
 30
0.0
 11
891.0
 21
453.0
 31
0.0
  0
LINE
 62
7
  8
0
 10
860.0
 20
509.0
 30
0.0
 11
876.0
 21
481.0
 31
0.0
  0
LINE
 62
7
  8
0
 10
844.0
 20
535.0
 30
0.0
 11
860.0
 21
509.0
 31
0.0
  0
LINE
 62
7
  8
0
 10
827.0
 20
562.0
 30
0.0
 11
844.0
 21
535.0
 31
0.0
  0
LINE
 62
7
  8
0
 10
809.0
 20
587.0
 30
0.0
 11
827.0
 21
562.0
 31
0.0
  0
LINE
 62
7
  8
0
 10
790.0
 20
612.0
 30
0.0
 11
809.0
 21
587.0
 31
0.0
  0
LINE
 62
7
  8
0
 10
770.0
 20
637.0
 30
0.0
 11
790.0
 21
612.0
 31
0.0
  0
LINE
 62
7
  8
0
 10
750.0
 20
661.0
 30
0.0
 11
770.0
 21
637.0
 31
0.0
  0
LINE
 62
7
  8
0
 10
728.0
 20
684.0
 30
0.0
 11
750.0
 21
661.0
 31
0.0
  0
LINE
 62
7
  8
0
 10
707.0
 20
707.0
 30
0.0
 11
728.0
 21
684.0
 31
0.0
  0
LINE
 62
7
  8
0
 10
684.0
 20
728.0
 30
0.0
 11
707.0
 21
707.0
 31
0.0
  0
LINE
 62
7
  8
0
 10
661.0
 20
750.0
 30
0.0
 11
684.0
 21
728.0
 31
0.0
  0
LINE
 62
7
  8
0
 10
637.0
 20
770.0
 30
0.0
 11
661.0
 21
750.0
 31
0.0
  0
LINE
 62
7
  8
0
 10
612.0
 20
790.0
 30
0.0
 11
637.0
 21
770.0
 31
0.0
  0
LINE
 62
7
  8
0
 10
587.0
 20
809.0
 30
0.0
 11
612.0
 21
790.0
 31
0.0
  0
LINE
 62
7
  8
0
 10
562.0
 20
827.0
 30
0.0
 11
587.0
 21
809.0
 31
0.0
  0
LINE
 62
7
  8
0
 10
535.0
 20
844.0
 30
0.0
 11
562.0
 21
827.0
 31
0.0
  0
LINE
 62
7
  8
0
 10
509.0
 20
860.0
 30
0.0
 11
535.0
 21
844.0
 31
0.0
  0
LINE
 62
7
  8
0
 10
481.0
 20
876.0
 30
0.0
 11
509.0
 21
860.0
 31
0.0
  0
LINE
 62
7
  8
0
 10
453.0
 20
891.0
 30
0.0
 11
481.0
 21
876.0
 31
0.0
  0
LINE
 62
7
  8
0
 10
425.0
 20
904.0
 30
0.0
 11
453.0
 21
891.0
 31
0.0
  0
LINE
 62
7
  8
0
 10
397.0
 20
917.0
 30
0.0
 11
425.0
 21
904.0
 31
0.0
  0
LINE
 62
7
  8
0
 10
368.0
 20
929.0
 30
0.0
 11
397.0
 21
917.0
 31
0.0
  0
LINE
 62
7
  8
0
 10
338.0
 20
940.0
 30
0.0
 11
368.0
 21
929.0
 31
0.0
  0
LINE
 62
7
  8
0
 10
309.0
 20
951.0
 30
0.0
 11
338.0
 21
940.0
 31
0.0
  0
LINE
 62
7
  8
0
 10
278.0
 20
960.0
 30
0.0
 11
309.0
 21
951.0
 31
0.0
  0
LINE
 62
7
  8
0
 10
248.0
 20
968.0
 30
0.0
 11
278.0
 21
960.0
 31
0.0
  0
LINE
 62
7
  8
0
 10
218.0
 20
975.0
 30
0.0
 11
248.0
 21
968.0
 31
0.0
  0
LINE
 62
7
  8
0
 10
187.0
 20
982.0
 30
0.0
 11
218.0
 21
975.0
 31
0.0
  0
LINE
 62
7
  8
0
 10
156.0
 20
987.0
 30
0.0
 11
187.0
 21
982.0
 31
0.0
  0
LINE
 62
7
  8
0
 10
125.0
 20
992.0
 30
0.0
 11
156.0
 21
987.0
 31
0.0
  0
LINE
 62
7
  8
0
 10
94.0
 20
995.0
 30
0.0
 11
125.0
 21
992.0
 31
0.0
  0
LINE
 62
7
  8
0
 10
62.0
 20
998.0
 30
0.0
 11
94.0
 21
995.0
 31
0.0
  0
LINE
 62
7
  8
0
 10
31.0
 20
999.0
 30
0.0
 11
62.0
 21
998.0
 31
0.0
  0
LINE
 62
7
  8
0
 10
999.0
 20
1000.0
 30
0.0
 11
31.0
 21
999.0
 31
0.0
  0
LINE
 62
7
  8
0
 10
968.0
 20
999.0
 30
0.0
 11
999.0
 21
1000.0
 31
0.0
  0
LINE
 62
7
  8
0
 10
937.0
 20
998.0
 30
0.0
 11
968.0
 21
999.0
 31
0.0
  0
LINE
 62
7
  8
0
 10
905.0
 20
995.0
 30
0.0
 11
937.0
 21
998.0
 31
0.0
  0
LINE
 62
7
  8
0
 10
874.0
 20
992.0
 30
0.0
 11
905.0
 21
995.0
 31
0.0
  0
LINE
 62
7
  8
0
 10
843.0
 20
987.0
 30
0.0
 11
874.0
 21
992.0
 31
0.0
  0
LINE
 62
7
  8
0
 10
812.0
 20
982.0
 30
0.0
 11
843.0
 21
987.0
 31
0.0
  0
LINE
 62
7
  8
0
 10
781.0
 20
975.0
 30
0.0
 11
812.0
 21
982.0
 31
0.0
  0
LINE
 62
7
  8
0
 10
751.0
 20
968.0
 30
0.0
 11
781.0
 21
975.0
 31
0.0
  0
LINE
 62
7
  8
0
 10
721.0
 20
960.0
 30
0.0
 11
751.0
 21
968.0
 31
0.0
  0
LINE
 62
7
  8
0
 10
690.0
 20
951.0
 30
0.0
 11
721.0
 21
960.0
 31
0.0
  0
LINE
 62
7
  8
0
 10
661.0
 20
940.0
 30
0.0
 11
690.0
 21
951.0
 31
0.0
  0
LINE
 62
7
  8
0
 10
631.0
 20
929.0
 30
0.0
 11
661.0
 21
940.0
 31
0.0
  0
LINE
 62
7
  8
0
 10
602.0
 20
917.0
 30
0.0
 11
631.0
 21
929.0
 31
0.0
  0
LINE
 62
7
  8
0
 10
574.0
 20
904.0
 30
0.0
 11
602.0
 21
917.0
 31
0.0
  0
LINE
 62
7
  8
0
 10
546.0
 20
891.0
 30
0.0
 11
574.0
 21
904.0
 31
0.0
  0
LINE
 62
7
  8
0
 10
518.0
 20
876.0
 30
0.0
 11
546.0
 21
891.0
 31
0.0
  0
LINE
 62
7
  8
0
 10
490.0
 20
860.0
 30
0.0
 11
518.0
 21
876.0
 31
0.0
  0
LINE
 62
7
  8
0
 10
464.0
 20
844.0
 30
0.0
 11
490.0
 21
860.0
 31
0.0
  0
LINE
 62
7
  8
0
 10
437.0
 20
827.0
 30
0.0
 11
464.0
 21
844.0
 31
0.0
  0
LINE
 62
7
  8
0
 10
412.0
 20
809.0
 30
0.0
 11
437.0
 21
827.0
 31
0.0
  0
LINE
 62
7
  8
0
 10
387.0
 20
790.0
 30
0.0
 11
412.0
 21
809.0
 31
0.0
  0
LINE
 62
7
  8
0
 10
362.0
 20
770.0
 30
0.0
 11
387.0
 21
790.0
 31
0.0
  0
LINE
 62
7
  8
0
 10
338.0
 20
750.0
 30
0.0
 11
362.0
 21
770.0
 31
0.0
  0
LINE
 62
7
  8
0
 10
315.0
 20
728.0
 30
0.0
 11
338.0
 21
750.0
 31
0.0
  0
LINE
 62
7
  8
0
 10
292.0
 20
707.0
 30
0.0
 11
315.0
 21
728.0
 31
0.0
  0
LINE
 62
7
  8
0
 10
271.0
 20
684.0
 30
0.0
 11
292.0
 21
707.0
 31
0.0
  0
LINE
 62
7
  8
0
 10
249.0
 20
661.0
 30
0.0
 11
271.0
 21
684.0
 31
0.0
  0
LINE
 62
7
  8
0
 10
229.0
 20
637.0
 30
0.0
 11
249.0
 21
661.0
 31
0.0
  0
LINE
 62
7
  8
0
 10
209.0
 20
612.0
 30
0.0
 11
229.0
 21
637.0
 31
0.0
  0
LINE
 62
7
  8
0
 10
190.0
 20
587.0
 30
0.0
 11
209.0
 21
612.0
 31
0.0
  0
LINE
 62
7
  8
0
 10
172.0
 20
562.0
 30
0.0
 11
190.0
 21
587.0
 31
0.0
  0
LINE
 62
7
  8
0
 10
155.0
 20
535.0
 30
0.0
 11
172.0
 21
562.0
 31
0.0
  0
LINE
 62
7
  8
0
 10
139.0
 20
509.0
 30
0.0
 11
155.0
 21
535.0
 31
0.0
  0
LINE
 62
7
  8
0
 10
123.0
 20
481.0
 30
0.0
 11
139.0
 21
509.0
 31
0.0
  0
LINE
 62
7
  8
0
 10
108.0
 20
453.0
 30
0.0
 11
123.0
 21
481.0
 31
0.0
  0
LINE
 62
7
  8
0
 10
95.0
 20
425.0
 30
0.0
 11
108.0
 21
453.0
 31
0.0
  0
LINE
 62
7
  8
0
 10
82.0
 20
397.0
 30
0.0
 11
95.0
 21
425.0
 31
0.0
  0
LINE
 62
7
  8
0
 10
70.0
 20
368.0
 30
0.0
 11
82.0
 21
397.0
 31
0.0
  0
LINE
 62
7
  8
0
 10
59.0
 20
338.0
 30
0.0
 11
70.0
 21
368.0
 31
0.0
  0
LINE
 62
7
  8
0
 10
48.0
 20
309.0
 30
0.0
 11
59.0
 21
338.0
 31
0.0
  0
LINE
 62
7
  8
0
 10
39.0
 20
278.0
 30
0.0
 11
48.0
 21
309.0
 31
0.0
  0
LINE
 62
7
  8
0
 10
31.0
 20
248.0
 30
0.0
 11
39.0
 21
278.0
 31
0.0
  0
LINE
 62
7
  8
0
 10
24.0
 20
218.0
 30
0.0
 11
31.0
 21
248.0
 31
0.0
  0
LINE
 62
7
  8
0
 10
17.0
 20
187.0
 30
0.0
 11
24.0
 21
218.0
 31
0.0
  0
LINE
 62
7
  8
0
 10
12.0
 20
156.0
 30
0.0
 11
17.0
 21
187.0
 31
0.0
  0
LINE
 62
7
  8
0
 10
7.0
 20
125.0
 30
0.0
 11
12.0
 21
156.0
 31
0.0
  0
LINE
 62
7
  8
0
 10
4.0
 20
94.0
 30
0.0
 11
7.0
 21
125.0
 31
0.0
  0
LINE
 62
7
  8
0
 10
1.0
 20
62.0
 30
0.0
 11
4.0
 21
94.0
 31
0.0
  0
LINE
 62
7
  8
0
 10
0.0
 20
31.0
 30
0.0
 11
1.0
 21
62.0
 31
0.0
  0
LINE
 62
7
  8
0
 10
0.0
 20
0.0
 30
0.0
 11
0.0
 21
31.0
 31
0.0
  0
LINE
 62
7
  8
0
 10
0.0
 20
-31.0
 30
0.0
 11
0.0
 21
0.0
 31
0.0
  0
LINE
 62
7
  8
0
 10
1.0
 20
-62.0
 30
0.0
 11
0.0
 21
-31.0
 31
0.0
  0
LINE
 62
7
  8
0
 10
4.0
 20
-94.0
 30
0.0
 11
1.0
 21
-62.0
 31
0.0
  0
LINE
 62
7
  8
0
 10
7.0
 20
-125.0
 30
0.0
 11
4.0
 21
-94.0
 31
0.0
  0
LINE
 62
7
  8
0
 10
12.0
 20
-156.0
 30
0.0
 11
7.0
 21
-125.0
 31
0.0
  0
LINE
 62
7
  8
0
 10
17.0
 20
-187.0
 30
0.0
 11
12.0
 21
-156.0
 31
0.0
  0
LINE
 62
7
  8
0
 10
24.0
 20
-218.0
 30
0.0
 11
17.0
 21
-187.0
 31
0.0
  0
LINE
 62
7
  8
0
 10
31.0
 20
-248.0
 30
0.0
 11
24.0
 21
-218.0
 31
0.0
  0
LINE
 62
7
  8
0
 10
39.0
 20
-278.0
 30
0.0
 11
31.0
 21
-248.0
 31
0.0
  0
LINE
 62
7
  8
0
 10
48.0
 20
-309.0
 30
0.0
 11
39.0
 21
-278.0
 31
0.0
  0
LINE
 62
7
  8
0
 10
59.0
 20
-338.0
 30
0.0
 11
48.0
 21
-309.0
 31
0.0
  0
LINE
 62
7
  8
0
 10
70.0
 20
-368.0
 30
0.0
 11
59.0
 21
-338.0
 31
0.0
  0
LINE
 62
7
  8
0
 10
82.0
 20
-397.0
 30
0.0
 11
70.0
 21
-368.0
 31
0.0
  0
LINE
 62
7
  8
0
 10
95.0
 20
-425.0
 30
0.0
 11
82.0
 21
-397.0
 31
0.0
  0
LINE
 62
7
  8
0
 10
108.0
 20
-453.0
 30
0.0
 11
95.0
 21
-425.0
 31
0.0
  0
LINE
 62
7
  8
0
 10
123.0
 20
-481.0
 30
0.0
 11
108.0
 21
-453.0
 31
0.0
  0
LINE
 62
7
  8
0
 10
139.0
 20
-509.0
 30
0.0
 11
123.0
 21
-481.0
 31
0.0
  0
LINE
 62
7
  8
0
 10
155.0
 20
-535.0
 30
0.0
 11
139.0
 21
-509.0
 31
0.0
  0
LINE
 62
7
  8
0
 10
172.0
 20
-562.0
 30
0.0
 11
155.0
 21
-535.0
 31
0.0
  0
LINE
 62
7
  8
0
 10
190.0
 20
-587.0
 30
0.0
 11
172.0
 21
-562.0
 31
0.0
  0
LINE
 62
7
  8
0
 10
209.0
 20
-612.0
 30
0.0
 11
190.0
 21
-587.0
 31
0.0
  0
LINE
 62
7
  8
0
 10
229.0
 20
-637.0
 30
0.0
 11
209.0
 21
-612.0
 31
0.0
  0
LINE
 62
7
  8
0
 10
249.0
 20
-661.0
 30
0.0
 11
229.0
 21
-637.0
 31
0.0
  0
LINE
 62
7
  8
0
 10
271.0
 20
-684.0
 30
0.0
 11
249.0
 21
-661.0
 31
0.0
  0
LINE
 62
7
  8
0
 10
292.0
 20
-707.0
 30
0.0
 11
271.0
 21
-684.0
 31
0.0
  0
LINE
 62
7
  8
0
 10
315.0
 20
-728.0
 30
0.0
 11
292.0
 21
-707.0
 31
0.0
  0
LINE
 62
7
  8
0
 10
338.0
 20
-750.0
 30
0.0
 11
315.0
 21
-728.0
 31
0.0
  0
LINE
 62
7
  8
0
 10
362.0
 20
-770.0
 30
0.0
 11
338.0
 21
-750.0
 31
0.0
  0
LINE
 62
7
  8
0
 10
387.0
 20
-790.0
 30
0.0
 11
362.0
 21
-770.0
 31
0.0
  0
LINE
 62
7
  8
0
 10
412.0
 20
-809.0
 30
0.0
 11
387.0
 21
-790.0
 31
0.0
  0
LINE
 62
7
  8
0
 10
437.0
 20
-827.0
 30
0.0
 11
412.0
 21
-809.0
 31
0.0
  0
LINE
 62
7
  8
0
 10
464.0
 20
-844.0
 30
0.0
 11
437.0
 21
-827.0
 31
0.0
  0
LINE
 62
7
  8
0
 10
490.0
 20
-860.0
 30
0.0
 11
464.0
 21
-844.0
 31
0.0
  0
LINE
 62
7
  8
0
 10
518.0
 20
-876.0
 30
0.0
 11
490.0
 21
-860.0
 31
0.0
  0
LINE
 62
7
  8
0
 10
546.0
 20
-891.0
 30
0.0
 11
518.0
 21
-876.0
 31
0.0
  0
LINE
 62
7
  8
0
 10
574.0
 20
-904.0
 30
0.0
 11
546.0
 21
-891.0
 31
0.0
  0
LINE
 62
7
  8
0
 10
602.0
 20
-917.0
 30
0.0
 11
574.0
 21
-904.0
 31
0.0
  0
LINE
 62
7
  8
0
 10
631.0
 20
-929.0
 30
0.0
 11
602.0
 21
-917.0
 31
0.0
  0
LINE
 62
7
  8
0
 10
661.0
 20
-940.0
 30
0.0
 11
631.0
 21
-929.0
 31
0.0
  0
LINE
 62
7
  8
0
 10
690.0
 20
-951.0
 30
0.0
 11
661.0
 21
-940.0
 31
0.0
  0
LINE
 62
7
  8
0
 10
721.0
 20
-960.0
 30
0.0
 11
690.0
 21
-951.0
 31
0.0
  0
LINE
 62
7
  8
0
 10
751.0
 20
-968.0
 30
0.0
 11
721.0
 21
-960.0
 31
0.0
  0
LINE
 62
7
  8
0
 10
781.0
 20
-975.0
 30
0.0
 11
751.0
 21
-968.0
 31
0.0
  0
LINE
 62
7
  8
0
 10
812.0
 20
-982.0
 30
0.0
 11
781.0
 21
-975.0
 31
0.0
  0
LINE
 62
7
  8
0
 10
843.0
 20
-987.0
 30
0.0
 11
812.0
 21
-982.0
 31
0.0
  0
LINE
 62
7
  8
0
 10
874.0
 20
-992.0
 30
0.0
 11
843.0
 21
-987.0
 31
0.0
  0
LINE
 62
7
  8
0
 10
905.0
 20
-995.0
 30
0.0
 11
874.0
 21
-992.0
 31
0.0
  0
LINE
 62
7
  8
0
 10
937.0
 20
-998.0
 30
0.0
 11
905.0
 21
-995.0
 31
0.0
  0
LINE
 62
7
  8
0
 10
968.0
 20
-999.0
 30
0.0
 11
937.0
 21
-998.0
 31
0.0
  0
LINE
 62
7
  8
0
 10
1000.0
 20
-1000.0
 30
0.0
 11
968.0
 21
-999.0
 31
0.0
  0
LINE
 62
7
  8
0
 10
1031.0
 20
-999.0
 30
0.0
 11
1000.0
 21
-1000.0
 31
0.0
  0
LINE
 62
7
  8
0
 10
1062.0
 20
-998.0
 30
0.0
 11
1031.0
 21
-999.0
 31
0.0
  0
LINE
 62
7
  8
0
 10
1094.0
 20
-995.0
 30
0.0
 11
1062.0
 21
-998.0
 31
0.0
  0
LINE
 62
7
  8
0
 10
1125.0
 20
-992.0
 30
0.0
 11
1094.0
 21
-995.0
 31
0.0
  0
LINE
 62
7
  8
0
 10
1156.0
 20
-987.0
 30
0.0
 11
1125.0
 21
-992.0
 31
0.0
  0
LINE
 62
7
  8
0
 10
1187.0
 20
-982.0
 30
0.0
 11
1156.0
 21
-987.0
 31
0.0
  0
LINE
 62
7
  8
0
 10
1218.0
 20
-975.0
 30
0.0
 11
1187.0
 21
-982.0
 31
0.0
  0
LINE
 62
7
  8
0
 10
1248.0
 20
-968.0
 30
0.0
 11
1218.0
 21
-975.0
 31
0.0
  0
LINE
 62
7
  8
0
 10
1278.0
 20
-960.0
 30
0.0
 11
1248.0
 21
-968.0
 31
0.0
  0
LINE
 62
7
  8
0
 10
1309.0
 20
-951.0
 30
0.0
 11
1278.0
 21
-960.0
 31
0.0
  0
LINE
 62
7
  8
0
 10
1338.0
 20
-940.0
 30
0.0
 11
1309.0
 21
-951.0
 31
0.0
  0
LINE
 62
7
  8
0
 10
1368.0
 20
-929.0
 30
0.0
 11
1338.0
 21
-940.0
 31
0.0
  0
LINE
 62
7
  8
0
 10
1397.0
 20
-917.0
 30
0.0
 11
1368.0
 21
-929.0
 31
0.0
  0
LINE
 62
7
  8
0
 10
1425.0
 20
-904.0
 30
0.0
 11
1397.0
 21
-917.0
 31
0.0
  0
LINE
 62
7
  8
0
 10
1453.0
 20
-891.0
 30
0.0
 11
1425.0
 21
-904.0
 31
0.0
  0
LINE
 62
7
  8
0
 10
1481.0
 20
-876.0
 30
0.0
 11
1453.0
 21
-891.0
 31
0.0
  0
LINE
 62
7
  8
0
 10
1509.0
 20
-860.0
 30
0.0
 11
1481.0
 21
-876.0
 31
0.0
  0
LINE
 62
7
  8
0
 10
1535.0
 20
-844.0
 30
0.0
 11
1509.0
 21
-860.0
 31
0.0
  0
LINE
 62
7
  8
0
 10
1562.0
 20
-827.0
 30
0.0
 11
1535.0
 21
-844.0
 31
0.0
  0
LINE
 62
7
  8
0
 10
1587.0
 20
-809.0
 30
0.0
 11
1562.0
 21
-827.0
 31
0.0
  0
LINE
 62
7
  8
0
 10
1612.0
 20
-790.0
 30
0.0
 11
1587.0
 21
-809.0
 31
0.0
  0
LINE
 62
7
  8
0
 10
1637.0
 20
-770.0
 30
0.0
 11
1612.0
 21
-790.0
 31
0.0
  0
LINE
 62
7
  8
0
 10
1661.0
 20
-750.0
 30
0.0
 11
1637.0
 21
-770.0
 31
0.0
  0
LINE
 62
7
  8
0
 10
1684.0
 20
-728.0
 30
0.0
 11
1661.0
 21
-750.0
 31
0.0
  0
LINE
 62
7
  8
0
 10
1707.0
 20
-707.0
 30
0.0
 11
1684.0
 21
-728.0
 31
0.0
  0
LINE
 62
7
  8
0
 10
1728.0
 20
-684.0
 30
0.0
 11
1707.0
 21
-707.0
 31
0.0
  0
LINE
 62
7
  8
0
 10
1750.0
 20
-661.0
 30
0.0
 11
1728.0
 21
-684.0
 31
0.0
  0
LINE
 62
7
  8
0
 10
1770.0
 20
-637.0
 30
0.0
 11
1750.0
 21
-661.0
 31
0.0
  0
LINE
 62
7
  8
0
 10
1790.0
 20
-612.0
 30
0.0
 11
1770.0
 21
-637.0
 31
0.0
  0
LINE
 62
7
  8
0
 10
1809.0
 20
-587.0
 30
0.0
 11
1790.0
 21
-612.0
 31
0.0
  0
LINE
 62
7
  8
0
 10
1827.0
 20
-562.0
 30
0.0
 11
1809.0
 21
-587.0
 31
0.0
  0
LINE
 62
7
  8
0
 10
1844.0
 20
-535.0
 30
0.0
 11
1827.0
 21
-562.0
 31
0.0
  0
LINE
 62
7
  8
0
 10
1860.0
 20
-509.0
 30
0.0
 11
1844.0
 21
-535.0
 31
0.0
  0
LINE
 62
7
  8
0
 10
1876.0
 20
-481.0
 30
0.0
 11
1860.0
 21
-509.0
 31
0.0
  0
LINE
 62
7
  8
0
 10
1891.0
 20
-453.0
 30
0.0
 11
1876.0
 21
-481.0
 31
0.0
  0
LINE
 62
7
  8
0
 10
1904.0
 20
-425.0
 30
0.0
 11
1891.0
 21
-453.0
 31
0.0
  0
LINE
 62
7
  8
0
 10
1917.0
 20
-397.0
 30
0.0
 11
1904.0
 21
-425.0
 31
0.0
  0
LINE
 62
7
  8
0
 10
1929.0
 20
-368.0
 30
0.0
 11
1917.0
 21
-397.0
 31
0.0
  0
LINE
 62
7
  8
0
 10
1940.0
 20
-338.0
 30
0.0
 11
1929.0
 21
-368.0
 31
0.0
  0
LINE
 62
7
  8
0
 10
1951.0
 20
-309.0
 30
0.0
 11
1940.0
 21
-338.0
 31
0.0
  0
LINE
 62
7
  8
0
 10
1960.0
 20
-278.0
 30
0.0
 11
1951.0
 21
-309.0
 31
0.0
  0
LINE
 62
7
  8
0
 10
1968.0
 20
-248.0
 30
0.0
 11
1960.0
 21
-278.0
 31
0.0
  0
LINE
 62
7
  8
0
 10
1975.0
 20
-218.0
 30
0.0
 11
1968.0
 21
-248.0
 31
0.0
  0
LINE
 62
7
  8
0
 10
1982.0
 20
-187.0
 30
0.0
 11
1975.0
 21
-218.0
 31
0.0
  0
LINE
 62
7
  8
0
 10
1987.0
 20
-156.0
 30
0.0
 11
1982.0
 21
-187.0
 31
0.0
  0
LINE
 62
7
  8
0
 10
1992.0
 20
-125.0
 30
0.0
 11
1987.0
 21
-156.0
 31
0.0
  0
LINE
 62
7
  8
0
 10
1995.0
 20
-94.0
 30
0.0
 11
1992.0
 21
-125.0
 31
0.0
  0
LINE
 62
7
  8
0
 10
1998.0
 20
-62.0
 30
0.0
 11
1995.0
 21
-94.0
 31
0.0
  0
LINE
 62
7
  8
0
 10
1999.0
 20
-31.0
 30
0.0
 11
1998.0
 21
-62.0
 31
0.0
  0
LINE
 62
7
  8
0
 10
2000.0
 20
0.0
 30
0.0
 11
1999.0
 21
-31.0
 31
0.0
  0
LINE
 62
7
  8
0
 10
1999.0
 20
31.0
 30
0.0
 11
2000.0
 21
0.0
 31
0.0
  0
LINE
 62
7
  8
0
 10
1998.0
 20
62.0
 30
0.0
 11
1999.0
 21
31.0
 31
0.0
  0
LINE
 62
7
  8
0
 10
1995.0
 20
94.0
 30
0.0
 11
1998.0
 21
62.0
 31
0.0
  0
LINE
 62
7
  8
0
 10
1992.0
 20
125.0
 30
0.0
 11
1995.0
 21
94.0
 31
0.0
  0
LINE
 62
7
  8
0
 10
1987.0
 20
156.0
 30
0.0
 11
1992.0
 21
125.0
 31
0.0
  0
LINE
 62
7
  8
0
 10
1982.0
 20
187.0
 30
0.0
 11
1987.0
 21
156.0
 31
0.0
  0
LINE
 62
7
  8
0
 10
1975.0
 20
218.0
 30
0.0
 11
1982.0
 21
187.0
 31
0.0
  0
LINE
 62
7
  8
0
 10
1968.0
 20
248.0
 30
0.0
 11
1975.0
 21
218.0
 31
0.0
  0
LINE
 62
7
  8
0
 10
1960.0
 20
278.0
 30
0.0
 11
1968.0
 21
248.0
 31
0.0
  0
LINE
 62
7
  8
0
 10
1951.0
 20
309.0
 30
0.0
 11
1960.0
 21
278.0
 31
0.0
  0
LINE
 62
7
  8
0
 10
1940.0
 20
338.0
 30
0.0
 11
1951.0
 21
309.0
 31
0.0
  0
LINE
 62
7
  8
0
 10
1929.0
 20
368.0
 30
0.0
 11
1940.0
 21
338.0
 31
0.0
  0
LINE
 62
7
  8
0
 10
1917.0
 20
397.0
 30
0.0
 11
1929.0
 21
368.0
 31
0.0
  0
LINE
 62
7
  8
0
 10
1904.0
 20
425.0
 30
0.0
 11
1917.0
 21
397.0
 31
0.0
  0
LINE
 62
7
  8
0
 10
1891.0
 20
453.0
 30
0.0
 11
1904.0
 21
425.0
 31
0.0
  0
LINE
 62
7
  8
0
 10
1876.0
 20
481.0
 30
0.0
 11
1891.0
 21
453.0
 31
0.0
  0
LINE
 62
7
  8
0
 10
1860.0
 20
509.0
 30
0.0
 11
1876.0
 21
481.0
 31
0.0
  0
LINE
 62
7
  8
0
 10
1844.0
 20
535.0
 30
0.0
 11
1860.0
 21
509.0
 31
0.0
  0
LINE
 62
7
  8
0
 10
1827.0
 20
562.0
 30
0.0
 11
1844.0
 21
535.0
 31
0.0
  0
LINE
 62
7
  8
0
 10
1809.0
 20
587.0
 30
0.0
 11
1827.0
 21
562.0
 31
0.0
  0
LINE
 62
7
  8
0
 10
1790.0
 20
612.0
 30
0.0
 11
1809.0
 21
587.0
 31
0.0
  0
LINE
 62
7
  8
0
 10
1770.0
 20
637.0
 30
0.0
 11
1790.0
 21
612.0
 31
0.0
  0
LINE
 62
7
  8
0
 10
1750.0
 20
661.0
 30
0.0
 11
1770.0
 21
637.0
 31
0.0
  0
LINE
 62
7
  8
0
 10
1728.0
 20
684.0
 30
0.0
 11
1750.0
 21
661.0
 31
0.0
  0
LINE
 62
7
  8
0
 10
1707.0
 20
707.0
 30
0.0
 11
1728.0
 21
684.0
 31
0.0
  0
LINE
 62
7
  8
0
 10
1684.0
 20
728.0
 30
0.0
 11
1707.0
 21
707.0
 31
0.0
  0
LINE
 62
7
  8
0
 10
1661.0
 20
750.0
 30
0.0
 11
1684.0
 21
728.0
 31
0.0
  0
LINE
 62
7
  8
0
 10
1637.0
 20
770.0
 30
0.0
 11
1661.0
 21
750.0
 31
0.0
  0
LINE
 62
7
  8
0
 10
1612.0
 20
790.0
 30
0.0
 11
1637.0
 21
770.0
 31
0.0
  0
LINE
 62
7
  8
0
 10
1587.0
 20
809.0
 30
0.0
 11
1612.0
 21
790.0
 31
0.0
  0
LINE
 62
7
  8
0
 10
1562.0
 20
827.0
 30
0.0
 11
1587.0
 21
809.0
 31
0.0
  0
LINE
 62
7
  8
0
 10
1535.0
 20
844.0
 30
0.0
 11
1562.0
 21
827.0
 31
0.0
  0
LINE
 62
7
  8
0
 10
1509.0
 20
860.0
 30
0.0
 11
1535.0
 21
844.0
 31
0.0
  0
LINE
 62
7
  8
0
 10
1481.0
 20
876.0
 30
0.0
 11
1509.0
 21
860.0
 31
0.0
  0
LINE
 62
7
  8
0
 10
1453.0
 20
891.0
 30
0.0
 11
1481.0
 21
876.0
 31
0.0
  0
LINE
 62
7
  8
0
 10
1425.0
 20
904.0
 30
0.0
 11
1453.0
 21
891.0
 31
0.0
  0
LINE
 62
7
  8
0
 10
1397.0
 20
917.0
 30
0.0
 11
1425.0
 21
904.0
 31
0.0
  0
LINE
 62
7
  8
0
 10
1368.0
 20
929.0
 30
0.0
 11
1397.0
 21
917.0
 31
0.0
  0
LINE
 62
7
  8
0
 10
1338.0
 20
940.0
 30
0.0
 11
1368.0
 21
929.0
 31
0.0
  0
LINE
 62
7
  8
0
 10
1309.0
 20
951.0
 30
0.0
 11
1338.0
 21
940.0
 31
0.0
  0
LINE
 62
7
  8
0
 10
1278.0
 20
960.0
 30
0.0
 11
1309.0
 21
951.0
 31
0.0
  0
LINE
 62
7
  8
0
 10
1248.0
 20
968.0
 30
0.0
 11
1278.0
 21
960.0
 31
0.0
  0
LINE
 62
7
  8
0
 10
1218.0
 20
975.0
 30
0.0
 11
1248.0
 21
968.0
 31
0.0
  0
LINE
 62
7
  8
0
 10
1187.0
 20
982.0
 30
0.0
 11
1218.0
 21
975.0
 31
0.0
  0
LINE
 62
7
  8
0
 10
1156.0
 20
987.0
 30
0.0
 11
1187.0
 21
982.0
 31
0.0
  0
LINE
 62
7
  8
0
 10
1125.0
 20
992.0
 30
0.0
 11
1156.0
 21
987.0
 31
0.0
  0
LINE
 62
7
  8
0
 10
1094.0
 20
995.0
 30
0.0
 11
1125.0
 21
992.0
 31
0.0
  0
LINE
 62
7
  8
0
 10
1062.0
 20
998.0
 30
0.0
 11
1094.0
 21
995.0
 31
0.0
  0
LINE
 62
7
  8
0
 10
1031.0
 20
999.0
 30
0.0
 11
1062.0
 21
998.0
 31
0.0
  0
LINE
 62
7
  8
0
 10
1031.0
 20
999.0
 30
0.0
 11
0.0
 21
1000.0
 31
0.0
  0
ENDSEC
  0
EOF
